<?xml version="1.0" encoding="UTF-8" standalone="no"?>
<svg
   width="479.11789"
   height="173.44569"
   viewBox="0 0 479.11789 173.44569"
   fill="none"
   version="1.1"
   id="svg8"
   sodipodi:docname="airbotics.svg"
   inkscape:version="1.2.1 (9c6d41e410, 2022-07-14)"
   xmlns:inkscape="http://www.inkscape.org/namespaces/inkscape"
   xmlns:sodipodi="http://sodipodi.sourceforge.net/DTD/sodipodi-0.dtd"
   xmlns="http://www.w3.org/2000/svg"
   xmlns:svg="http://www.w3.org/2000/svg">
  <defs
     id="defs12" />
  <sodipodi:namedview
     id="namedview10"
     pagecolor="#ffffff"
     bordercolor="#666666"
     borderopacity="1.0"
     inkscape:showpageshadow="2"
     inkscape:pageopacity="0.0"
     inkscape:pagecheckerboard="true"
     inkscape:deskcolor="#d1d1d1"
     showgrid="false"
     inkscape:zoom="3.0605469"
     inkscape:cx="243.74729"
     inkscape:cy="87.40268"
     inkscape:window-width="2560"
     inkscape:window-height="1334"
     inkscape:window-x="-11"
     inkscape:window-y="-11"
     inkscape:window-maximized="1"
     inkscape:current-layer="svg8" />
  <path
     d="m 65.6133,3.4738875 c 8.0226,-4.63185 17.9068,-4.63185 25.9296,0 l 52.648,30.3967105 c 8.023,4.631799 12.965,13.1918 12.965,22.4555 V 117.1197 c 0,9.264 -4.942,17.823 -12.965,22.455 l -52.648,30.397 c -8.0228,4.632 -17.907,4.632 -25.9296,0 L 12.9647,139.5747 C 4.9421,134.9427 0,126.3827 0,117.1197 V 56.326098 c 0,-9.2637 4.9421,-17.823701 12.9647,-22.4555 z"
     fill="#ff8800"
     id="path2" />
  <path
     d="m 175.4039,113.6787 c 0,1.066 -0.376,1.974 -1.128,2.726 -0.689,0.752 -1.566,1.128 -2.631,1.128 -1.128,0 -2.037,-0.376 -2.726,-1.128 -0.69,-0.752 -1.034,-1.66 -1.034,-2.726 V 71.945697 c 0,-1.0653 0.344,-1.9426 1.034,-2.6319 0.752,-0.7519 1.66,-1.1279 2.726,-1.1279 1.065,0 1.942,0.376 2.631,1.1279 0.752,0.6893 1.128,1.5666 1.128,2.6319 z m -3.759,-51.790403 c -1.567,0 -2.726,-0.3133 -3.478,-0.94 -0.752,-0.6266 -1.128,-1.5979 -1.128,-2.9138 v -1.3159 c 0,-1.3159 0.407,-2.2872 1.222,-2.9138 0.814,-0.6267 1.974,-0.94 3.478,-0.94 1.503,0 2.631,0.3133 3.383,0.94 0.752,0.6266 1.128,1.5979 1.128,2.9138 v 1.3159 c 0,1.3159 -0.407,2.2872 -1.222,2.9138 -0.752,0.6267 -1.88,0.94 -3.383,0.94 z m 21.026,55.644403 c -1.065,0 -1.974,-0.376 -2.725,-1.128 -0.69,-0.752 -1.034,-1.66 -1.034,-2.726 V 72.697597 c 0,-1.0652 0.344,-1.942499 1.034,-2.631799 0.751,-0.752 1.66,-1.128 2.725,-1.128 1.128,0 2.037,0.376 2.726,1.128 0.689,0.6893 1.034,1.566599 1.034,2.631799 v 12.4073 l -1.128,-1.9739 c 0.376,-1.9426 1.034,-3.8224 1.974,-5.6397 1.003,-1.8799 2.256,-3.5404 3.76,-4.9817 1.504,-1.5039 3.227,-2.6631 5.17,-3.4778 1.942,-0.8772 4.073,-1.3159 6.391,-1.3159 1.379,0 2.632,0.3447 3.76,1.034 1.191,0.6266 1.786,1.5352 1.786,2.7258 0,1.3159 -0.345,2.2872 -1.034,2.9138 -0.689,0.6266 -1.473,0.94 -2.35,0.94 -0.815,0 -1.598,-0.1567 -2.35,-0.47 -0.752,-0.376 -1.692,-0.564 -2.82,-0.564 -1.566,0 -3.133,0.4387 -4.699,1.3159 -1.504,0.8147 -2.914,2.0053 -4.23,3.5718 -1.253,1.5666 -2.287,3.3525 -3.102,5.3577 -0.752,1.9425 -1.128,4.0418 -1.128,6.2976 V 113.6787 c 0,1.066 -0.376,1.974 -1.128,2.726 -0.689,0.752 -1.566,1.128 -2.632,1.128 z m 57.935,-49.816803 c 4.261,0 8.084,1.0966 11.468,3.2898 3.383,2.1306 6.047,5.0757 7.989,8.8355 2.005,3.7598 3.008,8.1148 3.008,13.0652 0,4.9503 -1.003,9.336303 -3.008,13.159303 -1.942,3.822 -4.606,6.861 -7.989,9.117 -3.321,2.194 -7.081,3.29 -11.28,3.29 -2.318,0 -4.511,-0.345 -6.579,-1.034 -2.005,-0.752 -3.854,-1.723 -5.546,-2.914 -1.629,-1.253 -3.008,-2.6 -4.136,-4.041 -1.128,-1.504 -1.942,-2.977 -2.444,-4.418 l 2.068,-1.316 v 9.399 c 0,1.066 -0.344,1.974 -1.034,2.726 -0.689,0.752 -1.597,1.128 -2.725,1.128 -1.066,0 -1.974,-0.344 -2.726,-1.034 -0.69,-0.752 -1.034,-1.692 -1.034,-2.82 V 51.830897 c 0,-1.0653 0.344,-1.9739 1.034,-2.7258 0.752,-0.752 1.66,-1.128 2.726,-1.128 1.128,0 2.036,0.376 2.725,1.128 0.69,0.7519 1.034,1.6605 1.034,2.7258 v 28.950201 l -1.41,-0.751901 c 0.439,-1.5666 1.191,-3.0705 2.256,-4.511799 1.128,-1.503901 2.475,-2.819801 4.042,-3.9477 1.629,-1.190601 3.415,-2.1305 5.358,-2.8198 2.005,-0.689301 4.073,-1.034001 6.203,-1.034001 z m -0.846,6.9556 c -3.133,0 -5.921,0.7833 -8.365,2.3499 -2.381,1.5665 -4.261,3.7284 -5.64,6.4856 -1.316,2.7571 -1.974,5.8903 -1.974,9.3994 0,3.5093 0.658,6.6733 1.974,9.493303 1.379,2.82 3.259,5.044 5.64,6.674 2.444,1.629 5.232,2.444 8.365,2.444 3.134,0 5.891,-0.815 8.272,-2.444 2.381,-1.63 4.261,-3.854 5.64,-6.674 1.378,-2.820002 2.067,-5.984002 2.067,-9.493303 0,-3.5091 -0.689,-6.6423 -2.067,-9.3994 -1.379,-2.7572 -3.259,-4.9191 -5.64,-6.4856 -2.381,-1.5666 -5.138,-2.3499 -8.272,-2.3499 z m 80.766,18.4229 c 0,4.8873 -1.097,9.242303 -3.29,13.065303 -2.131,3.822 -5.044,6.83 -8.742,9.023 -3.634,2.194 -7.738,3.29 -12.313,3.29 -4.574,0 -8.71,-1.096 -12.407,-3.29 -3.697,-2.193 -6.642,-5.201 -8.836,-9.023 -2.13,-3.823 -3.195,-8.178003 -3.195,-13.065303 0,-4.8877 1.065,-9.2428 3.195,-13.0652 2.194,-3.8225 5.139,-6.8303 8.836,-9.0235 3.697,-2.1932 7.833,-3.2898 12.407,-3.2898 4.575,0 8.679,1.0966 12.313,3.2898 3.698,2.1932 6.611,5.201 8.742,9.0235 2.193,3.8224 3.29,8.1775 3.29,13.0652 z m -7.52,0 c 0,-3.6345 -0.752,-6.8303 -2.256,-9.5874 -1.441,-2.7572 -3.446,-4.9191 -6.015,-6.4856 -2.507,-1.5666 -5.358,-2.3499 -8.554,-2.3499 -3.196,0 -6.078,0.7833 -8.647,2.3499 -2.507,1.5665 -4.512,3.7284 -6.016,6.4856 -1.504,2.7571 -2.256,5.9529 -2.256,9.5874 0,3.5713 0.752,6.7363 2.256,9.493303 1.504,2.757 3.509,4.95 6.016,6.58 2.569,1.566 5.451,2.35 8.647,2.35 3.196,0 6.047,-0.784 8.554,-2.35 2.569,-1.63 4.574,-3.823 6.015,-6.58 1.504,-2.757003 2.256,-5.922003 2.256,-9.493303 z m 16.95,-23.8746 h 22.089 c 1.002,0 1.817,0.3447 2.443,1.034 0.69,0.6893 1.034,1.5039 1.034,2.4438 0,1.0026 -0.344,1.8486 -1.034,2.5379 -0.626,0.6266 -1.441,0.9399 -2.443,0.9399 h -22.089 c -0.94,0 -1.755,-0.3446 -2.444,-1.0339 -0.689,-0.6893 -1.034,-1.5353 -1.034,-2.5379 0,-0.9399 0.345,-1.7232 1.034,-2.3498 0.689,-0.6893 1.504,-1.034 2.444,-1.034 z m 9.869,-12.7832 c 1.066,0 1.943,0.376 2.632,1.1279 0.69,0.6893 1.034,1.5666 1.034,2.6319 V 105.5957 c 0,1.504 0.219,2.632 0.658,3.384 0.439,0.752 1.003,1.284 1.692,1.598 0.752,0.25 1.473,0.376 2.162,0.376 0.627,0 1.159,-0.094 1.598,-0.282 0.501,-0.251 1.065,-0.376 1.692,-0.376 0.626,0 1.19,0.313 1.692,0.94 0.564,0.564 0.846,1.315 0.846,2.255 0,1.128 -0.658,2.1 -1.974,2.914 -1.316,0.752 -2.789,1.128 -4.418,1.128 -0.877,0 -1.974,-0.062 -3.29,-0.188 -1.253,-0.125 -2.506,-0.532 -3.76,-1.222 -1.253,-0.689 -2.318,-1.817 -3.195,-3.384 -0.815,-1.629 -1.222,-3.885 -1.222,-6.767 V 60.196398 c 0,-1.0653 0.376,-1.9426 1.128,-2.6319 0.751,-0.7519 1.66,-1.1279 2.725,-1.127901 z m 33.395,57.242103 c 0,1.066 -0.376,1.974 -1.128,2.726 -0.689,0.752 -1.567,1.128 -2.632,1.128 -1.128,0 -2.037,-0.376 -2.726,-1.128 -0.689,-0.752 -1.034,-1.66 -1.034,-2.726 V 71.945697 c 0,-1.0653 0.345,-1.9426 1.034,-2.6319 0.752,-0.7519 1.661,-1.1279 2.726,-1.1279 1.065,0 1.943,0.376 2.632,1.1279 0.752,0.6893 1.128,1.5666 1.128,2.6319 z m -3.76,-51.790403 c -1.567,0 -2.726,-0.3133 -3.478,-0.94 -0.752,-0.6266 -1.128,-1.5979 -1.128,-2.9138 v -1.3159 c 0,-1.3159 0.408,-2.2872 1.222,-2.9138 0.815,-0.6267 1.974,-0.94 3.478,-0.94 1.504,0 2.632,0.3133 3.384,0.94 0.752,0.6266 1.128,1.5979 1.128,2.9138 v 1.3159 c 0,1.3159 -0.408,2.2872 -1.222,2.9138 -0.752,0.6267 -1.88,0.94 -3.384,0.94 z m 38.886,5.8276 c 3.196,0 6.078,0.3447 8.647,1.034001 2.569,0.6893 4.606,1.629199 6.11,2.8198 1.504,1.1906 2.256,2.5378 2.256,4.0417 0,0.8147 -0.282,1.5979 -0.846,2.3499 -0.564,0.752 -1.316,1.1279 -2.256,1.1279 -0.877,0 -1.598,-0.1566 -2.162,-0.4699 -0.501,-0.3134 -1.003,-0.7207 -1.504,-1.222 -0.439,-0.5013 -1.065,-0.9399 -1.88,-1.3159 -0.752,-0.4386 -1.848,-0.7833 -3.29,-1.0339 -1.441,-0.2507 -2.882,-0.376 -4.323,-0.376 -3.447,0 -6.486,0.8146 -9.118,2.4439 -2.569,1.6292 -4.605,3.8224 -6.109,6.5796 -1.504,2.7571 -2.256,5.8903 -2.256,9.3994 0,3.5093 0.72,6.6423 2.162,9.399302 1.441,2.757 3.446,4.95 6.015,6.58 2.569,1.629 5.546,2.444 8.93,2.444 2.193,0 3.947,-0.188 5.263,-0.564 1.316,-0.376 2.413,-0.815 3.29,-1.316 1.128,-0.627 1.974,-1.254 2.538,-1.88 0.627,-0.627 1.441,-0.94 2.444,-0.94 1.065,0 1.88,0.344 2.444,1.034 0.626,0.689 0.94,1.535 0.94,2.538 0,1.128 -0.784,2.318 -2.35,3.571 -1.567,1.254 -3.697,2.319 -6.392,3.196 -2.632,0.877 -5.639,1.316 -9.023,1.316 -4.763,0 -8.93,-1.096 -12.501,-3.29 -3.572,-2.256 -6.361,-5.295 -8.366,-9.117 -1.943,-3.885 -2.914,-8.209002 -2.914,-12.971302 0,-4.7624 1.003,-9.0548 3.008,-12.8772 2.068,-3.8225 4.919,-6.8616 8.554,-9.1175 3.634,-2.2558 7.864,-3.3838 12.689,-3.383801 z m 24.396,42.109803 c -0.564,-0.815 -0.814,-1.661 -0.752,-2.538 0.063,-0.94 0.596,-1.755 1.598,-2.444 0.627,-0.439 1.348,-0.627 2.162,-0.564 0.877,0.063 1.661,0.47 2.35,1.222 1.755,2.068 3.76,3.728 6.016,4.982 2.256,1.19 5.013,1.786 8.271,1.786 1.504,-0.063 3.008,-0.314 4.512,-0.752 1.504,-0.439 2.757,-1.191 3.76,-2.256 1.065,-1.128 1.598,-2.601 1.598,-4.418 0,-1.755 -0.533,-3.133 -1.598,-4.136 -1.066,-1.065003 -2.444,-1.911003 -4.136,-2.538003 -1.692,-0.688999 -3.541,-1.284 -5.546,-1.786 -2.068,-0.5635 -4.104,-1.1901 -6.109,-1.8794 -2.006,-0.752 -3.823,-1.6606 -5.452,-2.7258 -1.567,-1.128 -2.851,-2.5066 -3.854,-4.1358 -0.94,-1.6919 -1.41,-3.7284 -1.41,-6.1096 0,-2.8198 0.752,-5.2637 2.256,-7.3316 1.567,-2.0678 3.635,-3.6657 6.204,-4.7937 2.632,-1.1279 5.483,-1.6919 8.553,-1.6919 1.755,0 3.572,0.2193 5.452,0.658 1.942,0.376 3.822,1.0653 5.64,2.0679 1.817,0.9399 3.415,2.2558 4.793,3.9477 0.564,0.6266 0.878,1.4099 0.94,2.3499 0.063,0.9399 -0.344,1.7859 -1.222,2.5378 -0.689,0.5013 -1.472,0.7206 -2.35,0.658 -0.814,-0.0627 -1.503,-0.376 -2.067,-0.94 -1.316,-1.5665 -2.977,-2.7571 -4.982,-3.5717 -1.943,-0.8773 -4.105,-1.316 -6.486,-1.316 -1.504,0 -2.976,0.2194 -4.417,0.658 -1.442,0.4386 -2.664,1.1906 -3.666,2.2559 -0.94,1.0026 -1.41,2.4125 -1.41,4.2297 0.063,1.6919 0.626,3.0705 1.692,4.1357 1.065,1.0653 2.506,1.9426 4.323,2.6319 1.818,0.6266 3.823,1.2532 6.016,1.8799 2.005,0.5013 3.917,1.0966 5.734,1.7859 1.88,0.6266 3.572,1.4725 5.075,2.5378 1.504,1.0653 2.695,2.4434 3.572,4.1354 0.878,1.63 1.316,3.697003 1.316,6.204003 0,2.882 -0.814,5.389 -2.444,7.52 -1.629,2.067 -3.791,3.665 -6.485,4.793 -2.632,1.065 -5.483,1.598 -8.554,1.598 -3.446,0 -6.861,-0.658 -10.245,-1.974 -3.321,-1.316 -6.204,-3.54 -8.648,-6.673 z"
     fill="#3d495b"
     id="path4" />
  <path
     d="m 138.8409,68.923698 c 1.065,0 1.943,0.376 2.632,1.127899 0.752,0.689301 1.128,1.5666 1.128,2.631901 V 114.1347 c 0,1.066 -0.376,1.974 -1.128,2.726 -0.689,0.752 -1.567,1.128 -2.632,1.128 -1.128,0 -2.036,-0.376 -2.726,-1.128 -0.689,-0.752 -1.034,-1.66 -1.034,-2.726 v -8.929 l 1.786,-0.188 c 0,1.378 -0.47,2.882 -1.41,4.512 -0.94,1.629 -2.224,3.164 -3.853,4.605 -1.63,1.379 -3.572,2.538 -5.828,3.478 -2.193,0.877 -4.574,1.316 -7.144,1.316 -4.261,0 -8.083,-1.097 -11.467,-3.29 -3.384,-2.256 -6.078,-5.295 -8.083,-9.117 -1.943,-3.823 -2.914,-8.178003 -2.914,-13.065503 0,-4.9504 0.971,-9.3054 2.914,-13.0652 2.005,-3.8224 4.699,-6.7989 8.083,-8.9295 3.384,-2.1932 7.144,-3.2898 11.279,-3.2898 2.695,0 5.201,0.4387 7.52,1.316 2.318,0.8772 4.324,2.0678 6.016,3.5717 1.754,1.5039 3.101,3.1645 4.041,4.9817 1.003,1.8173 1.504,3.6345 1.504,5.4517 l -2.444,-0.563999 v -10.2453 c 0,-1.0653 0.345,-1.9426 1.034,-2.631901 0.69,-0.7519 1.598,-1.127899 2.726,-1.127899 z m -19.363,43.049002 c 3.133,0 5.891,-0.814 8.272,-2.443 2.444,-1.63 4.324,-3.823 5.639,-6.58 1.379,-2.82 2.068,-5.984002 2.068,-9.493502 0,-3.4465 -0.689,-6.5483 -2.068,-9.3054 -1.315,-2.8199 -3.195,-5.0131 -5.639,-6.5796 -2.381,-1.6293 -5.139,-2.4439 -8.272,-2.4439 -3.07,0 -5.827,0.7833 -8.271,2.3499 -2.381,1.5665 -4.261,3.7284 -5.64,6.4856 -1.378,2.7571 -2.068,5.9216 -2.068,9.4934 0,3.5095 0.658,6.673502 1.974,9.493502 1.379,2.757 3.259,4.95 5.64,6.58 2.444,1.629 5.232,2.443 8.365,2.443 z"
     fill="#ffffff"
     id="path6" />
</svg>
