<svg width="512" height="182" viewBox="0 0 512 182" fill="none" xmlns="http://www.w3.org/2000/svg">
<path d="M77.7694 7.48519C85.792 2.85334 95.6762 2.85334 103.699 7.48519L156.347 37.8819C164.37 42.5137 169.312 51.0737 169.312 60.3374V121.131C169.312 130.395 164.37 138.954 156.347 143.586L103.699 173.983C95.6762 178.615 85.792 178.615 77.7694 173.983L25.1208 143.586C17.0982 138.954 12.1561 130.394 12.1561 121.131V60.3374C12.1561 51.0737 17.0982 42.5137 25.1208 37.8819L77.7694 7.48519Z" fill="#FF8800"/>
<path d="M187.56 117.69C187.56 118.756 187.184 119.664 186.432 120.416C185.743 121.168 184.866 121.544 183.801 121.544C182.673 121.544 181.764 121.168 181.075 120.416C180.385 119.664 180.041 118.756 180.041 117.69V75.957C180.041 74.8917 180.385 74.0144 181.075 73.3251C181.827 72.5732 182.735 72.1972 183.801 72.1972C184.866 72.1972 185.743 72.5732 186.432 73.3251C187.184 74.0144 187.56 74.8917 187.56 75.957V117.69ZM183.801 65.8996C182.234 65.8996 181.075 65.5863 180.323 64.9596C179.571 64.333 179.195 63.3617 179.195 62.0458V60.7299C179.195 59.414 179.602 58.4427 180.417 57.8161C181.231 57.1894 182.391 56.8761 183.895 56.8761C185.398 56.8761 186.526 57.1894 187.278 57.8161C188.03 58.4427 188.406 59.414 188.406 60.7299V62.0458C188.406 63.3617 187.999 64.333 187.184 64.9596C186.432 65.5863 185.304 65.8996 183.801 65.8996ZM204.827 121.544C203.762 121.544 202.853 121.168 202.102 120.416C201.412 119.664 201.068 118.756 201.068 117.69V76.7089C201.068 75.6437 201.412 74.7664 202.102 74.0771C202.853 73.3251 203.762 72.9491 204.827 72.9491C205.955 72.9491 206.864 73.3251 207.553 74.0771C208.242 74.7664 208.587 75.6437 208.587 76.7089V89.1162L207.459 87.1423C207.835 85.1997 208.493 83.3199 209.433 81.5026C210.436 79.6227 211.689 77.9622 213.193 76.5209C214.697 75.017 216.42 73.8578 218.363 73.0431C220.305 72.1659 222.436 71.7272 224.754 71.7272C226.133 71.7272 227.386 72.0719 228.514 72.7612C229.705 73.3878 230.3 74.2964 230.3 75.487C230.3 76.8029 229.955 77.7742 229.266 78.4008C228.577 79.0274 227.793 79.3408 226.916 79.3408C226.101 79.3408 225.318 79.1841 224.566 78.8708C223.814 78.4948 222.874 78.3068 221.746 78.3068C220.18 78.3068 218.613 78.7455 217.047 79.6227C215.543 80.4374 214.133 81.628 212.817 83.1945C211.564 84.7611 210.53 86.547 209.715 88.5522C208.963 90.4947 208.587 92.594 208.587 94.8498V117.69C208.587 118.756 208.211 119.664 207.459 120.416C206.77 121.168 205.893 121.544 204.827 121.544ZM262.762 71.7272C267.023 71.7272 270.846 72.8238 274.23 75.017C277.613 77.1476 280.277 80.0927 282.219 83.8525C284.224 87.6123 285.227 91.9673 285.227 96.9177C285.227 101.868 284.224 106.254 282.219 110.077C280.277 113.899 277.613 116.938 274.23 119.194C270.909 121.388 267.149 122.484 262.95 122.484C260.632 122.484 258.439 122.139 256.371 121.45C254.366 120.698 252.517 119.727 250.825 118.536C249.196 117.283 247.817 115.936 246.689 114.495C245.561 112.991 244.747 111.518 244.245 110.077L246.313 108.761V118.16C246.313 119.226 245.969 120.134 245.279 120.886C244.59 121.638 243.682 122.014 242.554 122.014C241.488 122.014 240.58 121.67 239.828 120.98C239.138 120.228 238.794 119.288 238.794 118.16V55.8422C238.794 54.7769 239.138 53.8683 239.828 53.1164C240.58 52.3644 241.488 51.9884 242.554 51.9884C243.682 51.9884 244.59 52.3644 245.279 53.1164C245.969 53.8683 246.313 54.7769 246.313 55.8422V84.7924L244.903 84.0405C245.342 82.4739 246.094 80.97 247.159 79.5287C248.287 78.0248 249.634 76.7089 251.201 75.581C252.83 74.3904 254.616 73.4505 256.559 72.7612C258.564 72.0719 260.632 71.7272 262.762 71.7272ZM261.916 78.6828C258.783 78.6828 255.995 79.4661 253.551 81.0327C251.17 82.5992 249.29 84.7611 247.911 87.5183C246.595 90.2754 245.937 93.4086 245.937 96.9177C245.937 100.427 246.595 103.591 247.911 106.411C249.29 109.231 251.17 111.455 253.551 113.085C255.995 114.714 258.783 115.529 261.916 115.529C265.05 115.529 267.807 114.714 270.188 113.085C272.569 111.455 274.449 109.231 275.828 106.411C277.206 103.591 277.895 100.427 277.895 96.9177C277.895 93.4086 277.206 90.2754 275.828 87.5183C274.449 84.7611 272.569 82.5992 270.188 81.0327C267.807 79.4661 265.05 78.6828 261.916 78.6828ZM342.682 97.1057C342.682 101.993 341.585 106.348 339.392 110.171C337.261 113.993 334.348 117.001 330.65 119.194C327.016 121.388 322.912 122.484 318.337 122.484C313.763 122.484 309.627 121.388 305.93 119.194C302.233 117.001 299.288 113.993 297.094 110.171C294.964 106.348 293.899 101.993 293.899 97.1057C293.899 92.218 294.964 87.8629 297.094 84.0405C299.288 80.218 302.233 77.2102 305.93 75.017C309.627 72.8238 313.763 71.7272 318.337 71.7272C322.912 71.7272 327.016 72.8238 330.65 75.017C334.348 77.2102 337.261 80.218 339.392 84.0405C341.585 87.8629 342.682 92.218 342.682 97.1057ZM335.162 97.1057C335.162 93.4712 334.41 90.2754 332.906 87.5183C331.465 84.7611 329.46 82.5992 326.891 81.0327C324.384 79.4661 321.533 78.6828 318.337 78.6828C315.141 78.6828 312.259 79.4661 309.69 81.0327C307.183 82.5992 305.178 84.7611 303.674 87.5183C302.17 90.2754 301.418 93.4712 301.418 97.1057C301.418 100.677 302.17 103.842 303.674 106.599C305.178 109.356 307.183 111.549 309.69 113.179C312.259 114.745 315.141 115.529 318.337 115.529C321.533 115.529 324.384 114.745 326.891 113.179C329.46 111.549 331.465 109.356 332.906 106.599C334.41 103.842 335.162 100.677 335.162 97.1057ZM352.112 73.2311H374.201C375.203 73.2311 376.018 73.5758 376.644 74.2651C377.334 74.9544 377.678 75.769 377.678 76.7089C377.678 77.7115 377.334 78.5575 376.644 79.2468C376.018 79.8734 375.203 80.1867 374.201 80.1867H352.112C351.172 80.1867 350.357 79.8421 349.668 79.1528C348.979 78.4635 348.634 77.6175 348.634 76.6149C348.634 75.675 348.979 74.8917 349.668 74.2651C350.357 73.5758 351.172 73.2311 352.112 73.2311ZM361.981 60.4479C363.047 60.4479 363.924 60.8239 364.613 61.5758C365.303 62.2651 365.647 63.1424 365.647 64.2077V109.607C365.647 111.111 365.866 112.239 366.305 112.991C366.744 113.743 367.308 114.275 367.997 114.589C368.749 114.839 369.47 114.965 370.159 114.965C370.786 114.965 371.318 114.871 371.757 114.683C372.258 114.432 372.822 114.307 373.449 114.307C374.075 114.307 374.639 114.62 375.141 115.247C375.705 115.811 375.987 116.562 375.987 117.502C375.987 118.63 375.329 119.602 374.013 120.416C372.697 121.168 371.224 121.544 369.595 121.544C368.718 121.544 367.621 121.482 366.305 121.356C365.052 121.231 363.799 120.824 362.545 120.134C361.292 119.445 360.227 118.317 359.35 116.75C358.535 115.121 358.128 112.865 358.128 109.983V64.2077C358.128 63.1424 358.504 62.2651 359.256 61.5758C360.007 60.8239 360.916 60.4479 361.981 60.4479ZM395.376 117.69C395.376 118.756 395 119.664 394.248 120.416C393.559 121.168 392.681 121.544 391.616 121.544C390.488 121.544 389.579 121.168 388.89 120.416C388.201 119.664 387.856 118.756 387.856 117.69V75.957C387.856 74.8917 388.201 74.0144 388.89 73.3251C389.642 72.5732 390.551 72.1972 391.616 72.1972C392.681 72.1972 393.559 72.5732 394.248 73.3251C395 74.0144 395.376 74.8917 395.376 75.957V117.69ZM391.616 65.8996C390.049 65.8996 388.89 65.5863 388.138 64.9596C387.386 64.333 387.01 63.3617 387.01 62.0458V60.7299C387.01 59.414 387.418 58.4427 388.232 57.8161C389.047 57.1894 390.206 56.8761 391.71 56.8761C393.214 56.8761 394.342 57.1894 395.094 57.8161C395.846 58.4427 396.222 59.414 396.222 60.7299V62.0458C396.222 63.3617 395.814 64.333 395 64.9596C394.248 65.5863 393.12 65.8996 391.616 65.8996ZM430.502 71.7272C433.698 71.7272 436.58 72.0719 439.149 72.7612C441.718 73.4505 443.755 74.3904 445.259 75.581C446.763 76.7716 447.515 78.1188 447.515 79.6227C447.515 80.4374 447.233 81.2206 446.669 81.9726C446.105 82.7246 445.353 83.1005 444.413 83.1005C443.536 83.1005 442.815 82.9439 442.251 82.6306C441.75 82.3172 441.248 81.9099 440.747 81.4086C440.308 80.9073 439.682 80.4687 438.867 80.0927C438.115 79.6541 437.019 79.3094 435.577 79.0588C434.136 78.8081 432.695 78.6828 431.254 78.6828C427.807 78.6828 424.768 79.4974 422.136 81.1267C419.567 82.7559 417.531 84.9491 416.027 87.7063C414.523 90.4634 413.771 93.5966 413.771 97.1057C413.771 100.615 414.491 103.748 415.933 106.505C417.374 109.262 419.379 111.455 421.948 113.085C424.517 114.714 427.494 115.529 430.878 115.529C433.071 115.529 434.825 115.341 436.141 114.965C437.457 114.589 438.554 114.15 439.431 113.649C440.559 113.022 441.405 112.395 441.969 111.769C442.596 111.142 443.41 110.829 444.413 110.829C445.478 110.829 446.293 111.173 446.857 111.863C447.483 112.552 447.797 113.398 447.797 114.401C447.797 115.529 447.013 116.719 445.447 117.972C443.88 119.226 441.75 120.291 439.055 121.168C436.423 122.045 433.416 122.484 430.032 122.484C425.269 122.484 421.102 121.388 417.531 119.194C413.959 116.938 411.17 113.899 409.165 110.077C407.222 106.192 406.251 101.868 406.251 97.1057C406.251 92.3433 407.254 88.0509 409.259 84.2285C411.327 80.406 414.178 77.3669 417.813 75.111C421.447 72.8552 425.677 71.7272 430.502 71.7272ZM454.898 113.837C454.334 113.022 454.084 112.176 454.146 111.299C454.209 110.359 454.742 109.544 455.744 108.855C456.371 108.416 457.092 108.228 457.906 108.291C458.783 108.354 459.567 108.761 460.256 109.513C462.011 111.581 464.016 113.241 466.272 114.495C468.528 115.685 471.285 116.281 474.543 116.281C476.047 116.218 477.551 115.967 479.055 115.529C480.559 115.09 481.812 114.338 482.815 113.273C483.88 112.145 484.413 110.672 484.413 108.855C484.413 107.1 483.88 105.722 482.815 104.719C481.749 103.654 480.371 102.808 478.679 102.181C476.987 101.492 475.138 100.897 473.133 100.395C471.065 99.8315 469.029 99.2049 467.024 98.5156C465.018 97.7636 463.201 96.855 461.572 95.7898C460.005 94.6618 458.721 93.2832 457.718 91.654C456.778 89.9621 456.308 87.9256 456.308 85.5444C456.308 82.7246 457.06 80.2807 458.564 78.2128C460.131 76.145 462.199 74.5471 464.768 73.4191C467.4 72.2912 470.251 71.7272 473.321 71.7272C475.076 71.7272 476.893 71.9465 478.773 72.3852C480.715 72.7612 482.595 73.4505 484.413 74.4531C486.23 75.393 487.828 76.7089 489.206 78.4008C489.77 79.0274 490.084 79.8107 490.146 80.7507C490.209 81.6906 489.802 82.5366 488.924 83.2885C488.235 83.7898 487.452 84.0091 486.574 83.9465C485.76 83.8838 485.071 83.5705 484.507 83.0065C483.191 81.44 481.53 80.2494 479.525 79.4348C477.582 78.5575 475.42 78.1188 473.039 78.1188C471.535 78.1188 470.063 78.3382 468.622 78.7768C467.18 79.2154 465.958 79.9674 464.956 81.0327C464.016 82.0353 463.546 83.4452 463.546 85.2624C463.609 86.9543 464.172 88.3329 465.238 89.3981C466.303 90.4634 467.744 91.3407 469.561 92.03C471.379 92.6566 473.384 93.2832 475.577 93.9099C477.582 94.4112 479.494 95.0065 481.311 95.6958C483.191 96.3224 484.883 97.1683 486.386 98.2336C487.89 99.2989 489.081 100.677 489.958 102.369C490.836 103.999 491.274 106.066 491.274 108.573C491.274 111.455 490.46 113.962 488.83 116.093C487.201 118.16 485.039 119.758 482.345 120.886C479.713 121.951 476.862 122.484 473.791 122.484C470.345 122.484 466.93 121.826 463.546 120.51C460.225 119.194 457.342 116.97 454.898 113.837Z" fill="#3D495B"/>
<path d="M150.997 72.935C152.062 72.935 152.94 73.311 153.629 74.0629C154.381 74.7522 154.757 75.6295 154.757 76.6948V118.146C154.757 119.212 154.381 120.12 153.629 120.872C152.94 121.624 152.062 122 150.997 122C149.869 122 148.961 121.624 148.271 120.872C147.582 120.12 147.237 119.212 147.237 118.146V109.217L149.023 109.029C149.023 110.407 148.553 111.911 147.613 113.541C146.673 115.17 145.389 116.705 143.76 118.146C142.13 119.525 140.188 120.684 137.932 121.624C135.739 122.501 133.358 122.94 130.788 122.94C126.527 122.94 122.705 121.843 119.321 119.65C115.937 117.394 113.243 114.355 111.238 110.533C109.295 106.71 108.324 102.355 108.324 97.4675C108.324 92.5171 109.295 88.1621 111.238 84.4023C113.243 80.5799 115.937 77.6034 119.321 75.4728C122.705 73.2796 126.465 72.183 130.6 72.183C133.295 72.183 135.801 72.6217 138.12 73.499C140.438 74.3762 142.444 75.5668 144.136 77.0707C145.89 78.5746 147.237 80.2352 148.177 82.0524C149.18 83.8697 149.681 85.6869 149.681 87.5041L147.237 86.9401V76.6948C147.237 75.6295 147.582 74.7522 148.271 74.0629C148.961 73.311 149.869 72.935 150.997 72.935ZM131.634 115.984C134.767 115.984 137.525 115.17 139.906 113.541C142.35 111.911 144.23 109.718 145.545 106.961C146.924 104.141 147.613 100.977 147.613 97.4675C147.613 94.021 146.924 90.9192 145.545 88.1621C144.23 85.3422 142.35 83.149 139.906 81.5825C137.525 79.9532 134.767 79.1386 131.634 79.1386C128.564 79.1386 125.807 79.9219 123.363 81.4885C120.982 83.055 119.102 85.2169 117.723 87.9741C116.345 90.7312 115.655 93.8957 115.655 97.4675C115.655 100.977 116.313 104.141 117.629 106.961C119.008 109.718 120.888 111.911 123.269 113.541C125.713 115.17 128.501 115.984 131.634 115.984Z" fill="white"/>
</svg>
