<svg width="164" height="41" viewBox="0 0 164 41" fill="none" xmlns="http://www.w3.org/2000/svg">
<path d="M61.5842 40C54.4054 40 49.5322 35.0741 49.5322 27.8442C49.5322 19.6701 55.6629 15.6357 61.7408 15.6884C65.6185 15.6884 69.4436 17.3645 71.6437 20.7182C71.8003 20.9802 71.8003 21.295 71.5398 21.4516L69.8111 22.971C69.7056 23.0765 69.549 23.1276 69.4436 23.1276C69.2343 23.1276 69.0761 23.0222 68.9722 22.8129C67.5055 20.5073 64.8852 19.0933 61.5842 19.0933C56.3451 19.0933 52.8332 22.6036 52.8332 27.8442C52.8332 33.0849 56.3435 36.6463 61.5842 36.6463C64.8852 36.6463 67.5055 35.2323 68.9722 32.9267C69.0777 32.7174 69.2343 32.6119 69.4436 32.6119C69.549 32.6119 69.7056 32.6647 69.8111 32.7685L71.5398 34.288C71.8019 34.4446 71.8019 34.7593 71.6437 35.0214C69.6002 38.113 66.0371 39.9984 61.5842 39.9984V40Z" fill="#335257"/>
<path d="M78.9806 39.0046C78.9806 39.2666 78.8241 39.4759 78.5093 39.4759H76.151C75.8362 39.4759 75.6269 39.2666 75.6269 39.0046V16.735C75.6269 16.4729 75.8378 16.2636 76.0983 16.2636H78.5093C78.7713 16.2636 78.9806 16.4729 78.9806 16.735V39.0046Z" fill="#335257"/>
<path d="M92.0791 36.6463C93.1272 36.6463 94.0699 35.9129 94.594 35.4943C94.7506 35.3889 94.856 35.3377 94.9615 35.3377C95.118 35.3377 95.2235 35.3905 95.3289 35.547L96.743 37.434C96.9011 37.696 96.9011 38.0108 96.6391 38.1674C95.9585 38.7953 94.2281 39.9489 91.9225 40.0016C87.9409 40.0016 85.8974 37.0154 85.9485 31.4616V19.253H82.0196C81.7048 19.253 81.4955 19.0437 81.4955 18.7817V16.7909C81.4955 16.4761 81.7048 16.2668 82.0196 16.2668H86.0012V8.19812C86.0012 7.88336 86.2105 7.67406 86.4725 7.67406H88.8836C89.1456 7.67406 89.3549 7.88336 89.3549 8.1454V16.2668H95.3289C95.6437 16.2668 95.853 16.4761 95.853 16.7909V18.7817C95.853 19.0437 95.6421 19.253 95.3289 19.253H89.3549V31.1468C89.3549 35.3905 90.3503 36.6479 92.0791 36.6479V36.6463Z" fill="#335257"/>
<path d="M109.947 36.6463C112.88 36.6463 115.291 35.7036 116.811 34.026C116.967 33.8694 117.126 33.8167 117.229 33.8167C117.386 33.8167 117.544 33.8694 117.648 33.9732L119.324 35.5454C119.586 35.7547 119.586 36.0695 119.377 36.2788C117.228 38.6371 113.927 39.9984 109.945 39.9984C102.399 39.9984 97.3181 35.0725 97.3181 27.8426C97.3181 20.6127 102.191 15.7396 109.37 15.7396C116.967 15.7396 121.526 20.6127 121.473 28.8396C121.473 29.1544 121.264 29.3637 120.949 29.3637H100.725C101.405 33.7655 104.915 36.6463 109.947 36.6463ZM118.016 26.3247C117.386 21.9229 114.085 19.0421 109.37 19.0421C104.655 19.0421 101.352 21.9245 100.725 26.3247H118.016Z" fill="#335257"/>
<path d="M133.789 19.0933C131.43 19.0933 129.649 20.8221 128.653 23.1803V39.0046C128.653 39.2666 128.444 39.4759 128.129 39.4759H125.771C125.456 39.4759 125.247 39.2666 125.247 39.0046V16.735C125.247 16.4729 125.456 16.2636 125.771 16.2636H127.343C127.658 16.2636 127.867 16.4729 127.92 16.735L128.288 18.7258C129.754 17.0497 131.851 15.7907 134.418 15.7907C135.938 15.7907 137.457 16.1582 138.191 16.3675C138.453 16.4729 138.609 16.735 138.505 17.0481L137.823 19.5103C137.77 19.7196 137.614 19.8778 137.456 19.8778C137.352 19.8778 137.299 19.825 137.246 19.825C136.564 19.563 135.255 19.0917 133.787 19.0917L133.789 19.0933Z" fill="#335257"/>
<path d="M160.983 16.735C161.035 16.4202 161.297 16.2109 161.559 16.2109H163.235C163.55 16.2109 163.76 16.4202 163.76 16.6822V38.9519C163.76 39.2666 163.55 39.4759 163.235 39.4759H161.507C161.245 39.4759 160.983 39.2666 160.983 39.0046L160.355 35.1268C158.468 38.1658 155.272 40 151.029 40C144.008 40 139.291 35.0741 139.291 27.8442C139.291 20.6143 144.008 15.7412 151.029 15.7412C155.272 15.7412 158.522 17.5227 160.407 20.5616L160.983 16.7366V16.735ZM151.342 36.6463C156.581 36.6463 160.197 33.136 160.355 27.8442C160.249 22.5524 156.635 19.0405 151.342 19.0405C146.048 19.0405 142.591 22.6036 142.591 27.8442C142.591 33.0849 146.101 36.6463 151.342 36.6463Z" fill="#335257"/>
<path d="M23.3401 31.0222H24.8069V1.46841C24.8069 0.91718 24.5017 0.417081 24.0112 0.164634C23.5207 -0.0878126 22.9375 -0.0462708 22.4869 0.27488L9.21749 9.73524C8.83243 10.0101 8.60236 10.4574 8.60236 10.9304V37.6018H0.733373C0.327541 37.6018 0 37.931 0 38.3352C0 38.7394 0.329139 39.0686 0.733373 39.0686H8.60236C9.41083 39.0686 10.0691 38.4103 10.0691 37.6018V10.9288L23.3401 1.46841V31.0222Z" fill="#E8C662"/>
<path d="M40.3228 12.9371L29.4052 5.39405C28.9195 5.05852 28.2836 5.04574 27.7835 5.36369L25.3581 6.90713V8.6455L28.5712 6.60036L39.4903 14.1434V37.6002H24.8085V33.5882H23.3417V37.6002C23.3417 38.4086 24 39.0669 24.8085 39.0669H39.4903C40.2988 39.0669 40.9571 38.4086 40.9571 37.6002V14.145C40.9571 13.6625 40.7206 13.2119 40.3244 12.9387L40.3228 12.9371Z" fill="#E8C662"/>
<path d="M38.9151 33.0385V31.5718H16.9107V14.0204L22.7921 10.2784V8.54004L16.123 12.7837C15.698 13.0537 15.444 13.5171 15.444 14.0204V31.5718C15.444 32.3803 16.1022 33.0385 16.9107 33.0385H38.9151Z" fill="#E8C662"/>
<path d="M46.0747 31.5718H41.4811V33.0385H46.0747C46.4805 33.0385 46.8081 32.7094 46.8081 32.3052C46.8081 31.9009 46.4789 31.5718 46.0747 31.5718Z" fill="#E8C662"/>
<path d="M77.303 13.2534C78.8446 13.2534 80.0943 12.0037 80.0943 10.4622C80.0943 8.92057 78.8446 7.67086 77.303 7.67086C75.7614 7.67086 74.5117 8.92057 74.5117 10.4622C74.5117 12.0037 75.7614 13.2534 77.303 13.2534Z" fill="#E8C662"/>
</svg>