<?xml version="1.0" encoding="UTF-8"?>
<svg width="238px" height="66px" viewBox="0 0 238 66" version="1.1" xmlns="http://www.w3.org/2000/svg" xmlns:xlink="http://www.w3.org/1999/xlink">
    <title>Group 10</title>
    <g id="Newsletter-Assets" stroke="none" stroke-width="1" fill="none" fill-rule="evenodd">
        <g id="Group-10" transform="translate(0.162663, 0.000000)" fill-rule="nonzero">
            <g id="Group-5">
                <path d="M58.5027383,20.1037303 C58.5027383,22.6667558 57.6490807,23.9482684 56.2618871,24.6958174 C51.5667703,27.1520502 46.8716534,29.6082828 42.0698295,32.0645154 C41.7497078,32.1713081 41.4295863,32.3848936 41.1094646,32.3848936 C40.0423927,32.7052718 39.4021495,32.2781009 39.5088567,31.1033809 C39.6155638,30.3558318 39.8289782,29.6082828 40.0423927,28.8607337 C42.7100726,20.9580721 45.3777526,13.0554105 48.1521398,5.25954166 C48.3655542,4.61878533 49.1125046,3.6576508 49.6460406,3.6576508 C50.1795767,3.55085808 50.926527,4.29840715 51.2466487,4.93916349 C53.060671,8.57011611 54.8746935,12.3078615 56.5820086,16.0456068 C57.4356662,17.6474977 58.0759094,19.2493885 58.5027383,20.1037303 Z" id="Path" fill="#173352"></path>
                <path d="M56.1551798,43.5981296 C54.8746935,43.1709588 53.060671,42.7437879 51.3533559,42.2098242 C47.7253111,41.0351043 44.0972662,39.9671771 40.5759286,38.6856644 C39.722271,38.3652862 39.0820278,37.617737 38.3350774,37.0837735 C38.9753206,36.4430171 39.5088567,35.5886754 40.2558071,35.1615044 C48.0454327,31.3169664 55.8350583,27.4724282 63.731391,23.6278902 C64.2649271,23.4143048 65.1185846,23.4143048 65.5454135,23.734683 C65.865535,24.0550612 66.0789495,24.9094029 65.9722422,25.4433666 C65.4387063,27.4724282 64.6917559,29.5014901 64.0515127,31.5305519 C62.9844406,34.4139554 61.9173687,37.4041516 60.8502966,40.2875551 C60.1033463,42.3166169 58.5027383,43.5981296 56.1551798,43.5981296 Z" id="Path" fill="#173C63"></path>
                <path d="M45.9112887,58.4423183 C43.3503158,58.4423183 42.1765367,57.6947692 41.322879,56.1996712 C38.7619063,51.3939985 36.3076406,46.5883259 33.8533751,41.7826533 C33.5332534,41.2486897 33.4265462,40.0739698 33.7466679,39.8603843 C34.1734966,39.4332134 35.2405687,39.4332134 35.7741047,39.6467989 C41.9631222,41.6758607 48.1521398,43.8117151 54.4478647,45.8407769 C56.5820086,46.5883259 58.6094455,47.2290823 60.6368823,48.083424 C61.2771255,48.4038022 62.3441974,49.0445585 62.3441974,49.4717294 C62.2374903,50.1124859 61.597247,50.9668276 60.9570038,51.2872058 C57.328959,53.1026821 53.5942071,54.9181583 49.8594551,56.626842 C48.3655542,57.3743911 46.7649462,58.0151474 45.9112887,58.4423183 Z" id="Path" fill="#26619F"></path>
                <path d="M20.514975,7.07501798 C22.2222902,7.07501798 23.3960694,7.92935977 24.1430198,9.31766518 C26.7039927,14.1233378 29.2649654,19.0358031 31.7192311,23.9482684 C31.9326454,24.482232 32.0393526,25.4433666 31.8259382,25.656952 C31.5058167,25.9773301 30.5454518,26.1909156 30.0119158,25.9773301 C25.5302134,24.5890247 21.0485111,23.0939266 16.5668086,21.5988284 C12.511935,20.3173157 8.56376863,18.9290103 4.61560223,17.4339122 C3.97535903,17.2203267 3.22840862,16.5795705 3.12170143,15.938814 C3.01499422,15.5116432 3.76194463,14.6573014 4.29548062,14.3369232 C9.09730462,11.9874833 13.8991286,9.63804336 18.8076599,7.39539616 C19.2344886,7.1818107 19.8747318,7.1818107 20.514975,7.07501798 Z" id="Path" fill="#5EA1E9"></path>
                <path d="M7.06986783,45.0932278 C7.17657502,43.3845441 8.03023262,42.1030315 9.41742623,41.3554825 C14.112543,38.8992497 18.8076599,36.4430171 23.6094838,34.0935772 C24.249727,33.773199 25.1033846,33.8799918 25.8503351,33.773199 C25.8503351,34.6275408 26.1704566,35.4818826 25.9570423,36.2294316 C24.5698487,40.6079333 23.0759479,44.986435 21.5820471,49.3649367 C20.1948535,53.3162676 18.9143671,57.1608056 17.4204663,61.0053437 C17.2070518,61.5393073 16.5668086,62.3936491 16.0332727,62.3936491 C15.4997366,62.3936491 14.7527863,61.7528928 14.4326646,61.2189291 C13.1521782,58.8694892 12.0851062,56.4132565 10.911327,54.0638166 C9.84425503,51.8211695 8.67047582,49.5785222 7.71011103,47.2290823 C7.49669663,46.5883259 7.28328223,45.8407769 7.06986783,45.0932278 Z" id="Path" fill="#368AE3"></path>
                <path d="M42.2832439,64.4227109 C42.2832439,65.5974308 41.6430007,66.2381872 40.4692214,65.917809 C38.7619063,65.4906381 37.054591,64.8498818 35.3472758,64.3159181 C32.2527671,63.2479909 29.1582582,62.0732709 25.9570423,61.0053437 C22.3289975,59.723831 21.4753398,57.9083546 22.649119,54.2774021 C24.1430198,49.7921077 25.4235062,45.2000205 27.0241142,40.7147261 C27.3442359,39.8603843 28.0911863,39.1128352 28.518015,38.3652862 C29.1582582,39.0060425 30.1186231,39.6467989 30.5454518,40.3943479 C34.3869111,48.083424 38.1216631,55.7725002 41.9631222,63.4615764 C42.1765367,63.8887472 42.2832439,64.2091254 42.2832439,64.4227109 Z" id="Path" fill="#26619F"></path>
                <path d="M9.95096223,22.0259993 C11.1247414,22.3463776 12.8320566,22.8803411 14.6460791,23.5210975 C18.2741239,24.6958174 21.9021686,25.7637446 25.4235062,26.9384647 C26.2771638,27.2588428 26.917407,27.8995992 27.6643574,28.4335629 C27.0241142,29.0743191 26.4905782,30.0354537 25.6369206,30.4626245 C18.7009526,33.9867845 11.7649846,37.297359 4.82901663,40.7147261 C3.97535903,41.141897 3.12170143,41.5690679 2.16133662,41.889446 C1.62780063,42.1030315 0.880850223,42.2098242 0.560728622,41.889446 C0.133899822,41.5690679 -0.0795145779,40.7147261 0.0271926222,40.1807625 C0.454021422,38.4720789 0.987557423,36.7633953 1.62780063,35.0547117 C2.80157982,31.7441372 3.97535903,28.4335629 5.14913822,25.2297811 C5.89608863,23.2007193 7.38998942,22.0259993 9.95096223,22.0259993 Z" id="Path" fill="#368AE3"></path>
                <path d="M43.5637303,10.172007 C43.2436086,11.2399342 42.7100726,12.9486178 42.1765367,14.6573014 C41.0027574,18.2882541 39.8289782,21.9192066 38.6551991,25.5501593 C38.3350774,26.2977083 37.6948342,26.9384647 37.1612983,27.6860137 C36.5210551,27.0452575 35.5606902,26.6180865 35.2405687,25.8705374 C32.0393526,19.5697667 28.9448439,13.1622033 25.8503351,6.86143252 C25.1033846,5.3663344 24.3564342,3.87123625 23.7161911,2.37613811 C23.5027766,1.84217449 23.3960694,0.987832699 23.7161911,0.667454526 C24.1430198,0.133490905 24.9966774,-0.0800945432 25.6369206,0.0266981811 C27.1308214,0.347076353 28.6247222,0.987832699 30.1186231,1.52179632 C33.6399607,2.69651629 37.054591,3.97802897 40.5759286,5.25954166 C42.6033654,6.00709073 43.6704375,7.39539616 43.5637303,10.172007 Z" id="Path" fill="#5EA1E9"></path>
            </g>
            <path d="M237.290985,53.2104984 C236.888777,53.5218856 236.434671,53.7165026 235.954615,53.865709 C235.351303,54.0538388 234.735016,54.170609 234.105754,54.2225068 C233.418107,54.2808919 232.736948,54.2873792 232.055788,54.2160196 C231.497886,54.1576345 230.959446,54.0343771 230.440467,53.8267856 C229.434946,53.4310644 228.688914,52.7369304 228.208859,51.7703326 C228.143987,51.640588 228.092089,51.4978688 228.027216,51.3616369 C227.99478,51.2967646 227.955857,51.2383795 227.903959,51.1605327 C227.800163,51.2318923 227.709342,51.2902774 227.625008,51.3616369 C226.723282,52.1401049 225.717761,52.7628793 224.647368,53.2753708 C223.771591,53.6905537 222.856891,53.9565303 221.896781,54.1057366 C220.683668,54.2938664 219.464068,54.3133281 218.244469,54.1900707 C217.245435,54.0862749 216.278837,53.8462473 215.364137,53.4245771 C213.372556,52.5098772 212.101059,50.9853774 211.523695,48.8770266 C211.251231,47.8844799 211.179871,46.8789587 211.264206,45.8539759 C211.322591,45.1663291 211.439361,44.4981441 211.659927,43.8429336 C212.133495,42.4481784 212.98981,41.3388615 214.163999,40.463085 C214.974903,39.8662595 215.863654,39.4251277 216.817277,39.0942788 C217.72549,38.7764044 218.659651,38.5623257 219.613275,38.4196065 C221.488085,38.1406555 223.369383,38.0628087 225.257168,38.1795789 C225.886429,38.2185023 226.515691,38.2185023 227.138465,38.3028363 C227.190363,38.3093236 227.248748,38.3093236 227.300646,38.2963491 C227.333082,38.2898619 227.359031,38.2574257 227.372006,38.2249895 C227.38498,38.1925534 227.391467,38.15363 227.391467,38.1147066 C227.391467,37.180545 227.26821,36.2723323 226.956823,35.3900686 C226.814104,34.9878601 226.619487,34.6116006 226.379459,34.2548027 C226.022661,33.7423113 225.562068,33.3530773 224.997678,33.0871008 C224.52411,32.8600476 224.024593,32.7238157 223.512102,32.6654306 C222.921764,32.594071 222.331426,32.5810966 221.741087,32.6135327 C219.872764,32.6978668 218.082288,33.1260242 216.324247,33.7228496 C215.818243,33.8980049 215.318726,34.0861347 214.812722,34.2677772 C214.760824,34.2872389 214.695952,34.2418283 214.689465,34.1899304 C214.682977,34.151007 214.67649,34.1185708 214.67649,34.0796474 C214.67649,34.0082879 214.67649,33.9304411 214.67649,33.8590815 C214.67649,32.6589434 214.67649,31.452318 214.67649,30.2521798 C214.67649,30.1613585 214.682977,30.06405 214.67649,29.9732288 C214.670003,29.8240224 214.754337,29.7332011 214.884082,29.6813033 C214.987877,29.6358926 215.085186,29.590482 215.188982,29.5515586 C216.213965,29.1104267 217.277871,28.8055268 218.361239,28.5590119 C219.211066,28.3708821 220.067381,28.2346502 220.93667,28.1503162 C221.728113,28.0724694 222.526043,28.0724694 223.323972,28.0854439 C224.044055,28.0984183 224.764138,28.1373417 225.484221,28.2346502 C226.437844,28.3643949 227.378493,28.5460374 228.286706,28.8898608 C229.305201,29.2790948 230.213414,29.8240224 230.97242,30.6089776 C231.452476,31.1020074 231.84171,31.6599094 232.159584,32.2761966 C232.607203,33.1389986 232.886154,34.0536985 233.061309,35.0073218 C233.242952,36.012843 233.307824,37.0248514 233.307824,38.043347 C233.301337,41.1896551 233.307824,44.3359633 233.307824,47.4822714 C233.307824,47.8001459 233.320799,48.1115331 233.379184,48.4229203 C233.508928,49.0781308 233.898162,49.5127755 234.488501,49.778752 C234.644194,49.8501116 234.799888,49.889035 234.975043,49.889035 C235.753511,49.9020094 236.525492,49.8565988 237.284498,49.6619818 C237.290985,50.8426583 237.290985,52.0233347 237.290985,53.2104984 Z M227.417416,47.0670885 C227.417416,46.8724715 227.417416,46.6843417 227.417416,46.5026992 C227.417416,45.3933823 227.417416,44.2840654 227.417416,43.1747485 C227.417416,42.2795103 227.417416,42.2730231 227.346057,42.2535614 C227.060619,42.1757146 226.762206,42.1886891 226.47028,42.1562529 C226.288638,42.1367912 226.100508,42.1367912 225.918866,42.130304 C225.25068,42.1238167 224.588983,42.1108423 223.920798,42.104355 C223.233151,42.0978678 222.551991,42.1367912 221.870832,42.2340997 C221.079389,42.3443827 220.313896,42.5454869 219.580839,42.8763358 C219.211066,43.0450039 218.860756,43.2525953 218.549369,43.5185719 C218.114724,43.881857 217.770901,44.3100144 217.563309,44.8354802 C217.206511,45.7436929 217.161101,46.6778545 217.440052,47.6120161 C217.712515,48.526716 218.276905,49.2078755 219.165656,49.5971095 C219.541915,49.7592903 219.937636,49.8565988 220.346332,49.8825477 C221.072902,49.9279584 221.786498,49.8760605 222.493606,49.7138797 C223.979183,49.3765436 225.315553,48.7343075 226.535153,47.832582 C226.833565,47.6055289 227.125491,47.3719885 227.417416,47.0670885 Z" id="Shape" fill="#122E4B"></path>
            <path d="M170.446534,34.0018006 C170.446534,40.3463148 170.446534,46.6973162 170.446534,53.0418304 C170.446534,53.8073239 170.537355,53.7294771 169.778349,53.7294771 C168.299259,53.7294771 166.82017,53.7294771 165.334594,53.7294771 C165.224311,53.7294771 165.114028,53.7294771 165.003745,53.7294771 C164.861026,53.7229899 164.796153,53.6646048 164.783179,53.5348601 C164.744256,53.0742665 164.705332,52.613673 164.666409,52.1530794 C164.653434,52.003873 164.633973,51.8611539 164.620998,51.7119475 C164.614511,51.6730241 164.517202,51.6341007 164.484766,51.6535624 C164.439356,51.6795114 164.387458,51.7054603 164.342047,51.7378965 C163.018652,52.6850325 161.54605,53.3207814 159.989114,53.7619133 C159.327416,53.950043 158.659231,54.0927622 157.978071,54.170609 C157.27745,54.2484558 156.576829,54.3133281 155.876208,54.2614302 C155.344255,54.2225068 154.805814,54.1965579 154.273861,54.1122239 C151.082142,53.5737835 148.597532,51.9779241 146.910851,49.2013883 C146.158332,47.9558395 145.665302,46.6064949 145.360402,45.1857908 C145.042528,43.7131889 144.971168,42.2211252 145.003605,40.7160871 C145.036041,39.1721256 145.289043,37.6606002 145.795047,36.2009727 C146.294564,34.7543197 147.021134,33.4309241 148.013681,32.2632221 C149.097049,30.9917244 150.413957,30.0251266 151.93197,29.3309927 C153.184006,28.7536289 154.500914,28.4033183 155.863233,28.2216758 C157.004986,28.0724694 158.153227,28.0659822 159.29498,28.1373417 C160.313475,28.2022141 161.306022,28.4162928 162.279107,28.72768 C162.947292,28.9417587 163.602503,29.1947608 164.231764,29.506148 C164.296636,29.5385841 164.367996,29.5580458 164.439356,29.5645331 C164.465305,29.5710203 164.504228,29.5385841 164.517202,29.5126352 C164.536664,29.480199 164.536664,29.4412756 164.536664,29.4023522 C164.536664,29.2142225 164.536664,29.0325799 164.536664,28.8444502 C164.536664,24.1995911 164.536664,19.5547321 164.536664,14.9098731 C164.536664,14.1314051 164.439356,14.2287136 165.204849,14.2287136 C166.761785,14.2222263 168.312234,14.2287136 169.86917,14.2287136 C169.998915,14.2287136 170.128659,14.2287136 170.258404,14.2352008 C170.3622,14.241688 170.420585,14.3000731 170.427072,14.4103561 C170.433559,14.5984859 170.433559,14.7801284 170.433559,14.9682582 C170.446534,21.3062851 170.446534,27.6572865 170.446534,34.0018006 Z M164.556126,40.5020084 C164.556126,38.6142235 164.556126,36.7329259 164.556126,34.845141 C164.556126,34.6764729 164.556126,34.5142921 164.549639,34.345624 C164.549639,34.2677772 164.517202,34.1964176 164.45233,34.1574942 C164.225277,34.0018006 163.998224,33.8331326 163.758196,33.7033879 C162.525622,33.0287157 161.208713,32.62002 159.813958,32.4773008 C158.555435,32.3410689 157.303399,32.4643264 156.083799,32.8276114 C154.474965,33.3076667 153.222929,34.26129 152.334178,35.6884813 C151.802225,36.5447961 151.43894,37.4659832 151.224861,38.4520427 C151.082142,39.1202277 151.010783,39.8013872 150.971859,40.4825467 C150.9005,41.5399657 150.952398,42.5908975 151.108091,43.6353421 C151.25081,44.6149143 151.55571,45.5425887 152.009817,46.4183652 C152.392563,47.1449353 152.89208,47.7806842 153.527829,48.3061501 C154.546325,49.1494904 155.739976,49.5516989 157.04391,49.6490074 C157.919686,49.7138797 158.776001,49.6165712 159.625828,49.389518 C161.390356,48.9289245 162.953779,48.0726097 164.361509,46.9308566 C164.374483,46.9178821 164.387458,46.9049077 164.406919,46.8984204 C164.497741,46.8270609 164.549639,46.7362396 164.549639,46.6129822 C164.543151,46.4637758 164.549639,46.3145694 164.549639,46.1718503 C164.556126,44.2775782 164.556126,42.3897933 164.556126,40.5020084 Z" id="Shape" fill="#122E4B"></path>
            <path d="M106.177513,46.7816502 C106.177513,46.5481098 106.177513,46.3470056 106.177513,46.1394141 C106.177513,40.5539063 106.177513,34.9619112 106.177513,29.3764033 C106.177513,29.1882735 106.184001,29.006631 106.184001,28.8185012 C106.184001,28.7471417 106.248873,28.6692949 106.320233,28.6692949 C106.411054,28.6628076 106.501875,28.6563204 106.599184,28.6563204 C108.298839,28.6563204 110.004981,28.6563204 111.704636,28.6563204 C111.814919,28.6563204 111.925202,28.6692949 112.035485,28.6822693 C112.054947,28.7471417 112.080896,28.7990395 112.087383,28.8509374 C112.09387,29.0196055 112.09387,29.1817863 112.09387,29.3504544 C112.09387,37.2519045 112.09387,45.1533547 112.09387,53.0548048 C112.09387,53.2040112 112.09387,53.3532176 112.087383,53.4959367 C112.080896,53.6646048 112.022511,53.7229899 111.847355,53.7294771 C111.78897,53.7294771 111.737072,53.7294771 111.678687,53.7294771 C110.050392,53.7294771 108.422096,53.7294771 106.793801,53.7294771 C106.683518,53.7294771 106.573235,53.7165026 106.462952,53.7035282 C106.437003,53.6970409 106.398079,53.6646048 106.391592,53.6321686 C106.37213,53.5802707 106.359156,53.5283729 106.359156,53.4699878 C106.32672,53.0288559 106.294284,52.587724 106.25536,52.1401049 C106.242386,51.9584624 106.229411,51.7703326 106.20995,51.5886901 C106.196975,51.5043561 106.222924,51.3940731 106.112641,51.3616369 C106.028307,51.335688 105.982896,51.420022 105.924511,51.4589454 C105.677996,51.6535624 105.431482,51.8546667 105.184967,52.0427964 C103.660467,53.1910367 101.947837,53.8851707 100.06654,54.170609 C99.7227163,54.2225068 99.3659184,54.2484558 99.0156078,54.254943 C97.6208527,54.3003536 96.2455592,54.1835834 94.9027019,53.7748877 C94.8313424,53.755426 94.7599828,53.7359643 94.6886232,53.7100154 C92.6775809,53.0418304 91.2568768,51.724922 90.3940748,49.7982137 C90.0048408,48.9289245 89.7648132,48.0207118 89.622094,47.0865502 C89.4793749,46.1718503 89.427477,45.2506632 89.427477,44.3229888 C89.427477,39.3667426 89.427477,34.4040091 89.427477,29.4477629 C89.427477,29.2985565 89.427477,29.1493501 89.427477,29.006631 C89.4209898,28.6822693 89.4793749,28.6563204 89.7777876,28.6563204 C91.5163661,28.6563204 93.2549447,28.6563204 94.9935232,28.6563204 C95.0648828,28.6563204 95.1427296,28.6692949 95.2140891,28.6757821 C95.2789615,28.6822693 95.3049104,28.7341672 95.3243721,28.7860651 C95.3438338,28.8379629 95.3373466,28.896348 95.3373466,28.9482459 C95.3373466,29.116914 95.3373466,29.2790948 95.3373466,29.4477629 C95.3373466,34.2223666 95.3373466,38.9969703 95.3373466,43.771574 C95.3373466,44.2127059 95.350321,44.6603249 95.37627,45.1014568 C95.4087061,45.6982823 95.5254763,46.275646 95.7136061,46.8400353 C95.8368635,47.2098076 95.9990444,47.5666055 96.2001486,47.8974544 C96.7450762,48.7797181 97.5300314,49.3181585 98.5420398,49.5322372 C99.2167121,49.6749563 99.8978716,49.6814435 100.585518,49.5906223 C101.662399,49.4543904 102.66792,49.110567 103.628031,48.6045628 C104.432448,48.1764054 105.178479,47.663914 105.866126,47.0735757 C105.963435,46.9892417 106.054256,46.8984204 106.177513,46.7816502 Z" id="Path" fill="#122E4B"></path>
            <path d="M124.257433,35.6106345 C124.257433,35.818226 124.250945,36.0387919 124.250945,36.2658451 C124.250945,41.8513529 124.250945,47.443348 124.250945,53.0288559 C124.250945,53.2104984 124.244458,53.3986282 124.237971,53.5802707 C124.237971,53.6516303 124.166611,53.7165026 124.088765,53.7165026 C123.997943,53.7229899 123.907122,53.7294771 123.809813,53.7294771 C122.142595,53.7294771 120.481863,53.7294771 118.814644,53.7294771 C118.723823,53.7294771 118.633001,53.7229899 118.535693,53.7229899 C118.444872,53.7165026 118.373512,53.6386558 118.367025,53.5413473 C118.360538,53.392141 118.360538,53.2429346 118.360538,53.1002155 C118.360538,45.1663291 118.360538,37.2259556 118.360538,29.2920693 C118.360538,28.5979353 118.289178,28.6692949 118.983312,28.6692949 C120.501325,28.6692949 122.019337,28.6692949 123.53735,28.6692949 C123.667094,28.6692949 123.796839,28.6692949 123.926584,28.6822693 C123.978482,28.6887566 124.036867,28.7211927 124.043354,28.7795778 C124.069303,28.9417587 124.095252,29.1039395 124.108226,29.2726076 C124.153637,29.8240224 124.19256,30.3819245 124.231484,30.9333393 C124.231484,30.9657755 124.257433,30.9982116 124.270407,31.0306478 C124.283382,31.063084 124.361228,31.0436223 124.419613,30.9917244 C124.477999,30.9463138 124.529896,30.8944159 124.588281,30.842518 C125.165645,30.3430011 125.775445,29.9018692 126.437143,29.5256097 C127.728102,28.7990395 129.103396,28.338446 130.569511,28.1632907 C131.082002,28.0984183 131.600981,28.1049056 132.119959,28.1049056 C132.976274,28.0984183 133.819614,28.1827524 134.656468,28.3579077 C135.383038,28.5136013 136.083659,28.7406544 136.751844,29.0715033 C137.893597,29.6358926 138.788835,30.4597713 139.476482,31.536652 C139.969512,32.3086328 140.313335,33.1454859 140.546875,34.0212623 C140.735005,34.7153963 140.851775,35.428992 140.923135,36.1490749 C140.994494,36.8496961 141.007469,37.5503173 141.007469,38.2574257 C141.007469,43.1812358 141.007469,48.0985586 141.007469,53.0223687 C141.007469,53.1910367 141.007469,53.3532176 141.007469,53.5218856 C141.000982,53.6905537 140.942597,53.7489388 140.767441,53.755426 C140.67662,53.755426 140.579312,53.755426 140.48849,53.755426 C138.860195,53.755426 137.231899,53.755426 135.603604,53.755426 C135.493321,53.755426 135.383038,53.7489388 135.272755,53.7489388 C135.201395,53.7489388 135.123548,53.6840665 135.123548,53.6127069 C135.117061,53.5024239 135.110574,53.392141 135.110574,53.281858 C135.110574,52.5228517 135.110574,51.7638454 135.110574,51.0048391 C135.110574,46.7686758 135.110574,42.5325124 135.110574,38.2963491 C135.110574,37.5892407 135.052189,36.8951067 134.90947,36.2009727 C134.799187,35.6755068 134.624031,35.1695026 134.364542,34.6959346 C133.748255,33.567156 132.788144,32.9573561 131.529621,32.8016625 C130.232174,32.6459689 128.986626,32.8535604 127.78,33.3401029 C126.534451,33.846107 125.418647,34.5661899 124.419613,35.4614281 C124.367716,35.4873771 124.322305,35.5457622 124.257433,35.6106345 Z" id="Path" fill="#122E4B"></path>
            <path d="M87.0207135,14.2741242 C87.0207135,14.4103561 87.0207135,14.5401008 87.0207135,14.6698454 C87.0207135,15.9672921 87.0207135,17.2582515 87.0207135,18.5556982 C87.0207135,18.6659811 87.007739,18.7762641 87.0012518,18.8865471 C87.0012518,18.9254705 86.9169177,18.9903428 86.8844816,18.9838556 C86.6314795,18.9384449 86.3784774,18.8800598 86.118988,18.8411364 C85.4637775,18.7373407 84.8020797,18.6594939 84.1338947,18.6530067 C83.0116033,18.6465194 82.2461098,19.2109087 81.75308,20.1775065 C81.558463,20.5602533 81.4546673,20.9754362 81.3962822,21.3971064 C81.3314099,21.8706744 81.2924865,22.3507297 81.2924865,22.8372721 C81.2989737,24.5953124 81.2924865,26.3533526 81.2989737,28.1113928 C81.2989737,28.2605992 81.3119482,28.4033183 81.3249226,28.5525247 C81.3249226,28.5784736 81.3703333,28.617397 81.4027694,28.6238842 C81.4546673,28.6433459 81.5130524,28.6498332 81.5649503,28.6498332 C81.863363,28.6498332 82.1552885,28.6498332 82.4537012,28.6498332 C83.8225075,28.6498332 85.1913137,28.6498332 86.5601199,28.6498332 C86.6704029,28.6498332 86.7806858,28.6628076 86.8909688,28.6692949 C86.9558411,28.6757821 86.9882773,28.72768 87.0012518,28.7795778 C87.0207135,28.8314757 87.0142262,28.8898608 87.0142262,28.9417587 C87.0142262,30.0705373 87.0142262,31.1993159 87.0142262,32.3280945 C87.0142262,32.3864796 87.007739,32.4383774 87.0012518,32.4967625 C86.9947645,32.5681221 86.9298922,32.6459689 86.8650199,32.6459689 C86.6963518,32.6524561 86.534171,32.6589434 86.3655029,32.6589434 C84.866952,32.6589434 83.3684011,32.6589434 81.8698502,32.6589434 C81.7206439,32.6589434 81.5779247,32.6654306 81.4287184,32.6719178 C81.363846,32.6719178 81.3314099,32.7238157 81.3119482,32.7757136 C81.2924865,32.8276114 81.2989737,32.8859965 81.2924865,32.9378944 C81.2924865,33.1065625 81.2924865,33.2687433 81.2924865,33.4374113 C81.2924865,39.9700553 81.2924865,46.496212 81.2924865,53.0288559 C81.2924865,53.2104984 81.2859992,53.3986282 81.279512,53.5802707 C81.279512,53.6451431 81.2016652,53.7100154 81.1303056,53.7165026 C81.0200227,53.7229899 80.9097397,53.7229899 80.7994567,53.7229899 C79.1711612,53.7229899 77.5428656,53.7229899 75.9145701,53.7229899 C75.7848254,53.7229899 75.6550807,53.7100154 75.5318233,53.6970409 C75.5058744,53.6905537 75.4734382,53.6516303 75.4539765,53.6256814 C75.4345148,53.5932452 75.4280276,53.5543218 75.4280276,53.5153984 C75.4215403,53.3272686 75.4215403,53.1456261 75.4215403,52.9574963 C75.4215403,46.4248524 75.4215403,39.8986957 75.4215403,33.3660518 C75.4215403,33.1649476 75.4150531,32.9573561 75.4020786,32.7562519 C75.4020786,32.7303029 75.3631552,32.6848923 75.3307191,32.6784051 C75.2398978,32.6589434 75.1490765,32.6524561 75.0582553,32.6524561 C74.0981448,32.6524561 73.131547,32.6524561 72.1714365,32.6524561 C71.7627408,32.6524561 71.3605323,32.6524561 70.9518366,32.6459689 C70.8869643,32.6459689 70.8091175,32.5746093 70.8026302,32.509737 C70.796143,32.4578391 70.7896558,32.399454 70.7896558,32.3410689 C70.7896558,31.1928286 70.7896558,30.0445883 70.7896558,28.9028353 C70.7896558,28.8509374 70.8026302,28.7925523 70.8220919,28.7406544 C70.8350664,28.7147055 70.8675026,28.6757821 70.8934515,28.6692949 C71.0231962,28.6563204 71.1529408,28.6433459 71.2761983,28.6433459 C72.4244386,28.6433459 73.5726789,28.6433459 74.7144319,28.6433459 C74.8831,28.6433459 75.0452808,28.6433459 75.2139489,28.6368587 C75.3436935,28.6368587 75.4085659,28.5654991 75.4085659,28.42278 C75.4150531,28.2541119 75.4150531,28.0919311 75.4150531,27.9232631 C75.4150531,26.2755058 75.4085659,24.6277485 75.4150531,22.9864785 C75.4215403,21.8382382 75.5383105,20.6964852 75.830236,19.580681 C75.9924169,18.9514194 76.2129828,18.3416195 76.5113955,17.7707429 C77.5298912,15.824573 79.1127761,14.5855114 81.2211269,14.0081476 C82.1877247,13.7421711 83.1867586,13.6383753 84.1857925,13.683786 C85.0550818,13.7227094 85.9113966,13.878403 86.7482497,14.1249178 C86.8585326,14.1638412 86.9298922,14.2287136 87.0207135,14.2741242 Z" id="Path" fill="#122E4B"></path>
            <path d="M209.065033,51.6535624 C208.948263,51.809256 208.79257,51.8871028 208.656338,51.9714369 C207.57297,52.6590836 206.405268,53.171575 205.179181,53.5413473 C204.257994,53.8202984 203.317345,53.9954537 202.357234,54.1187111 C201.54633,54.2225068 200.735426,54.2614302 199.918034,54.2679175 C198.393535,54.2873792 196.894984,54.1122239 195.428869,53.6646048 C192.204714,52.6785453 189.875797,50.6545285 188.442119,47.6055289 C187.949089,46.5610843 187.624727,45.4712291 187.417136,44.3359633 C187.177108,43.0190549 187.151159,41.6891721 187.209544,40.352802 C187.254955,39.2564596 187.417136,38.1795789 187.73501,37.1286471 C188.915687,33.2492816 191.374348,30.5505925 195.16938,29.0779906 C196.311133,28.6368587 197.498296,28.3579077 198.711409,28.2022141 C199.892086,28.0465205 201.072762,28.0270588 202.253438,28.1243673 C203.920657,28.2605992 205.548953,28.5719864 207.105889,29.2077352 C207.722176,29.4607373 208.319002,29.7526628 208.889878,30.0964862 C209.013136,30.1678458 209.078008,30.2651543 209.071521,30.4078734 C209.065033,30.7062861 209.071521,30.9982116 209.071521,31.2966244 C209.071521,32.4448647 209.071521,33.5931049 209.071521,34.7413452 C209.071521,34.8710899 209.065033,35.0008346 209.058546,35.1305792 C209.058546,35.1759899 208.974212,35.208426 208.928802,35.1824771 C208.876904,35.1565282 208.831493,35.1370665 208.779595,35.1046303 C208.617414,35.013809 208.461721,34.9165005 208.29954,34.8256793 C207.138325,34.1639815 205.918725,33.6320283 204.627766,33.2817178 C203.875247,33.0741263 203.11624,32.9378944 202.34426,32.8535604 C201.792845,32.7951753 201.234943,32.7692263 200.683528,32.7757136 C199.729905,32.788688 198.80223,32.9443816 197.906992,33.2492816 C196.408441,33.7552858 195.260201,34.7024218 194.449297,36.0517664 C193.858959,37.0313386 193.489186,38.0887576 193.307544,39.211049 C193.216722,39.7819255 193.171312,40.352802 193.145363,40.9236786 C193.093465,42.1497657 193.190774,43.3628783 193.534597,44.550042 C193.742188,45.2636376 194.047088,45.9383099 194.436322,46.5675715 C195.312099,47.9623267 196.55116,48.8705394 198.140533,49.2986968 C198.711409,49.4543904 199.29526,49.5452116 199.892086,49.5646733 C201.176558,49.5971095 202.441568,49.499801 203.693604,49.2078755 C204.322866,49.0586691 204.939153,48.8510777 205.535979,48.61105 C206.58691,48.1893799 207.605406,47.7093246 208.591465,47.1579098 C208.701748,47.0930374 208.818519,47.0411396 208.935289,46.9892417 C208.974212,46.96978 209.058546,47.0216779 209.058546,47.0606013 C209.065033,47.1319608 209.071521,47.2098076 209.071521,47.2811672 C209.071521,48.6499734 209.071521,50.0187796 209.071521,51.3875859 C209.071521,51.4913816 209.065033,51.5822029 209.065033,51.6535624 Z" id="Path" fill="#122E4B"></path>
            <path d="M176.752124,41.2220913 C176.752124,37.264879 176.752124,33.3011795 176.752124,29.3439671 C176.752124,28.5654991 176.648329,28.6628076 177.420309,28.6628076 C178.99022,28.6563204 180.566618,28.6628076 182.136528,28.6628076 C182.266273,28.6628076 182.396017,28.6757821 182.519275,28.6952438 C182.545224,28.701731 182.57766,28.7406544 182.590634,28.7666034 C182.610096,28.7990395 182.610096,28.8379629 182.616583,28.8703991 C182.623071,29.0390672 182.623071,29.201248 182.623071,29.3699161 C182.623071,37.2519045 182.623071,45.133893 182.623071,53.0158814 C182.623071,53.197524 182.616583,53.3856537 182.610096,53.5672963 C182.610096,53.6321686 182.532249,53.7100154 182.473864,53.7165026 C182.402505,53.7229899 182.324658,53.7294771 182.253298,53.7294771 C180.534181,53.7294771 178.815065,53.7294771 177.089461,53.7294771 C177.018101,53.7294771 176.940254,53.7294771 176.868895,53.7100154 C176.823484,53.6970409 176.771586,53.6386558 176.771586,53.5932452 C176.752124,53.4310644 176.752124,53.2623963 176.752124,53.0937282 C176.752124,51.5951773 176.752124,50.0966264 176.752124,48.5980756 C176.752124,46.1394141 176.752124,43.6807527 176.752124,41.2220913 Z" id="Path" fill="#122E4B"></path>
            <path d="M179.664892,24.6666719 C178.815065,24.6536975 178.017135,24.4525932 177.310026,23.9660507 C176.842946,23.6416891 176.486148,23.2265061 176.298018,22.6815785 C176.038529,21.942034 176.032041,21.1960021 176.272069,20.4499703 C176.421275,19.9828895 176.706714,19.6001427 177.089461,19.2822683 C177.569516,18.8800598 178.120931,18.6205705 178.724243,18.5038003 C179.612994,18.328645 180.488771,18.3675684 181.345086,18.6854428 C182.026245,18.9384449 182.564685,19.3601151 182.979868,19.9634278 C183.583181,20.8392043 183.557232,22.0717786 183.1161,22.8697083 C182.733353,23.5638423 182.175451,24.0503848 181.448881,24.3487975 C180.878005,24.5758507 180.281179,24.6861336 179.664892,24.6666719 Z" id="Path" fill="#122E4B"></path>
        </g>
    </g>
</svg>