<?xml version="1.0" encoding="UTF-8" standalone="no"?>
<svg
   width="546.17102"
   height="113.183"
   viewBox="0 0 546.17102 113.183"
   fill="none"
   version="1.1"
   id="svg317"
   sodipodi:docname="gratified.svg"
   inkscape:version="1.2.2 (b0a8486541, 2022-12-01)"
   xmlns:inkscape="http://www.inkscape.org/namespaces/inkscape"
   xmlns:sodipodi="http://sodipodi.sourceforge.net/DTD/sodipodi-0.dtd"
   xmlns="http://www.w3.org/2000/svg"
   xmlns:svg="http://www.w3.org/2000/svg">
  <sodipodi:namedview
     id="namedview319"
     pagecolor="#ffffff"
     bordercolor="#000000"
     borderopacity="0.25"
     inkscape:showpageshadow="2"
     inkscape:pageopacity="0.0"
     inkscape:pagecheckerboard="0"
     inkscape:deskcolor="#d1d1d1"
     showgrid="false"
     inkscape:zoom="4.368231"
     inkscape:cx="240.48636"
     inkscape:cy="56.544628"
     inkscape:window-width="2560"
     inkscape:window-height="1369"
     inkscape:window-x="2552"
     inkscape:window-y="533"
     inkscape:window-maximized="1"
     inkscape:current-layer="svg317" />
  <g
     clip-path="url(#clip0_164_120)"
     id="g301"
     transform="translate(0,-39)"
     style="fill:#4e58db;fill-opacity:1">
    <path
       d="m 204.571,75.0107 v -1.1224 h -10.282 v 4.9429 c -1.989,-1.1979 -3.818,-2.5319 -5.838,-3.4729 -5.775,-2.6906 -11.877,-2.8569 -18.05,-1.6816 -9.503,1.8101 -17.793,9.5608 -18.03,20.4366 -0.163,7.3347 2.502,13.3697 8.468,17.9497 4.678,3.594 10.15,4.89 15.988,4.913 6.433,0.026 12.302,-1.557 17.096,-5.986 0.074,-0.068 0.195,-0.083 0.319,-0.136 0.417,6.107 -1.946,10.249 -7.573,12.577 -6.305,2.603 -12.703,2.429 -18.941,-0.322 -2.67,-1.175 -4.845,-3.015 -6.274,-5.57 -0.225,-0.404 -0.432,-0.82 -0.669,-1.27 -2.759,1.727 -5.445,3.409 -8.216,5.147 0.502,0.813 0.927,1.584 1.429,2.305 2.362,3.364 5.693,5.533 9.503,7.056 5.604,2.245 11.481,2.706 17.459,2.324 5.3,-0.336 10.251,-1.772 14.617,-4.792 5.923,-4.089 9.017,-9.614 9.002,-16.729 -0.024,-12.1913 -0.008,-24.3784 -0.008,-36.5693 z m -11.014,25.6933 c -2.148,4.183 -5.942,6.439 -10.558,7.418 -1.506,0.321 -3.074,0.385 -4.616,0.563 -4.646,-0.11 -8.853,-1.266 -12.243,-4.501 -5.88,-5.6077 -5.137,-15.0703 1.51,-19.8166 3.098,-2.2107 6.62,-3.0837 10.391,-3.129 3.927,-0.0491 7.628,0.7369 10.959,2.9136 6.488,4.24 7.153,11.4918 4.557,16.552 z"
       fill="#edeef0"
       id="path279"
       style="fill:#4e58db;fill-opacity:1" />
    <path
       d="M 535.97,57.8798 V 78.921 c -2.008,-1.2168 -3.887,-2.5697 -5.95,-3.5635 -4.6,-2.2183 -9.566,-2.6151 -14.602,-2.2032 -4.989,0.4044 -9.55,1.9802 -13.43,5.1319 -6.173,5.0109 -8.613,11.5598 -8.083,19.1895 0.552,7.9543 4.428,14.0993 11.683,17.8673 7.406,3.843 15.22,3.85 23.07,1.216 2.712,-0.914 5.094,-2.422 7.309,-4.599 v 5.374 h 10.204 V 57.8798 Z m 0.456,39.3049 c -0.487,5.2493 -3.581,8.7443 -8.239,11.0833 -2.888,1.455 -6.028,1.818 -9.239,1.697 -2.938,-0.068 -5.717,-0.71 -8.258,-2.154 -5.414,-3.072 -7.928,-8.4496 -6.904,-14.7 0.93,-5.6533 5.448,-10.1616 11.531,-11.318 5.005,-0.9523 9.889,-0.6651 14.337,2.0558 5.052,3.0912 7.313,7.573 6.772,13.3359 z"
       fill="#edeef0"
       id="path281"
       style="fill:#4e58db;fill-opacity:1" />
    <path
       d="m 303.527,110.128 c -2.526,0.268 -3.65,-0.707 -3.65,-3.152 0,-6.19 0.066,-12.3795 -0.02,-18.5657 -0.078,-5.7629 -2.708,-10.1049 -8.063,-12.7804 -3.079,-1.5343 -6.395,-2.1881 -9.808,-2.4526 -5.997,-0.461 -11.85,0.0491 -17.38,2.547 -3.335,1.5041 -6.352,3.4275 -8.43,6.4621 -0.615,0.8956 -1.093,1.8781 -1.673,2.8946 2.954,1.2736 5.721,2.4639 8.538,3.6808 1.265,-2.8683 3.635,-4.5084 6.398,-5.6836 2.767,-1.179 5.694,-1.6287 8.714,-1.5872 2.479,0.0378 4.907,0.3061 7.231,1.2169 2.977,1.1677 4.67,3.4993 4.526,6.3599 -0.202,0.0341 -0.358,0.0681 -0.514,0.0832 -6.367,0.7407 -12.737,1.4738 -19.104,2.2182 -3.822,0.446 -7.511,1.3378 -10.893,3.2008 -5.071,2.7965 -7.329,8.042 -5.842,13.514 1.23,4.531 4.542,7.108 8.803,8.721 4.168,1.58 8.543,1.727 12.929,1.323 5.183,-0.48 10.013,-1.969 14.169,-5.147 0.553,-0.419 1.067,-0.884 1.654,-1.372 0.109,0.231 0.187,0.393 0.261,0.56 0.946,2.089 2.405,3.684 4.573,4.67 1.872,0.854 3.853,1.077 5.869,1.028 1.564,-0.041 3.121,-0.257 4.658,-0.393 v -7.705 c -1.019,0.125 -1.981,0.257 -2.946,0.359 z m -13.668,-8.62 c -0.206,1.814 -1.222,3.28 -2.689,4.433 -3.172,2.498 -6.904,3.647 -10.885,4.093 -3.23,0.362 -6.464,0.461 -9.585,-0.715 -2.736,-1.031 -4.06,-3.329 -3.39,-5.884 0.432,-1.647 1.592,-2.724 3.179,-3.151 2.262,-0.6124 4.577,-1.1112 6.904,-1.4173 5.289,-0.7029 10.598,-1.2584 15.902,-1.8706 0.183,-0.0189 0.37,-0.0189 0.599,-0.0302 0,1.5494 0.133,3.0611 -0.035,4.5421 z"
       fill="#edeef0"
       id="path283"
       style="fill:#4e58db;fill-opacity:1" />
    <path
       d="m 487.883,94.5506 c -0.082,-10.9325 -7.562,-18.3846 -16.505,-20.6407 -3.841,-0.9712 -7.749,-1.0808 -11.675,-0.6575 -7.243,0.786 -13.186,3.8621 -17.669,9.4927 -6.779,8.5102 -6.81,25.9429 9.196,33.1149 5.713,2.559 11.746,2.925 17.887,2.003 4.954,-0.741 9.332,-2.759 13.08,-5.99 2.152,-1.855 3.779,-4.088 4.837,-6.756 -2.755,-1.418 -5.433,-2.797 -8.056,-4.146 -0.124,0.061 -0.167,0.064 -0.179,0.087 -0.081,0.136 -0.159,0.268 -0.229,0.412 -1.775,3.665 -4.686,6.095 -8.613,7.414 -2.809,0.945 -5.697,1.077 -8.632,0.809 -4.421,-0.408 -8.18,-2.101 -11.056,-5.419 -1.409,-1.621 -2.281,-3.522 -2.677,-5.7593 h 40.295 c 0,-1.3906 0.007,-2.6755 -0.004,-3.9641 z m -39.832,-3.4955 c 0.12,-0.3931 0.198,-0.7445 0.334,-1.0733 2.051,-4.871 6.009,-7.4181 11.154,-8.3439 3.931,-0.7029 7.823,-0.4346 11.465,1.334 3.137,1.5191 5.655,3.6391 6.714,7.0402 0.097,0.3174 0.136,0.6499 0.214,1.043 z"
       fill="#edeef0"
       id="path285"
       style="fill:#4e58db;fill-opacity:1" />
    <path
       d="m 349.171,115.728 c -2.363,0.537 -4.635,1.149 -6.943,1.561 -4.336,0.779 -8.698,0.884 -13.03,-0.079 -2.724,-0.601 -5.203,-1.693 -7.273,-3.571 -3.215,-2.91 -4.316,-6.632 -4.348,-10.725 -0.05,-6.4734 -0.011,-12.9468 -0.011,-19.4164 v -1.145 h -11.228 v -8.4687 h 11.185 V 61.1224 h 10.134 v 12.6935 h 19.681 v 8.4762 h -19.665 v 2.8683 c -0.004,5.5626 -0.016,11.1252 0.004,16.6836 0.007,2.037 0.455,3.946 2.187,5.325 1.276,1.02 2.837,1.323 4.413,1.553 4.067,0.59 7.998,-0.091 11.878,-1.228 0.342,-0.102 0.685,-0.193 1.027,-0.276 0.054,-0.015 0.125,0.023 0.276,0.057 0.553,2.721 1.109,5.479 1.713,8.453 z"
       fill="#edeef0"
       id="path287"
       style="fill:#4e58db;fill-opacity:1" />
    <path
       d="m 394.436,73.8041 h 16.707 v 8.4762 H 394.385 V 117.349 H 384.372 V 82.2917 h -11.278 v -8.4309 h 11.068 c 0.218,-1.7874 0.299,-3.4842 0.646,-5.1243 1.323,-6.2428 5.643,-9.6288 11.757,-11.0307 5.277,-1.2131 10.609,-1.0355 15.901,0.0906 0.312,0.0681 0.607,0.1814 0.977,0.2948 -0.654,2.8947 -1.292,5.7327 -1.95,8.6425 -0.766,-0.1209 -1.455,-0.2419 -2.152,-0.3363 -3.129,-0.4119 -6.273,-0.5971 -9.379,0.0378 -4.04,0.8238 -5.834,3.2461 -5.526,7.3689 z"
       fill="#edeef0"
       id="path289"
       style="fill:#4e58db;fill-opacity:1" />
    <path
       d="m 248.099,84.224 c -2.887,-0.8352 -5.724,-0.873 -8.569,-0.5858 -4.32,0.4384 -8.235,1.7005 -10.987,5.2414 -1.996,2.5735 -2.634,5.5627 -2.658,8.6916 -0.043,6.2168 -0.011,12.4368 -0.011,18.6568 v 1.1 H 215.638 V 73.9149 h 10.201 v 7.4182 c 1.91,-2.3279 4,-4.3081 6.717,-5.5778 4.752,-2.2182 9.737,-2.6302 14.87,-1.6552 0.249,0.0454 0.642,0.3326 0.642,0.5102 0.039,3.1667 0.031,6.3335 0.031,9.6137 z"
       fill="#edeef0"
       id="path291"
       style="fill:#4e58db;fill-opacity:1" />
    <path
       d="m 428.824,73.8764 h -10.122 v 43.4846 h 10.122 z"
       fill="#edeef0"
       id="path293"
       style="fill:#4e58db;fill-opacity:1" />
    <path
       d="m 367.026,73.8834 h -10.119 v 43.4356 h 10.119 z"
       fill="#edeef0"
       id="path295"
       style="fill:#4e58db;fill-opacity:1" />
    <path
       d="M 367.198,57.8914 H 356.745 V 67.951 h 10.453 z"
       fill="#edeef0"
       id="path297"
       style="fill:#4e58db;fill-opacity:1" />
    <path
       d="M 429.02,57.8995 H 418.544 V 67.944 h 10.476 z"
       fill="#edeef0"
       id="path299"
       style="fill:#4e58db;fill-opacity:1" />
  </g>
  <g
     clip-path="url(#clip1_164_120)"
     id="g307"
     transform="translate(0,-39)">
    <path
       d="M 105.593,67.1627 C 100.524,58.5021 93.6624,51.6432 84.986,46.5859 76.3149,41.5286 66.8263,39 56.5255,39 46.2246,39 36.8943,41.5286 28.2654,46.5859 19.6365,51.6432 12.764,58.5232 7.65839,67.2312 2.5528,75.9392 0,85.3899 0,95.594 c 0,10.204 2.5528,19.655 7.65839,28.358 5.10561,8.708 11.97811,15.588 20.60701,20.645 8.6289,5.057 18.0489,7.586 28.2601,7.586 6.3398,0 12.3051,-1.054 17.8959,-3.166 5.5909,-2.113 10.2587,-5.1 13.9982,-8.972 2.6372,-2.723 4.5413,-5.773 5.7069,-9.15 0.5011,-1.423 0.865,-2.903 1.0971,-4.436 0.2637,-1.67 0.3955,-3.298 0.3955,-4.878 0,-1.011 -0.0474,-1.981 -0.1529,-2.918 -0.4642,-4.452 -2.0412,-8.076 -4.7364,-10.868 -2.7321,-2.84 -6.1921,-5.073 -10.0319,-5.458 -0.0474,-0.01 -0.0949,-0.01 -0.1424,-0.016 -1.1181,-0.079 -2.4684,0.09 -3.3017,0.216 l -0.2057,0.037 c -0.1266,0.021 -0.2374,0.037 -0.327,0.053 l -0.1161,0.021 c -0.0791,0.016 -0.1266,0.026 -0.1266,0.026 l -10.227,1.823 -23.1861,4.135 -23.7822,4.246 c 1.2553,2.46 2.2838,3.92 4.4199,6.828 0.6066,0.827 1.2448,1.638 1.9146,2.423 l 1.5402,-0.316 46.1138,-8.877 c 1.3186,-0.258 2.5106,-0.39 3.5655,-0.39 2.9062,0 5.1953,0.833 6.8672,2.503 1.672,1.67 2.5106,3.735 2.5106,6.2 0,2.813 -1.1551,8.197 -3.2648,11.016 -2.115,2.813 -6.3925,5.294 -10.707,7.185 -4.3144,1.891 -9.5519,2.84 -15.7176,2.84 -8.3652,0 -16.1343,-2.092 -23.3128,-6.269 -5.0528,-2.94 -9.362,-6.622 -12.9275,-11.047 -1.5032,-1.855 -2.8745,-3.846 -4.1087,-5.969 -0.7595,-1.306 -1.4504,-2.634 -2.0728,-3.977 -0.1741,-0.369 -0.3376,-0.743 -0.4958,-1.112 -0.0106,-0.031 -0.0211,-0.053 -0.0317,-0.079 -0.116,-0.269 -0.232,-0.537 -0.3375,-0.811 -0.0528,-0.116 -0.095,-0.232 -0.1424,-0.353 -0.1213,-0.306 -0.2426,-0.616 -0.3534,-0.922 -0.1371,-0.358 -0.2637,-0.716 -0.385,-1.08 0,-0.005 0,-0.011 0,-0.021 -0.1266,-0.364 -0.2479,-0.732 -0.364,-1.101 -0.2215,-0.716 -0.4272,-1.433 -0.6171,-2.155 -0.0105,-0.052 -0.0211,-0.1 -0.0369,-0.147 -0.0897,-0.358 -0.174,-0.711 -0.2584,-1.07 -0.0739,-0.31 -0.1372,-0.621 -0.2005,-0.932 -0.1002,-0.474 -0.1898,-0.954 -0.2742,-1.433 -0.0633,-0.358 -0.1213,-0.722 -0.1741,-1.085 -0.058,-0.385 -0.1107,-0.774 -0.1582,-1.164 -0.0475,-0.359 -0.0897,-0.722 -0.1213,-1.086 -0.0106,-0.068 -0.0159,-0.137 -0.0211,-0.205 C 10.1004,99.9296 10.0688,99.5819 10.0477,99.2395 10.0108,98.8286 9.98967,98.4177 9.96857,98.0068 9.95275,97.7276 9.9422,97.4484 9.93692,97.1692 9.93165,97.0269 9.92637,96.89 9.92637,96.7477 9.91582,96.3632 9.91055,95.9786 9.91055,95.594 c 0,-8.4446 2.09395,-16.2517 6.27125,-23.4162 4.1826,-7.1697 9.8631,-12.8434 17.0362,-17.0156 7.1784,-4.1828 14.9476,-6.2689 23.3128,-6.2689 8.3651,0 16.2661,2.0861 23.4446,6.2689 7.1731,4.1722 12.8536,9.8459 17.0362,17.0156 4.1824,7.1645 6.2714,14.9716 6.2714,23.4162 0,4.3935 -0.306,7.955 -0.923,10.684 -0.601,2.644 -1.488,5.125 -2.6743,7.443 1.2603,4.352 2.0303,10.426 -0.0158,17.163 4.2401,-4.767 9.5361,-13.559 10.9441,-18.079 1.72,-5.495 2.574,-11.232 2.574,-17.211 0,-10.2936 -2.532,-19.7707 -7.59,-28.4313 z"
       fill="#4e58db"
       id="path303" />
    <path
       d="m 45.7377,102.144 c -2.4219,0 -4.7812,-0.242 -7.0256,-0.742 C 31.3785,99.7835 26.0858,95.7271 23.8048,89.9699 19.2741,78.5431 28.2989,64.7351 44.3493,58.5346 c 7.3544,-2.8451 15.0951,-3.5924 21.7919,-2.1132 7.3336,1.6184 12.6263,5.6748 14.9021,11.432 2.281,5.752 1.1848,12.2824 -3.09,18.3849 -3.9043,5.5768 -10.1,10.2104 -17.4545,13.0504 -4.8908,1.8913 -9.9538,2.8553 -14.7611,2.8553 z M 59.0895,64.4516 c -3.6903,0 -7.6363,0.7628 -11.4988,2.2575 -11.0291,4.2625 -18.1278,13.4524 -15.5076,20.0652 1.5764,3.9791 6.0444,5.5047 8.5654,6.0613 4.99,1.103 10.8882,0.4897 16.6141,-1.7214 5.726,-2.2112 10.4758,-5.716 13.3832,-9.8703 1.4719,-2.0977 3.7007,-6.2159 2.1244,-10.1949 -1.5764,-3.9791 -6.0444,-5.5047 -8.5655,-6.0613 -1.618,-0.3557 -3.3353,-0.5361 -5.1152,-0.5361 z"
       fill="#4e58db"
       id="path305" />
  </g>
  <defs
     id="defs315">
    <clipPath
       id="clip0_164_120">
      <rect
         width="406.267"
         height="77.440903"
         fill="#ffffff"
         transform="translate(147.733,56.871)"
         id="rect309"
         x="0"
         y="0" />
    </clipPath>
    <clipPath
       id="clip1_164_120">
      <rect
         width="113.183"
         height="113.183"
         fill="#ffffff"
         transform="translate(0,39)"
         id="rect312"
         x="0"
         y="0" />
    </clipPath>
  </defs>
</svg>
