<?xml version="1.0" encoding="UTF-8" standalone="no"?>
<svg
   version="1.1"
   width="3000"
   height="589.28571"
   viewBox="0 0 2999.9999 589.28573"
   id="svg23"
   sodipodi:docname="Black logo - OpAI Innovations - tight.svg"
   inkscape:version="1.2.2 (b0a8486541, 2022-12-01)"
   xmlns:inkscape="http://www.inkscape.org/namespaces/inkscape"
   xmlns:sodipodi="http://sodipodi.sourceforge.net/DTD/sodipodi-0.dtd"
   xmlns="http://www.w3.org/2000/svg"
   xmlns:svg="http://www.w3.org/2000/svg">
  <defs
     id="defs27" />
  <sodipodi:namedview
     id="namedview25"
     pagecolor="#ffffff"
     bordercolor="#000000"
     borderopacity="0.25"
     inkscape:showpageshadow="2"
     inkscape:pageopacity="0.0"
     inkscape:pagecheckerboard="0"
     inkscape:deskcolor="#d1d1d1"
     showgrid="false"
     inkscape:zoom="0.38067414"
     inkscape:cx="1527.5532"
     inkscape:cy="294.21489"
     inkscape:window-width="2560"
     inkscape:window-height="1417"
     inkscape:window-x="-8"
     inkscape:window-y="543"
     inkscape:window-maximized="1"
     inkscape:current-layer="svg23" />
  <g
     transform="scale(8.9285714)"
     id="g21">
    <defs
       id="SvgjsDefs2671" />
    <g
       id="SvgjsG2672"
       featureKey="symbolFeature-0"
       transform="matrix(0.00138497,0,0,0.00138497,-1.549781,-8.2764226)"
       fill="#000000">
      <defs
         id="defs3" />
      <g
         id="g7">
        <path
           class="fil0"
           d="m 28233,16712 c -655,-6 -1053,23 -1440,216 -424,211 -907,634 -1721,1411 -540,516 -1178,930 -1884,1213 -682,273 -1424,424 -2198,424 -1634,0 -3113,-662 -4184,-1733 -1071,-1071 -1733,-2550 -1733,-4184 0,-1634 662,-3113 1733,-4184 1071,-1071 2550,-1733 4184,-1733 774,0 1516,150 2198,424 706,283 1344,697 1884,1212 810,773 1293,1197 1713,1408 382,192 776,224 1418,219 157,-1 346,-3 532,-4 946,-8 1881,-16 2834,1 760,13 1203,1 1608,-185 437,-200 925,-625 1778,-1438 540,-516 1178,-930 1884,-1212 682,-273 1424,-424 2198,-424 1634,0 3113,662 4184,1733 1071,1071 1733,2550 1733,4184 0,1634 -662,3113 -1733,4184 -1071,1071 -2550,1733 -4184,1733 -774,0 -1516,-150 -2198,-424 -706,-283 -1344,-697 -1884,-1213 -781,-746 -1259,-1167 -1671,-1385 -368,-196 -730,-240 -1300,-242 -537,-2 -1072,0 -1607,2 -713,3 -1427,5 -2144,-1 z m 0,31885 c -655,-6 -1053,23 -1440,216 -424,211 -907,634 -1721,1411 -540,516 -1178,930 -1884,1212 -682,273 -1424,424 -2198,424 -1634,0 -3113,-662 -4184,-1733 -1071,-1071 -1733,-2550 -1733,-4184 0,-1634 662,-3113 1733,-4184 1071,-1071 2550,-1733 4184,-1733 774,0 1516,150 2198,424 706,283 1344,697 1884,1212 810,773 1293,1197 1713,1408 382,192 776,224 1418,219 157,-1 346,-3 532,-4 946,-8 1881,-16 2834,1 760,13 1203,1 1608,-185 437,-200 925,-625 1778,-1438 540,-516 1178,-930 1884,-1212 682,-273 1424,-424 2198,-424 1634,0 3113,662 4184,1733 1071,1071 1733,2550 1733,4184 0,1634 -662,3113 -1733,4184 -1071,1071 -2550,1733 -4184,1733 -774,0 -1516,-150 -2198,-424 -706,-283 -1344,-697 -1884,-1212 -781,-746 -1259,-1167 -1671,-1385 -368,-196 -730,-240 -1300,-242 -537,-2 -1072,0 -1607,2 -713,3 -1427,5 -2144,-1 z m -1947,-811 c 592,-294 1118,-340 1956,-332 714,6 1425,4 2135,1 535,-2 1071,-4 1607,-2 762,3 1265,71 1838,376 530,282 1068,751 1922,1565 437,417 952,751 1521,979 545,218 1143,338 1772,338 1317,0 2509,-534 3372,-1397 863,-863 1397,-2055 1397,-3372 0,-1317 -534,-2509 -1397,-3372 -863,-863 -2055,-1397 -3372,-1397 -629,0 -1227,120 -1772,338 -569,228 -1084,563 -1521,979 -944,901 -1505,1380 -2092,1649 -618,283 -1172,304 -2101,288 -945,-16 -1870,-9 -2807,-1 -169,1 -337,3 -537,4 -822,6 -1344,-43 -1934,-340 -553,-278 -1102,-752 -1991,-1600 -437,-417 -952,-751 -1521,-979 -545,-218 -1143,-338 -1772,-338 -1317,0 -2509,534 -3372,1397 -863,863 -1397,2055 -1397,3372 0,1317 534,2509 1397,3372 863,863 2055,1397 3372,1397 629,0 1227,-120 1772,-338 569,-228 1084,-563 1521,-979 897,-856 1448,-1332 2004,-1608 z M 43063,31665 c 995,-9 1618,44 2313,390 659,327 1318,897 2396,1926 540,515 1176,928 1879,1210 674,270 1413,419 2190,419 1627,0 3101,-660 4167,-1726 1066,-1066 1726,-2540 1726,-4167 0,-1627 -660,-3101 -1726,-4167 -1066,-1066 -2540,-1726 -4167,-1726 -777,0 -1516,149 -2190,419 -703,282 -1340,695 -1879,1210 -1068,1019 -1725,1587 -2381,1917 -693,348 -1310,406 -2287,399 -239,-2 -443,-3 -649,-5 -1136,-9 -2257,-19 -3401,1 -1069,19 -1720,-3 -2416,-302 -671,-288 -1310,-813 -2352,-1797 -18,-17 -35,-35 -50,-53 -512,-528 -1126,-961 -1811,-1270 -673,-303 -1411,-484 -2185,-514 h -2 v 0 l -72,-3 -33,-1 c -26,-1 -45,-1 -60,-1 -49,0 -98,0 -147,0 -15,0 -34,1 -58,1 l -71,2 c -14,0 -9,0 -32,1 v 0 0 c -7,0 -13,0 -20,1 -769,32 -1503,212 -2172,514 -698,315 -1322,759 -1841,1300 -7,7 -14,14 -21,21 l 1,1 c -1041,984 -1680,1509 -2352,1797 -696,299 -1347,321 -2416,302 -1145,-20 -2266,-10 -3401,-1 -206,2 -410,3 -649,5 -977,7 -1594,-51 -2287,-399 -656,-330 -1313,-898 -2381,-1917 -540,-515 -1176,-928 -1879,-1210 -674,-270 -1413,-419 -2190,-419 -1627,0 -3101,660 -4167,1726 -1066,1066 -1726,2540 -1726,4167 0,1627 660,3101 1726,4167 1066,1066 2540,1726 4167,1726 777,0 1516,-149 2190,-419 703,-282 1340,-695 1879,-1210 1078,-1028 1737,-1598 2396,-1926 695,-346 1319,-399 2313,-390 865,8 1726,5 2586,2 648,-2 1295,-5 1945,-2 867,3 1450,77 2092,401 605,305 1215,817 2153,1704 18,17 35,35 50,53 512,528 1126,961 1811,1270 673,303 1410,484 2185,514 h 2 v 0 c 35,1 70,3 105,4 26,1 45,1 60,1 49,0 98,0 147,0 15,0 35,-1 60,-1 l 66,-2 v 0 c 15,-1 30,-1 45,-2 773,-31 1509,-211 2181,-514 699,-315 1323,-759 1841,-1300 7,-7 14,-14 21,-21 l -1,-1 c 938,-887 1548,-1399 2153,-1704 642,-324 1225,-398 2092,-401 649,-2 1297,0 1945,2 860,3 1721,6 2586,-2 z m 1806,1417 c -490,-244 -986,-281 -1797,-273 -868,8 -1732,5 -2595,2 -648,-2 -1295,-5 -1945,-2 -683,2 -1129,54 -1577,280 -485,244 -1026,704 -1884,1515 l -1,-1 c -619,642 -1356,1166 -2174,1534 -798,360 -1677,575 -2603,613 l -30,1 v 0 l -23,1 v 0 l -42,1 -42,1 c -18,0 -41,1 -69,1 -59,0 -115,0 -174,0 -28,0 -52,-1 -69,-1 l -42,-1 c -29,-1 -57,-2 -85,-3 -930,-37 -1813,-252 -2613,-613 -813,-367 -1546,-886 -2163,-1523 l -12,-11 c -858,-811 -1399,-1271 -1884,-1515 -448,-225 -893,-277 -1577,-280 -649,-2 -1297,0 -1945,2 -863,3 -1727,6 -2595,-2 -812,-7 -1307,30 -1797,273 -527,262 -1119,780 -2113,1728 -643,614 -1403,1107 -2242,1443 -811,325 -1694,504 -2616,504 -1944,0 -3705,-788 -4979,-2062 -1274,-1274 -2062,-3034 -2062,-4979 0,-1944 788,-3705 2062,-4979 1274,-1274 3034,-2062 4979,-2062 922,0 1804,179 2616,504 840,336 1599,830 2242,1443 989,944 1581,1462 2103,1724 485,244 974,284 1771,278 194,-1 420,-3 644,-5 1145,-10 2275,-19 3428,1 905,16 1447,1 1945,-213 523,-225 1081,-690 2020,-1578 l 1,1 c 619,-642 1356,-1166 2174,-1534 795,-358 1670,-573 2593,-612 l 16,-1 v 0 c 30,-2 60,-2 90,-3 l 42,-1 c 18,0 42,-1 69,-1 18,0 40,0 64,0 36,-1 74,0 110,0 28,0 52,1 69,1 l 42,1 c 28,1 57,2 85,3 930,37 1813,252 2613,613 813,367 1546,886 2163,1523 l 12,11 c 939,888 1497,1353 2020,1578 498,214 1040,228 1945,213 1153,-20 2283,-11 3428,-1 224,2 451,4 644,5 797,6 1286,-34 1771,-278 522,-262 1114,-780 2103,-1724 643,-614 1403,-1107 2242,-1443 811,-325 1694,-504 2616,-504 1944,0 3705,788 4979,2062 1274,1274 2062,3034 2062,4979 0,1944 -788,3705 -2062,4979 -1274,1274 -3034,2062 -4979,2062 -922,0 -1804,-179 -2616,-504 -840,-336 -1599,-830 -2242,-1443 -994,-949 -1587,-1467 -2113,-1728 z M 26286,15902 c 592,-294 1118,-340 1956,-332 714,6 1425,4 2135,1 535,-2 1071,-4 1607,-2 762,3 1265,71 1838,376 530,282 1068,751 1922,1565 437,417 952,751 1521,979 545,218 1143,338 1772,338 1317,0 2509,-534 3372,-1397 863,-863 1397,-2055 1397,-3372 0,-1317 -534,-2509 -1397,-3372 -863,-863 -2055,-1397 -3372,-1397 -629,0 -1227,120 -1772,338 -569,228 -1084,563 -1521,979 -944,900 -1505,1380 -2092,1649 -618,283 -1172,304 -2101,288 -945,-16 -1870,-9 -2807,-1 -169,1 -337,3 -537,4 -822,6 -1344,-43 -1934,-340 -553,-278 -1102,-752 -1991,-1600 -437,-417 -952,-751 -1521,-979 -545,-218 -1143,-338 -1772,-338 -1317,0 -2509,534 -3372,1397 -863,863 -1397,2055 -1397,3372 0,1317 534,2509 1397,3372 863,863 2055,1397 3372,1397 629,0 1227,-120 1772,-338 569,-228 1084,-563 1521,-979 897,-856 1448,-1332 2004,-1608 z"
           style="fill:#111111;fill-rule:nonzero"
           id="path5" />
      </g>
    </g>
    <g
       id="SvgjsG2673"
       featureKey="textGroupContainer"
       transform="translate(335)"
       fill="#000000">
      <rect
         y="0"
         height="1"
         width="1"
         opacity="0"
         id="rect10"
         x="0" />
      <rect
         y="0"
         x="-235"
         width="3"
         height="66"
         id="rect12" />
    </g>
    <g
       id="SvgjsG2674"
       featureKey="vMvB0T-0"
       transform="matrix(1.1606315,0,0,1.1606315,117.16435,9.9897855)"
       fill="#000000">
      <path
         d="m 4.48,16.28 q 0.54,1.56 2.18,1.56 0.82,0 1.33,-0.41 0.51,-0.41 0.8,-1.04 0.29,-0.63 0.39,-1.41 0.1,-0.78 0.1,-1.54 0,-0.7 -0.05,-1.56 Q 9.18,11.02 8.94,10.27 8.7,9.52 8.18,9.01 7.66,8.5 6.66,8.5 5.7,8.5 5.19,8.99 4.68,9.48 4.43,10.2 q -0.25,0.72 -0.31,1.53 -0.06,0.81 -0.06,1.43 0,0.92 0.09,1.64 0.09,0.72 0.33,1.48 z M 2.86,19.04 Q 0.72,17.26 0.72,13.18 0.72,11.42 1.13,10.09 1.54,8.76 2.31,7.86 3.08,6.96 4.18,6.5 5.28,6.04 6.66,6.04 q 1.38,0 2.49,0.46 1.11,0.46 1.88,1.37 0.77,0.91 1.18,2.24 0.41,1.33 0.41,3.07 0,1.74 -0.41,3.07 -0.41,1.33 -1.18,2.23 -0.77,0.9 -1.88,1.36 -1.11,0.46 -2.49,0.46 -2.28,0 -3.8,-1.26 z M 19.64,15.72 H 18.06 V 20 q -0.64,0.12 -1.6,0.12 -0.98,0 -1.6,-0.12 V 6.44 L 15,6.3 q 1.74,-0.04 2.89,-0.06 1.15,-0.02 1.75,-0.02 1.1,0 2.01,0.3 0.91,0.3 1.55,0.9 0.64,0.6 0.99,1.49 0.35,0.89 0.35,2.05 0,1.16 -0.36,2.05 -0.36,0.89 -1,1.49 -0.64,0.6 -1.55,0.91 -0.91,0.31 -1.99,0.31 z M 18.06,8.66 v 4.66 q 0.56,-0.02 0.89,-0.03 0.33,-0.01 0.43,-0.01 0.54,0 0.9,-0.19 0.36,-0.19 0.58,-0.5 0.22,-0.31 0.32,-0.73 0.1,-0.42 0.1,-0.88 0,-0.44 -0.1,-0.86 Q 21.08,9.7 20.87,9.38 20.66,9.06 20.32,8.87 19.98,8.68 19.52,8.68 H 18.7 q 0,0 -0.64,-0.02 z m 10.7,8.48 q -0.54,0 -0.8,-0.02 l -0.86,2.9 q -0.48,0.12 -1.34,0.12 -0.96,0 -1.56,-0.22 L 24.1,19.76 28.5,6.34 q 0.78,-0.12 1.82,-0.12 1.18,0 1.88,0.14 l 4.32,13.44 q -0.7,0.38 -1.58,0.38 -1.04,0 -1.46,-0.36 -0.42,-0.36 -0.72,-1.38 l -0.38,-1.32 q -0.26,0.02 -0.78,0.02 z M 28.7,14.62 29.5,14.6 h 1.46 q 0.1,0 0.35,0.01 0.25,0.01 0.37,0.01 L 31.34,13.38 Q 30.86,11.7 30.24,9.26 h -0.12 q -0.16,0.86 -0.96,3.82 z M 38.24,20 V 6.34 q 0.62,-0.12 1.6,-0.12 0.98,0 1.62,0.12 V 20 q -0.64,0.12 -1.62,0.12 -0.98,0 -1.6,-0.12 z m 10.74,0 V 6.34 q 0.62,-0.12 1.6,-0.12 0.98,0 1.62,0.12 V 20 q -0.64,0.12 -1.62,0.12 -0.98,0 -1.6,-0.12 z M 66.04,6.2 66.18,6.34 v 13.6 q -0.8,0.18 -1.89,0.18 -1.09,0 -1.93,-0.12 l -3.14,-7.16 q -0.56,-1.22 -1.14,-2.82 l -0.06,0.02 q 0.24,2.92 0.24,5.98 V 20 q -0.62,0.12 -1.5,0.12 -0.88,0 -1.48,-0.12 V 6.4 q 0.76,-0.18 1.83,-0.18 1.07,0 1.91,0.12 l 3.1,7.14 q 0.84,1.98 1.24,3.04 l 0.08,-0.04 Q 63.2,13.7 63.2,10.58 V 8.14 Q 63.2,7.1 63.62,6.65 64.04,6.2 64.98,6.2 Z m 13.92,0 0.14,0.14 v 13.6 q -0.8,0.18 -1.89,0.18 -1.09,0 -1.93,-0.12 L 73.14,12.84 Q 72.58,11.62 72,10.02 l -0.06,0.02 q 0.24,2.92 0.24,5.98 V 20 q -0.62,0.12 -1.5,0.12 -0.88,0 -1.48,-0.12 V 6.4 q 0.76,-0.18 1.83,-0.18 1.07,0 1.91,0.12 l 3.1,7.14 q 0.84,1.98 1.24,3.04 l 0.08,-0.04 Q 77.12,13.7 77.12,10.58 V 8.14 Q 77.12,7.1 77.54,6.65 77.96,6.2 78.9,6.2 Z m 6.12,10.08 q 0.54,1.56 2.18,1.56 0.82,0 1.33,-0.41 0.51,-0.41 0.8,-1.04 0.29,-0.63 0.39,-1.41 0.1,-0.78 0.1,-1.54 0,-0.7 -0.05,-1.56 Q 90.78,11.02 90.54,10.27 90.3,9.52 89.78,9.01 89.26,8.5 88.26,8.5 q -0.96,0 -1.47,0.49 -0.51,0.49 -0.76,1.21 -0.25,0.72 -0.31,1.53 -0.06,0.81 -0.06,1.43 0,0.92 0.09,1.64 0.09,0.72 0.33,1.48 z m -1.62,2.76 q -2.14,-1.78 -2.14,-5.86 0,-1.76 0.41,-3.09 0.41,-1.33 1.18,-2.23 0.77,-0.9 1.87,-1.36 1.1,-0.46 2.48,-0.46 1.38,0 2.49,0.46 1.11,0.46 1.88,1.37 0.77,0.91 1.18,2.24 0.41,1.33 0.41,3.07 0,1.74 -0.41,3.07 -0.41,1.33 -1.18,2.23 -0.77,0.9 -1.88,1.36 -1.11,0.46 -2.49,0.46 -2.28,0 -3.8,-1.26 z m 16.62,-1.72 2.62,-10.98 q 0.48,-0.12 1.24,-0.12 1.04,0 1.64,0.22 L 106.7,6.6 102.96,20 q -1.14,0.12 -2.29,0.12 -1.15,0 -1.66,-0.29 -0.51,-0.29 -0.77,-1.15 L 94.92,6.62 Q 96,6.16 96.7,6.16 q 0.84,0 1.24,0.38 0.4,0.38 0.62,1.2 l 1.54,5.7 q 0.36,1.34 0.76,3.64 0.04,0.24 0.22,0.24 z m 9.62,-0.18 q -0.54,0 -0.8,-0.02 l -0.86,2.9 q -0.48,0.12 -1.34,0.12 -0.96,0 -1.56,-0.22 l -0.1,-0.16 4.4,-13.42 q 0.78,-0.12 1.82,-0.12 1.18,0 1.88,0.14 l 4.32,13.44 q -0.7,0.38 -1.58,0.38 -1.04,0 -1.46,-0.36 -0.42,-0.36 -0.72,-1.38 l -0.38,-1.32 q -0.26,0.02 -0.78,0.02 z m -0.06,-2.52 0.8,-0.02 h 1.46 q 0.1,0 0.35,0.01 0.25,0.01 0.37,0.01 l -0.34,-1.24 q -0.48,-1.68 -1.1,-4.12 h -0.12 q -0.16,0.86 -0.96,3.82 z m 14.68,-5.64 0.02,1.48 V 20 q -0.68,0.12 -1.62,0.12 -0.94,0 -1.58,-0.12 V 8.98 L 120.86,9 h -2.06 q -0.12,-0.58 -0.12,-1.33 0,-0.75 0.12,-1.33 h 9.9 q 0.16,0.52 0.16,1.26 0,0.74 -0.4,1.07 Q 128.06,9 127.18,9 H 126.6 L 125.34,8.98 Z M 130.38,20 V 6.34 q 0.62,-0.12 1.6,-0.12 0.98,0 1.62,0.12 V 20 q -0.64,0.12 -1.62,0.12 -0.98,0 -1.6,-0.12 z m 9.26,-3.72 q 0.54,1.56 2.18,1.56 0.82,0 1.33,-0.41 0.51,-0.41 0.8,-1.04 0.29,-0.63 0.39,-1.41 0.1,-0.78 0.1,-1.54 0,-0.7 -0.05,-1.56 -0.05,-0.86 -0.29,-1.61 -0.24,-0.75 -0.76,-1.26 -0.52,-0.51 -1.52,-0.51 -0.96,0 -1.47,0.49 -0.51,0.49 -0.76,1.21 -0.25,0.72 -0.31,1.53 -0.06,0.81 -0.06,1.43 0,0.92 0.09,1.64 0.09,0.72 0.33,1.48 z m -1.62,2.76 q -2.14,-1.78 -2.14,-5.86 0,-1.76 0.41,-3.09 0.41,-1.33 1.18,-2.23 0.77,-0.9 1.87,-1.36 1.1,-0.46 2.48,-0.46 1.38,0 2.49,0.46 1.11,0.46 1.88,1.37 0.77,0.91 1.18,2.24 0.41,1.33 0.41,3.07 0,1.74 -0.41,3.07 -0.41,1.33 -1.18,2.23 -0.77,0.9 -1.88,1.36 -1.11,0.46 -2.49,0.46 -2.28,0 -3.8,-1.26 z m 22.76,-12.84 0.14,0.14 v 13.6 q -0.8,0.18 -1.89,0.18 -1.09,0 -1.93,-0.12 l -3.14,-7.16 q -0.56,-1.22 -1.14,-2.82 l -0.06,0.02 Q 153,12.96 153,16.02 V 20 q -0.62,0.12 -1.5,0.12 -0.88,0 -1.48,-0.12 V 6.4 q 0.76,-0.18 1.83,-0.18 1.07,0 1.91,0.12 l 3.1,7.14 q 0.84,1.98 1.24,3.04 l 0.08,-0.04 q -0.24,-2.78 -0.24,-5.9 V 8.14 q 0,-1.04 0.42,-1.49 0.42,-0.45 1.36,-0.45 z m 1.94,12.62 q 0.06,-0.66 0.41,-1.32 0.35,-0.66 0.83,-1.08 2.14,1.3 4.06,1.3 0.84,0 1.23,-0.38 0.39,-0.38 0.39,-0.94 0,-0.94 -1.26,-1.48 l -2.36,-1 q -1.38,-0.62 -2.12,-1.49 -0.74,-0.87 -0.74,-2.21 0,-0.92 0.37,-1.68 0.37,-0.76 1.04,-1.32 0.67,-0.56 1.59,-0.87 0.92,-0.31 2.04,-0.31 2.24,0 4.52,1.14 -0.1,1.54 -1.08,2.4 -2.04,-0.98 -3.6,-0.98 -0.8,0 -1.2,0.36 -0.4,0.36 -0.4,0.82 0,0.78 1.18,1.26 l 2.4,1.02 q 1.52,0.64 2.27,1.64 0.75,1 0.75,2.32 0,0.94 -0.34,1.72 -0.34,0.78 -1.01,1.35 -0.67,0.57 -1.67,0.89 -1,0.32 -2.34,0.32 -2.6,0 -4.96,-1.48 z"
         id="path15" />
    </g>
    <g
       id="SvgjsG2675"
       featureKey="sloganFeature-0"
       transform="matrix(0.33409338,0,0,0.33409338,117.51222,42.242669)"
       fill="#000000">
      <path
         d="m 15.22,20 h -1.88 v -8.48 c 0,-0.42 0.04,-2.24 0.04,-3.58 H 13.34 L 9.3,20 H 7.38 L 3.34,7.96 H 3.3 c 0,1.32 0.04,3.14 0.04,3.56 V 20 H 1.46 V 5.64 h 2.78 l 4.1,12.14 H 8.38 L 12.46,5.64 h 2.76 z M 32.312,18.28 V 20 h -10.6 V 5.64 h 10.46 v 1.72 h -8.52 v 4.4 h 7.86 v 1.72 h -7.86 v 4.8 z m 13.892,-2.46 h -5.76 l -1.5,4.18 h -2 l 5.4,-14.36 h 2.2 l 5.2,14.36 h -2.12 z m -5.16,-1.72 h 4.46 l -2.12,-6.32 h -0.04 z M 65.336,9.84 h -1.82 c -0.1,-2.22 -1.94,-2.92 -3.56,-2.92 -1.22,0 -3.28,0.34 -3.28,2.52 0,1.22 0.86,1.62 1.7,1.82 l 4.1,0.94 c 1.86,0.44 3.26,1.56 3.26,3.84 0,3.4 -3.16,4.34 -5.62,4.34 -2.66,0 -3.7,-0.8 -4.34,-1.38 -1.22,-1.1 -1.46,-2.3 -1.46,-3.64 h 1.82 c 0,2.6 2.12,3.36 3.96,3.36 1.4,0 3.76,-0.36 3.76,-2.42 0,-1.5 -0.7,-1.98 -3.06,-2.54 l -2.94,-0.68 c -0.94,-0.22 -3.06,-0.88 -3.06,-3.38 0,-2.24 1.46,-4.44 4.94,-4.44 5.02,0 5.52,3 5.6,4.58 z m 15.612,-4.2 h 1.94 v 9.32 c 0,2.94 -1.84,5.42 -5.78,5.42 -3.86,0 -5.52,-2.48 -5.52,-5.16 V 5.64 h 1.94 v 9.04 c 0,3.12 1.9,3.98 3.64,3.98 1.78,0 3.78,-0.82 3.78,-3.94 z m 10.532,8.2 V 20 H 89.54 V 5.64 h 6.64 c 2.36,0 4.72,0.82 4.72,3.86 0,2.12 -1.08,2.9 -2,3.44 0.82,0.34 1.64,0.7 1.72,2.7 l 0.12,2.6 c 0.02,0.8 0.12,1.1 0.72,1.44 V 20 h -2.38 c -0.28,-0.88 -0.34,-3.06 -0.34,-3.6 0,-1.18 -0.24,-2.56 -2.56,-2.56 z m 0,-6.54 v 4.88 h 4.5 c 1.42,0 2.92,-0.36 2.92,-2.48 0,-2.22 -1.62,-2.4 -2.58,-2.4 z m 26.392,10.98 V 20 h -10.6 V 5.64 h 10.46 v 1.72 h -8.52 v 4.4 h 7.86 v 1.72 h -7.86 v 4.8 z M 134.536,7.3 v 4.42 h 3.5 c 1.86,0 3,-0.56 3,-2.32 0,-1.34 -0.82,-2.1 -2.98,-2.1 z M 132.596,20 V 5.64 h 6.32 c 2.68,0 4.06,1.66 4.06,3.62 0,0.94 -0.34,2.26 -1.92,3 0.94,0.38 2.6,1.04 2.6,3.5 0,2.3 -1.7,4.24 -4.88,4.24 z m 1.94,-6.7 v 5.04 h 4.14 c 2.02,0 3.04,-1.02 3.04,-2.62 0,-2.02 -1.78,-2.42 -3.36,-2.42 z m 25.572,4.98 V 20 h -10.6 V 5.64 h 10.46 v 1.72 h -8.52 v 4.4 h 7.86 v 1.72 h -7.86 v 4.8 z M 164.74,7.36 V 5.64 h 11.66 v 1.72 h -4.86 V 20 H 169.6 V 7.36 Z m 15.552,0 V 5.64 h 11.66 v 1.72 h -4.86 V 20 h -1.94 V 7.36 Z m 27.592,10.92 V 20 h -10.6 V 5.64 h 10.46 v 1.72 h -8.52 v 4.4 h 7.86 v 1.72 h -7.86 v 4.8 z m 8.052,-4.44 V 20 h -1.94 V 5.64 h 6.64 c 2.36,0 4.72,0.82 4.72,3.86 0,2.12 -1.08,2.9 -2,3.44 0.82,0.34 1.64,0.7 1.72,2.7 l 0.12,2.6 c 0.02,0.8 0.12,1.1 0.72,1.44 V 20 h -2.38 c -0.28,-0.88 -0.34,-3.06 -0.34,-3.6 0,-1.18 -0.24,-2.56 -2.56,-2.56 z m 0,-6.54 v 4.88 h 4.5 c 1.42,0 2.92,-0.36 2.92,-2.48 0,-2.22 -1.62,-2.4 -2.58,-2.4 z M 231.748,20 v -2.12 h 2.08 v 1.96 c 0,2.72 -1.68,3.04 -2.08,3.1 v -0.92 c 0.84,-0.08 1.06,-1.08 1.06,-2.02 z m 31.264,0 h -1.88 v -8.48 c 0,-0.42 0.04,-2.24 0.04,-3.58 h -0.04 L 257.092,20 h -1.92 l -4.04,-12.04 h -0.04 c 0,1.32 0.04,3.14 0.04,3.56 V 20 h -1.88 V 5.64 h 2.78 l 4.1,12.14 h 0.04 l 4.08,-12.14 h 2.76 z m 14.312,-4.18 h -5.76 l -1.5,4.18 h -2 l 5.4,-14.36 h 2.2 l 5.2,14.36 h -2.12 z m -5.16,-1.72 h 4.46 l -2.12,-6.32 h -0.04 z m 23.332,3.14 V 5.64 h 1.88 V 20 h -2.18 l -7.3,-11.6 h -0.04 V 20 h -1.88 V 5.64 h 2.3 l 7.18,11.6 z m 16.272,-1.42 h -5.76 l -1.5,4.18 h -2 l 5.4,-14.36 h 2.2 l 5.2,14.36 h -2.12 z m -5.16,-1.72 h 4.46 l -2.12,-6.32 h -0.04 z m 20.072,-0.12 v -1.66 h 6.3 V 20 h -1.26 l -0.46,-1.86 c -0.98,1.36 -2.78,2.24 -4.74,2.24 -2.46,0 -3.66,-0.9 -4.4,-1.62 -2.2,-2.08 -2.26,-4.54 -2.26,-6.06 0,-3.5 2.12,-7.44 6.8,-7.44 2.68,0 5.66,1.52 6.08,4.74 h -1.88 c -0.62,-2.5 -2.72,-3.02 -4.3,-3.02 -2.58,0 -4.7,2.06 -4.7,5.82 0,2.92 0.96,5.92 4.78,5.92 0.72,0 1.88,-0.08 2.94,-0.92 1.26,-1 1.58,-2.28 1.58,-3.82 z m 23.432,4.3 V 20 h -10.6 V 5.64 h 10.46 v 1.72 h -8.52 v 4.4 h 7.86 v 1.72 h -7.86 v 4.8 z m 25.244,-8.44 h -1.82 c -0.1,-2.22 -1.94,-2.92 -3.56,-2.92 -1.22,0 -3.28,0.34 -3.28,2.52 0,1.22 0.86,1.62 1.7,1.82 l 4.1,0.94 c 1.86,0.44 3.26,1.56 3.26,3.84 0,3.4 -3.16,4.34 -5.62,4.34 -2.66,0 -3.7,-0.8 -4.34,-1.38 -1.22,-1.1 -1.46,-2.3 -1.46,-3.64 h 1.82 c 0,2.6 2.12,3.36 3.96,3.36 1.4,0 3.76,-0.36 3.76,-2.42 0,-1.5 -0.7,-1.98 -3.06,-2.54 l -2.94,-0.68 c -0.94,-0.22 -3.06,-0.88 -3.06,-3.38 0,-2.24 1.46,-4.44 4.94,-4.44 5.02,0 5.52,3 5.6,4.58 z M 395.248,20 h -1.88 v -8.48 c 0,-0.42 0.04,-2.24 0.04,-3.58 h -0.04 L 389.328,20 h -1.92 l -4.04,-12.04 h -0.04 c 0,1.32 0.04,3.14 0.04,3.56 V 20 h -1.88 V 5.64 h 2.78 l 4.1,12.14 h 0.04 l 4.08,-12.14 h 2.76 z M 409.56,15.82 H 403.8 L 402.3,20 h -2 l 5.4,-14.36 h 2.2 L 413.1,20 h -2.12 z M 404.4,14.1 h 4.46 l -2.12,-6.32 h -0.04 z m 15.992,-0.26 V 20 h -1.94 V 5.64 h 6.64 c 2.36,0 4.72,0.82 4.72,3.86 0,2.12 -1.08,2.9 -2,3.44 0.82,0.34 1.64,0.7 1.72,2.7 l 0.12,2.6 c 0.02,0.8 0.12,1.1 0.72,1.44 V 20 h -2.38 c -0.28,-0.88 -0.34,-3.06 -0.34,-3.6 0,-1.18 -0.24,-2.56 -2.56,-2.56 z m 0,-6.54 v 4.88 h 4.5 c 1.42,0 2.92,-0.36 2.92,-2.48 0,-2.22 -1.62,-2.4 -2.58,-2.4 z m 14.352,0.06 V 5.64 h 11.66 v 1.72 h -4.86 V 20 h -1.94 V 7.36 Z m 27.592,10.92 V 20 h -10.6 V 5.64 h 10.46 v 1.72 h -8.52 v 4.4 h 7.86 v 1.72 h -7.86 v 4.8 z m 8.052,-4.44 V 20 h -1.94 V 5.64 h 6.64 c 2.36,0 4.72,0.82 4.72,3.86 0,2.12 -1.08,2.9 -2,3.44 0.82,0.34 1.64,0.7 1.72,2.7 l 0.12,2.6 c 0.02,0.8 0.12,1.1 0.72,1.44 V 20 h -2.38 c -0.28,-0.88 -0.34,-3.06 -0.34,-3.6 0,-1.18 -0.24,-2.56 -2.56,-2.56 z m 0,-6.54 v 4.88 h 4.5 c 1.42,0 2.92,-0.36 2.92,-2.48 0,-2.22 -1.62,-2.4 -2.58,-2.4 z"
         id="path18" />
    </g>
  </g>
</svg>
