<?xml version="1.0" encoding="UTF-8" standalone="no"?>
<svg
   role="img"
   width="109.617"
   height="30.6724"
   aria-labelledby="osedeaLogoId"
   viewBox="0 0 109.617 30.6724"
   fill="none"
   version="1.1"
   id="svg249"
   sodipodi:docname="osedea.svg"
   inkscape:version="1.2.1 (9c6d41e410, 2022-07-14)"
   xmlns:inkscape="http://www.inkscape.org/namespaces/inkscape"
   xmlns:sodipodi="http://sodipodi.sourceforge.net/DTD/sodipodi-0.dtd"
   xmlns="http://www.w3.org/2000/svg"
   xmlns:svg="http://www.w3.org/2000/svg"
   xmlns:rdf="http://www.w3.org/1999/02/22-rdf-syntax-ns#"
   xmlns:cc="http://creativecommons.org/ns#"
   xmlns:dc="http://purl.org/dc/elements/1.1/">
  <sodipodi:namedview
     id="namedview251"
     pagecolor="#ffffff"
     bordercolor="#666666"
     borderopacity="1.0"
     inkscape:showpageshadow="2"
     inkscape:pageopacity="0.0"
     inkscape:pagecheckerboard="0"
     inkscape:deskcolor="#d1d1d1"
     showgrid="false"
     inkscape:zoom="14.245455"
     inkscape:cx="55.035099"
     inkscape:cy="15.548819"
     inkscape:window-width="2560"
     inkscape:window-height="1334"
     inkscape:window-x="-11"
     inkscape:window-y="-11"
     inkscape:window-maximized="1"
     inkscape:current-layer="svg249" />
  <title
     id="osedeaLogoId">OSEDEA Logo</title>
  <g
     clip-path="url(#clip0)"
     id="g242">
    <path
       fill-rule="evenodd"
       clip-rule="evenodd"
       d="m 13.218,7.56071 c 0,-2.31976 0.5656,-4.15981 1.6969,-5.52018 C 16.0461,0.680171 17.7716,0 20.0914,0 c 2.3198,0 4.0524,0.680171 5.198,2.04053 1.1456,1.36037 1.7184,3.20042 1.7184,5.52018 V 23.1117 c 0,2.2912 -0.5728,4.124 -1.7184,5.4987 -1.1456,1.3747 -2.8782,2.062 -5.198,2.062 -2.3198,0 -4.0453,-0.6873 -5.1765,-2.062 -1.1313,-1.3747 -1.6969,-3.2075 -1.6969,-5.4987 z m 3.3078,15.72289 c 0,1.3746 0.2936,2.4414 0.8807,3.2004 0.5871,0.7589 1.4821,1.1384 2.6849,1.1384 1.2315,0 2.1336,-0.3795 2.7064,-1.1384 0.5728,-0.759 0.8592,-1.8258 0.8592,-3.2004 V 7.38889 c 0,-1.3747 -0.2864,-2.44149 -0.8592,-3.20042 -0.5728,-0.75894 -1.4749,-1.13841 -2.7064,-1.13841 -1.2028,0 -2.0978,0.37947 -2.6849,1.13841 -0.5871,0.75893 -0.8807,1.82572 -0.8807,3.20042 z M 41.5707,2.04053 C 40.4824,0.680171 38.7927,0 36.5016,0 34.2391,0 32.5638,0.673012 31.4755,2.01905 30.3872,3.3651 29.843,5.19797 29.843,7.51778 c 0,1.40331 0.2506,2.61332 0.7518,3.63002 0.5012,1.0167 1.1241,1.926 1.8687,2.7278 0.7446,0.8019 1.5465,1.5394 2.4057,2.2124 0.8592,0.673 1.661,1.3603 2.4057,2.062 0.7446,0.7017 1.3675,1.4606 1.8687,2.2768 0.5012,0.8162 0.7517,1.7828 0.7517,2.8997 0,1.3747 -0.2863,2.4343 -0.8591,3.179 -0.5728,0.7446 -1.4606,1.1169 -2.6635,1.1169 -1.2028,0 -2.0906,-0.3723 -2.6634,-1.1169 -0.5728,-0.7447 -0.8592,-1.8043 -0.8592,-3.179 v -1.8901 h -3.1359 v 1.7183 c 0,2.2911 0.5441,4.1169 1.6324,5.4772 1.0883,1.3604 2.7923,2.0405 5.112,2.0405 2.3199,0 4.031,-0.6801 5.1336,-2.0405 1.1027,-1.3603 1.654,-3.1861 1.654,-5.4772 0,-1.4033 -0.2507,-2.6133 -0.7519,-3.63 -0.5012,-1.0167 -1.124,-1.926 -1.8687,-2.7279 C 39.881,15.9949 39.072,15.2575 38.1985,14.5845 37.325,13.9114 36.516,13.2241 35.7713,12.5224 35.0267,11.8208 34.4038,11.0547 33.9026,10.2242 33.4014,9.39362 33.1508,8.4199 33.1508,7.30298 c 0,-1.34605 0.2721,-2.39139 0.8163,-3.13599 0.5441,-0.74463 1.4176,-1.11693 2.6204,-1.11693 1.2029,0 2.0763,0.3723 2.6205,1.11693 0.5442,0.7446 0.8162,1.80426 0.8162,3.17892 v 0.98808 h 3.1789 V 7.51778 c 0,-2.29116 -0.544,-4.11688 -1.6324,-5.47725 z M 56.864,13.6179 v 3.0071 h -7.3461 v 10.6967 h 9.0213 v 3.05 H 46.1672 V 0.30071 h 12.372 V 3.35077 H 49.5179 V 13.6179 Z M 73.8543,2.29829 C 72.7514,0.966563 71.0259,0.30071 68.6775,0.30071 H 61.6324 V 30.3717 h 7.0451 c 2.3484,0 4.0739,-0.6587 5.1768,-1.9761 1.1026,-1.3174 1.6539,-3.1359 1.6539,-5.4557 V 7.77551 c 0,-2.31977 -0.5513,-4.1455 -1.6539,-5.47722 z M 68.6345,27.3217 c 1.2031,0 2.0981,-0.3652 2.6851,-1.0954 0.5871,-0.7303 0.8805,-1.7829 0.8805,-3.1575 V 7.60369 c 0,-1.37471 -0.2934,-2.42717 -0.8805,-3.15747 -0.587,-0.7303 -1.4965,-1.09545 -2.7278,-1.09545 H 64.9831 V 27.3217 Z M 89.3409,16.625 V 13.6179 H 81.9948 V 3.35077 H 91.016 V 0.30071 H 78.644 V 30.3717 h 11.3236 l 0.5799,-3.05 H 81.9948 V 16.625 Z m 8.1622,7.6896 -1.1602,6.0571 H 93.2502 L 99.0064,0.30071 h 4.8546 l 5.756,30.07099 h -3.351 l -1.159,-6.0571 z m 7.1309,-2.8782 H 97.9324 L 101.24,4.08107 Z"
       fill="#000000"
       id="path238" />
    <path
       fill-rule="evenodd"
       clip-rule="evenodd"
       d="M 5.61397,0.30072 H 8.91844 L 3.30451,30.3717 H 0 Z"
       fill="#fc361a"
       id="path240" />
  </g>
  <defs
     id="defs247">
    <clipPath
       id="clip0">
      <rect
         width="110"
         height="30.697701"
         fill="#ffffff"
         id="rect244"
         x="0"
         y="0" />
    </clipPath>
  </defs>
  <metadata
     id="metadata253">
    <rdf:RDF>
      <cc:Work
         rdf:about="">
        <dc:title>OSEDEA Logo</dc:title>
      </cc:Work>
    </rdf:RDF>
  </metadata>
</svg>
