<?xml version="1.0" encoding="UTF-8" standalone="no"?>
<!-- Generator: Adobe Illustrator 26.3.1, SVG Export Plug-In . SVG Version: 6.00 Build 0)  -->

<svg
   version="1.1"
   id="Layer_1"
   x="0px"
   y="0px"
   viewBox="0 0 1782 120.8"
   xml:space="preserve"
   sodipodi:docname="pivot-edge.svg"
   width="1782"
   height="120.8"
   inkscape:version="1.2.1 (9c6d41e410, 2022-07-14)"
   xmlns:inkscape="http://www.inkscape.org/namespaces/inkscape"
   xmlns:sodipodi="http://sodipodi.sourceforge.net/DTD/sodipodi-0.dtd"
   xmlns="http://www.w3.org/2000/svg"
   xmlns:svg="http://www.w3.org/2000/svg"><defs
   id="defs196" /><sodipodi:namedview
   id="namedview194"
   pagecolor="#ffffff"
   bordercolor="#666666"
   borderopacity="1.0"
   inkscape:showpageshadow="2"
   inkscape:pageopacity="0.0"
   inkscape:pagecheckerboard="0"
   inkscape:deskcolor="#d1d1d1"
   showgrid="false"
   inkscape:zoom="0.81614583"
   inkscape:cx="898.1238"
   inkscape:cy="58.200383"
   inkscape:window-width="2560"
   inkscape:window-height="1334"
   inkscape:window-x="-11"
   inkscape:window-y="-11"
   inkscape:window-maximized="1"
   inkscape:current-layer="Layer_1" />
<style
   type="text/css"
   id="style183">
	.st0{fill-rule:evenodd;clip-rule:evenodd;}
	.st1{fill-rule:evenodd;clip-rule:evenodd;fill:#00C9FF;}
	.st2{fill-rule:evenodd;clip-rule:evenodd;fill:#0084FF;}
	.st3{fill-rule:evenodd;clip-rule:evenodd;fill:#FFFFFF;}
</style>
<g
   id="g191"
   transform="translate(-61,-78.8)">
	<path
   class="st0"
   d="m 1755.6,80.7 h 86.6 V 99.2 H 1776 v 30.1 h 58.6 v 18.5 H 1776 V 179 h 67 v 18.6 h -87.4 z m -139.2,118.9 c -9.1,0 -17.4,-1.5 -24.9,-4.6 -7.5,-3.1 -13.8,-7.3 -19.1,-12.7 -5.3,-5.4 -9.4,-11.8 -12.3,-19 -2.9,-7.3 -4.3,-15.2 -4.3,-23.8 v -0.3 c 0,-8.1 1.5,-15.9 4.5,-23.2 3,-7.4 7.2,-13.8 12.5,-19.3 5.4,-5.5 11.8,-9.9 19.2,-13.1 7.4,-3.2 15.5,-4.8 24.3,-4.8 5.1,0 9.8,0.4 14,1.1 4.2,0.7 8,1.8 11.6,3.1 3.6,1.3 6.9,3 10.1,4.9 3.2,1.9 6.3,4.2 9.3,6.8 l -13,15.5 c -2.2,-1.9 -4.5,-3.6 -6.8,-5.2 -2.3,-1.6 -4.8,-2.9 -7.4,-3.9 -2.6,-1.1 -5.4,-1.9 -8.4,-2.5 -3.1,-0.6 -6.4,-0.9 -10.1,-0.9 -5.3,0 -10.3,1.1 -15,3.3 -4.6,2.2 -8.6,5.2 -12,9 -3.4,3.7 -6.1,8.1 -8,13.1 -1.9,5 -2.9,10.3 -2.9,15.9 v 0.3 c 0,6 0.9,11.6 2.8,16.7 1.9,5.2 4.6,9.6 8.1,13.2 3.5,3.7 7.7,6.6 12.5,8.7 4.8,2.1 10.3,3.2 16.3,3.2 5.5,0 10.7,-0.8 15.6,-2.4 4.8,-1.6 9,-3.8 12.6,-6.5 v -22 h -29.9 v -17.9 h 49.8 v 49.1 c -2.9,2.4 -6.1,4.8 -9.6,7 -3.5,2.2 -7.3,4.2 -11.4,5.9 -4.1,1.7 -8.4,3 -13.1,3.9 -5,1 -9.9,1.4 -15,1.4 z M 1372,80.7 h 43.6 c 9.1,0 17.5,1.5 25.1,4.4 7.6,2.9 14.2,7 19.7,12.3 5.5,5.2 9.8,11.4 12.8,18.5 3,7.1 4.5,14.7 4.5,23 v 0.3 c 0,8.2 -1.5,15.9 -4.5,23.1 -3,7.1 -7.3,13.3 -12.8,18.5 -5.5,5.2 -12.1,9.4 -19.7,12.4 -7.6,3 -16,4.5 -25.1,4.5 H 1372 Z m 43.4,98.4 c 6.1,0 11.7,-1 16.7,-2.9 5,-2 9.3,-4.7 12.8,-8.2 3.5,-3.5 6.2,-7.7 8.2,-12.6 1.9,-4.8 2.9,-10.1 2.9,-15.8 v -0.3 c 0,-5.7 -1,-11 -2.9,-15.9 -1.9,-4.9 -4.7,-9.2 -8.2,-12.7 -3.5,-3.5 -7.8,-6.3 -12.8,-8.3 -5,-2 -10.6,-3 -16.7,-3 h -23.1 v 79.9 h 23.1 z M 1190.8,80.7 h 86.5 v 18.5 h -66.2 v 30.1 h 58.6 v 18.5 h -58.6 V 179 h 67 v 18.6 h -87.4 V 80.7 Z M 105.4,141.5 c 7.8,0 14,-1.9 18.5,-5.9 4.5,-3.9 6.8,-8.9 6.8,-15.1 v -0.3 c 0,-6.9 -2.3,-12.2 -6.9,-15.7 -4.6,-3.5 -10.7,-5.3 -18.4,-5.3 h -24 v 42.3 z M 61,80.7 h 46.1 c 6.8,0 13,0.9 18.5,2.8 5.5,1.8 10.2,4.5 14,7.9 3.8,3.5 6.8,7.6 8.9,12.4 2.1,4.8 3.1,10.1 3.1,16 v 0.3 c 0,6.6 -1.2,12.3 -3.7,17.3 -2.5,5 -5.8,9.1 -10.1,12.4 -4.3,3.3 -9.2,5.9 -14.9,7.6 -5.7,1.7 -11.8,2.6 -18.3,2.6 H 81.4 v 37.6 H 61 Z m 176.5,0 h 20.4 v 117 h -20.4 z m 105.5,0 h 22.7 l 35.3,89.9 35.1,-89.9 h 22.2 l -48.6,117.8 h -18 z m 255.2,100.1 c 5.8,0 11.1,-1.1 15.9,-3.3 4.8,-2.2 8.9,-5.1 12.4,-8.9 3.4,-3.7 6.1,-8.1 8,-13.1 1.9,-5 2.9,-10.4 2.9,-16 v -0.3 c 0,-5.7 -1,-11.1 -2.9,-16.1 -1.9,-5.1 -4.6,-9.5 -8.1,-13.2 -3.5,-3.7 -7.7,-6.7 -12.6,-8.9 -4.9,-2.2 -10.2,-3.3 -16,-3.3 -5.8,0 -11.1,1.1 -15.9,3.3 -4.8,2.2 -8.9,5.1 -12.4,8.9 -3.4,3.7 -6.1,8.1 -8,13.1 -2,5 -2.9,10.4 -2.9,16 v 0.3 c 0,5.7 1,11.1 2.9,16.1 1.9,5.1 4.7,9.5 8.1,13.2 3.5,3.7 7.7,6.7 12.6,8.9 5,2.1 10.3,3.3 16,3.3 z m -0.3,18.8 c -9,0 -17.3,-1.6 -24.7,-4.8 -7.5,-3.2 -13.9,-7.5 -19.2,-12.9 -5.3,-5.5 -9.5,-11.8 -12.5,-19.1 -3,-7.3 -4.5,-15.1 -4.5,-23.3 v -0.3 c 0,-8.2 1.5,-16 4.5,-23.3 3,-7.3 7.2,-13.7 12.7,-19.2 5.5,-5.5 11.9,-9.9 19.4,-13.1 7.5,-3.2 15.7,-4.8 24.7,-4.8 9,0 17.3,1.6 24.7,4.8 7.5,3.2 13.9,7.5 19.2,12.9 5.3,5.5 9.5,11.8 12.5,19.1 3,7.3 4.5,15.1 4.5,23.3 v 0.3 c 0,8.2 -1.5,16 -4.5,23.3 -3,7.3 -7.2,13.7 -12.7,19.2 -5.5,5.5 -11.9,9.9 -19.4,13.1 -7.4,3.2 -15.7,4.8 -24.7,4.8 z M 776.6,99.7 h -37.1 v -19 h 94.9 v 19 h -37.1 v 97.9 h -20.7 z"
   id="path185" />
	<path
   class="st1"
   d="m 1023,80.7 v 30 c 0,9.9 8.2,18.1 18.1,18.1 h 30 v 20.8 h -30 c -21.4,0 -38.9,-17.5 -38.9,-38.9 v -30 z"
   id="path187" />
	<path
   class="st2"
   d="m 1002.2,197.6 v -30 c 0,-9.9 -8.2,-18.1 -18.1,-18.1 h -30 v -20.8 h 30 c 21.4,0 38.9,17.5 38.9,38.9 v 30 z"
   id="path189" />
</g>
</svg>
