<?xml version="1.0" encoding="utf-8"?>
<!-- Generator: Adobe Illustrator 26.3.1, SVG Export Plug-In . SVG Version: 6.00 Build 0)  -->
<svg version="1.1" id="Layer_1" xmlns="http://www.w3.org/2000/svg" xmlns:xlink="http://www.w3.org/1999/xlink" x="0px" y="0px"
	 viewBox="0 0 1920 273" style="enable-background:new 0 0 1920 273;" xml:space="preserve">
<style type="text/css">
	.st0{fill-rule:evenodd;clip-rule:evenodd;}
	.st1{fill-rule:evenodd;clip-rule:evenodd;fill:#00C9FF;}
	.st2{fill-rule:evenodd;clip-rule:evenodd;fill:#0084FF;}
	.st3{fill-rule:evenodd;clip-rule:evenodd;fill:#FFFFFF;}
</style>
<g>
	<path class="st0" d="M1755.6,80.7h86.6v18.5H1776v30.1h58.6v18.5H1776v31.2h67v18.6h-87.4V80.7L1755.6,80.7z M1616.4,199.6
		c-9.1,0-17.4-1.5-24.9-4.6c-7.5-3.1-13.8-7.3-19.1-12.7c-5.3-5.4-9.4-11.8-12.3-19c-2.9-7.3-4.3-15.2-4.3-23.8v-0.3
		c0-8.1,1.5-15.9,4.5-23.2c3-7.4,7.2-13.8,12.5-19.3c5.4-5.5,11.8-9.9,19.2-13.1c7.4-3.2,15.5-4.8,24.3-4.8c5.1,0,9.8,0.4,14,1.1
		c4.2,0.7,8,1.8,11.6,3.1c3.6,1.3,6.9,3,10.1,4.9c3.2,1.9,6.3,4.2,9.3,6.8l-13,15.5c-2.2-1.9-4.5-3.6-6.8-5.2
		c-2.3-1.6-4.8-2.9-7.4-3.9c-2.6-1.1-5.4-1.9-8.4-2.5c-3.1-0.6-6.4-0.9-10.1-0.9c-5.3,0-10.3,1.1-15,3.3c-4.6,2.2-8.6,5.2-12,9
		c-3.4,3.7-6.1,8.1-8,13.1c-1.9,5-2.9,10.3-2.9,15.9v0.3c0,6,0.9,11.6,2.8,16.7c1.9,5.2,4.6,9.6,8.1,13.2c3.5,3.7,7.7,6.6,12.5,8.7
		c4.8,2.1,10.3,3.2,16.3,3.2c5.5,0,10.7-0.8,15.6-2.4c4.8-1.6,9-3.8,12.6-6.5v-22h-29.9v-17.9h49.8v49.1c-2.9,2.4-6.1,4.8-9.6,7
		c-3.5,2.2-7.3,4.2-11.4,5.9c-4.1,1.7-8.4,3-13.1,3.9C1626.4,199.2,1621.5,199.6,1616.4,199.6L1616.4,199.6z M1372,80.7h43.6
		c9.1,0,17.5,1.5,25.1,4.4c7.6,2.9,14.2,7,19.7,12.3c5.5,5.2,9.8,11.4,12.8,18.5c3,7.1,4.5,14.7,4.5,23v0.3c0,8.2-1.5,15.9-4.5,23.1
		c-3,7.1-7.3,13.3-12.8,18.5c-5.5,5.2-12.1,9.4-19.7,12.4c-7.6,3-16,4.5-25.1,4.5H1372V80.7L1372,80.7z M1415.4,179.1
		c6.1,0,11.7-1,16.7-2.9c5-2,9.3-4.7,12.8-8.2c3.5-3.5,6.2-7.7,8.2-12.6c1.9-4.8,2.9-10.1,2.9-15.8v-0.3c0-5.7-1-11-2.9-15.9
		c-1.9-4.9-4.7-9.2-8.2-12.7c-3.5-3.5-7.8-6.3-12.8-8.3c-5-2-10.6-3-16.7-3h-23.1v79.9H1415.4L1415.4,179.1z M1190.8,80.7h86.5v18.5
		h-66.2v30.1h58.6v18.5h-58.6v31.2h67v18.6h-87.4V80.7L1190.8,80.7z M105.4,141.5c7.8,0,14-1.9,18.5-5.9c4.5-3.9,6.8-8.9,6.8-15.1
		v-0.3c0-6.9-2.3-12.2-6.9-15.7c-4.6-3.5-10.7-5.3-18.4-5.3h-24v42.3H105.4L105.4,141.5z M61,80.7h46.1c6.8,0,13,0.9,18.5,2.8
		c5.5,1.8,10.2,4.5,14,7.9c3.8,3.5,6.8,7.6,8.9,12.4c2.1,4.8,3.1,10.1,3.1,16v0.3c0,6.6-1.2,12.3-3.7,17.3c-2.5,5-5.8,9.1-10.1,12.4
		c-4.3,3.3-9.2,5.9-14.9,7.6c-5.7,1.7-11.8,2.6-18.3,2.6H81.4v37.6H61V80.7L61,80.7z M237.5,80.7h20.4v117h-20.4V80.7L237.5,80.7z
		 M343,80.7h22.7l35.3,89.9l35.1-89.9h22.2l-48.6,117.8h-18L343,80.7L343,80.7z M598.2,180.8c5.8,0,11.1-1.1,15.9-3.3
		c4.8-2.2,8.9-5.1,12.4-8.9c3.4-3.7,6.1-8.1,8-13.1c1.9-5,2.9-10.4,2.9-16v-0.3c0-5.7-1-11.1-2.9-16.1c-1.9-5.1-4.6-9.5-8.1-13.2
		c-3.5-3.7-7.7-6.7-12.6-8.9c-4.9-2.2-10.2-3.3-16-3.3c-5.8,0-11.1,1.1-15.9,3.3c-4.8,2.2-8.9,5.1-12.4,8.9c-3.4,3.7-6.1,8.1-8,13.1
		c-2,5-2.9,10.4-2.9,16v0.3c0,5.7,1,11.1,2.9,16.1c1.9,5.1,4.7,9.5,8.1,13.2c3.5,3.7,7.7,6.7,12.6,8.9
		C587.2,179.6,592.5,180.8,598.2,180.8L598.2,180.8z M597.9,199.6c-9,0-17.3-1.6-24.7-4.8c-7.5-3.2-13.9-7.5-19.2-12.9
		c-5.3-5.5-9.5-11.8-12.5-19.1c-3-7.3-4.5-15.1-4.5-23.3v-0.3c0-8.2,1.5-16,4.5-23.3c3-7.3,7.2-13.7,12.7-19.2
		c5.5-5.5,11.9-9.9,19.4-13.1c7.5-3.2,15.7-4.8,24.7-4.8c9,0,17.3,1.6,24.7,4.8c7.5,3.2,13.9,7.5,19.2,12.9
		c5.3,5.5,9.5,11.8,12.5,19.1c3,7.3,4.5,15.1,4.5,23.3v0.3c0,8.2-1.5,16-4.5,23.3c-3,7.3-7.2,13.7-12.7,19.2
		c-5.5,5.5-11.9,9.9-19.4,13.1C615.2,198,606.9,199.6,597.9,199.6L597.9,199.6z M776.6,99.7h-37.1v-19h94.9v19h-37.1v97.9h-20.7
		V99.7z"/>
	<path class="st1" d="M1023,80.7v30c0,9.9,8.2,18.1,18.1,18.1h30v20.8h-30c-21.4,0-38.9-17.5-38.9-38.9v-30H1023z"/>
	<path class="st2" d="M1002.2,197.6v-30c0-9.9-8.2-18.1-18.1-18.1h-30v-20.8h30c21.4,0,38.9,17.5,38.9,38.9v30H1002.2z"/>
</g>
</svg>
