<?xml version="1.0" encoding="UTF-8"?>
<!-- Generator: Adobe Illustrator 25.3.0, SVG Export Plug-In . SVG Version: 6.00 Build 0)  -->
<svg version="1.1" id="Layer_1" xmlns="http://www.w3.org/2000/svg" xmlns:xlink="http://www.w3.org/1999/xlink" x="0px" y="0px" viewBox="0 0 1517.1 431" style="enable-background:new 0 0 1517.1 431;" xml:space="preserve">
<style type="text/css">
	.st0{fill:#D11F30;}
	.st1{fill:#414042;}
	.st2{fill:#58595B;}
	.st3{fill:#A7A9AC;}
	.st4{font-family:'Roboto-Medium';}
	.st5{font-size:58px;}
	.st6{letter-spacing:1;}
	.st7{font-size:24px;}
	.st8{font-family:'Roboto-Regular';}
	.st9{font-size:57px;}
	.st10{letter-spacing:15;}
</style>
<g>
	<g>
		<g>
			<g>
				<path class="st0" d="M1423.5,149.8c3.6-3.2,6.8-6.8,9.4-10.8l53.6-74.6h-35.9l-41.6,57.8l-0.4,0.5c-4.6,7.1-12.5,11.4-21,11.4      h-19.9V64.4h-29.2v165.2h29.2v-66.3h19.9c2.6,0,5.3-0.2,8-0.6l62.1,66.9h39.8L1423.5,149.8z"/>
				<path class="st0" d="M1317.6,117.9c0-29.4-23.9-53.4-53.4-53.4h-78.9c-8,0-14.6,6.5-14.6,14.6v150.4h29.2v-58.3h47.9l45.4,58.3      h37l-47.9-61.4C1303.5,160.5,1317.6,140.6,1317.6,117.9z M1288.4,117.9c0,13.3-10.9,24.2-24.2,24.2h-64.3V93.7h64.3      C1277.5,93.7,1288.4,104.6,1288.4,117.9z"/>
				<path class="st0" d="M599,117.9c0-29.4-23.9-53.4-53.4-53.4h-78.9c-8,0-14.6,6.5-14.6,14.6v150.4h29.2v-58.3h47.9l45.4,58.3h37      l-47.9-61.4C584.9,160.5,599,140.6,599,117.9z M569.9,117.9c0,13.3-10.9,24.2-24.2,24.2h-64.3V93.7h64.3      C559,93.7,569.9,104.6,569.9,117.9z"/>
				<path class="st0" d="M386.1,64.5h-78.9c-8,0-14.6,6.5-14.6,14.6v150.4h29.2v-58.3h64.3c29.4,0,53.4-23.9,53.4-53.4      C439.5,88.5,415.5,64.5,386.1,64.5z M410.3,117.9c0,13.3-10.9,24.2-24.2,24.2h-64.3V93.7h64.3      C399.4,93.7,410.3,104.6,410.3,117.9z"/>
				<path class="st0" d="M688,64.5c-44.8,0-81.3,36.5-81.3,81.3v1.8c0,44.8,36.5,81.3,81.3,81.3c44.8,0,81.3-36.5,81.3-81.3v-1.8      C769.3,101,732.9,64.5,688,64.5z M740.2,145.8v1.8c0,28.7-23.4,52.1-52.1,52.1s-52.1-23.4-52.1-52.1v-1.8      c0-28.7,23.4-52.1,52.1-52.1S740.2,117.1,740.2,145.8z"/>
				<path class="st0" d="M953.9,66.5L953.9,66.5c-5.8-2.1-12.3-0.2-16.2,4.5l-63.5,77.8l-68.8-78.2c-4-4.5-10.5-6.1-16.1-4      c-5.6,2.1-9.4,7.6-9.4,13.6v149.3H809V118.9l54.6,62.1c2.8,3.1,6.8,5,11,5l0.3,0c4.3-0.1,8.3-2,11-5.4l48.5-59.5v108.4h29.2      V80.3C963.6,74.1,959.7,68.6,953.9,66.5z"/>
				<path class="st0" d="M1065.9,65.2L1065.9,65.2c-5.5,0-10.4,3-12.9,7.8l-81.6,156.5h32.9l16.3-31.3h91.3l16.5,31.3h33L1078.8,73      C1076.3,68.2,1071.4,65.2,1065.9,65.2z M1096.6,169.1h-60.8l30.2-57.9L1096.6,169.1z"/>
			</g>
			<g>
				<path class="st1" d="M165.9,41.9c-19.6-3.5-39.7-1.5-58.1,5.8c-1.3,0.5-2.4,1.5-3,2.9c-0.6,1.3-0.6,2.8-0.1,4.1      c0.5,1.3,1.5,2.4,2.9,3c1.3,0.6,2.8,0.6,4.1,0.1c16.6-6.6,34.6-8.4,52.2-5.2c52.1,9.4,86.9,59.4,77.5,111.5      c-9.4,52.1-59.4,86.9-111.5,77.5c-2.9-0.5-5.7,1.4-6.2,4.3c-0.3,1.4,0.1,2.8,0.9,4c0.8,1.2,2,2,3.5,2.2      c6.2,1.1,12.6,1.7,18.9,1.7c24.7,0,48.9-8.7,68-24.6c19.4-16.1,32.5-38.5,37-63.3C262.5,107.9,223.8,52.3,165.9,41.9z"/>
				<path class="st1" d="M147,283.3c-75.1,0-136.3-61.1-136.3-136.3C10.7,71.9,71.9,10.7,147,10.7c24.3,0,48.1,6.4,68.9,18.7      c1.2,0.7,2.7,0.9,4.1,0.6c1.4-0.4,2.6-1.2,3.3-2.5c0.7-1.2,0.9-2.7,0.6-4.1c-0.4-1.4-1.2-2.6-2.5-3.3C198.8,7,173.2,0,147,0      C65.9,0,0,65.9,0,147C0,228,65.9,294,147,294c3,0,5.4-2.4,5.4-5.4C152.4,285.7,150,283.3,147,283.3z"/>
			</g>
			<path class="st0" d="M264.5,99.1c-19.6-48-65.7-79-117.5-79C77,20.1,20.1,77,20.1,147c0,70,56.9,126.9,126.9,126.9     c23.7,0,46.7-6.6,66.8-19c2.5-1.6,3.3-4.9,1.7-7.4c-0.8-1.2-1.9-2.1-3.3-2.4c-1.4-0.3-2.8-0.1-4.1,0.7     c-18.3,11.4-39.4,17.4-61.1,17.4C83,263.1,30.9,211,30.9,147C30.9,83,83,30.9,147,30.9c47.4,0,89.7,28.4,107.6,72.3     c0.5,1.3,1.6,2.4,2.9,2.9c1.3,0.6,2.8,0.6,4.1,0c1.3-0.5,2.4-1.6,2.9-2.9C265,101.9,265.1,100.4,264.5,99.1z"/>
			<g>
				<path class="st0" d="M165.4,104.2c-4.3,4.3-4.3,11.3,0,15.6c4.3,4.3,11.3,4.3,15.6,0c4.3-4.3,4.3-11.3,0-15.6      C176.7,99.9,169.7,99.9,165.4,104.2z"/>
				<path class="st0" d="M95.4,104.2c-4.3,4.3-4.3,11.3,0,15.6c4.3,4.3,11.3,4.3,15.6,0c4.3-4.3,4.3-11.3,0-15.6      C106.7,99.9,99.7,99.9,95.4,104.2z"/>
				<path class="st0" d="M165.4,174.2c-4.3,4.3-4.3,11.3,0,15.6c4.3,4.3,11.3,4.3,15.6,0c4.3-4.3,4.3-11.3,0-15.6      C176.7,169.9,169.7,169.9,165.4,174.2z"/>
				<path class="st2" d="M193.3,107.1c-2.7,2.7-2.7,7.1,0,9.9c2.7,2.7,7.1,2.7,9.9,0c2.7-2.7,2.7-7.1,0-9.9      C200.5,104.3,196,104.3,193.3,107.1z"/>
				<path class="st2" d="M193.3,177.1c-2.7,2.7-2.7,7.1,0,9.9c2.7,2.7,7.1,2.7,9.9,0c2.7-2.7,2.7-7.1,0-9.9      C200.5,174.3,196,174.3,193.3,177.1z"/>
				<path class="st2" d="M73.3,107.1c-2.7,2.7-2.7,7.1,0,9.9c2.7,2.7,7.1,2.7,9.9,0c2.7-2.7,2.7-7.1,0-9.9      C80.4,104.3,76,104.3,73.3,107.1z"/>
				<path class="st2" d="M73.3,177.1c-2.7,2.7-2.7,7.1,0,9.9c2.7,2.7,7.1,2.7,9.9,0c2.7-2.7,2.7-7.1,0-9.9      C80.4,174.3,76,174.3,73.3,177.1z"/>
				<path class="st2" d="M197.3,142.1c-2.7,2.7-2.7,7.1,0,9.9c2.7,2.7,7.1,2.7,9.9,0c2.7-2.7,2.7-7.1,0-9.9      C204.5,139.3,200,139.3,197.3,142.1z"/>
				<path class="st2" d="M69.3,142.1c-2.7,2.7-2.7,7.1,0,9.9c2.7,2.7,7.1,2.7,9.9,0c2.7-2.7,2.7-7.1,0-9.9      C76.4,139.3,72,139.3,69.3,142.1z"/>
				<path class="st2" d="M178.2,202.1c-2.7-2.7-7.1-2.7-9.9,0c-2.7,2.7-2.7,7.1,0,9.9c2.7,2.7,7.1,2.7,9.9,0      C180.9,209.2,180.9,204.8,178.2,202.1z"/>
				<path class="st2" d="M108.2,202.1c-2.7-2.7-7.1-2.7-9.9,0c-2.7,2.7-2.7,7.1,0,9.9c2.7,2.7,7.1,2.7,9.9,0      C110.9,209.2,110.9,204.8,108.2,202.1z"/>
				<path class="st2" d="M178.2,82c-2.7-2.7-7.1-2.7-9.9,0c-2.7,2.7-2.7,7.1,0,9.9c2.7,2.7,7.1,2.7,9.9,0      C180.9,89.2,180.9,84.8,178.2,82z"/>
				<path class="st2" d="M108.2,82c-2.7-2.7-7.1-2.7-9.9,0c-2.7,2.7-2.7,7.1,0,9.9c2.7,2.7,7.1,2.7,9.9,0      C110.9,89.2,110.9,84.8,108.2,82z"/>
				<path class="st2" d="M143.2,206.1c-2.7-2.7-7.1-2.7-9.9,0c-2.7,2.7-2.7,7.1,0,9.9c2.7,2.7,7.1,2.7,9.9,0      C145.9,213.2,145.9,208.8,143.2,206.1z"/>
				<path class="st2" d="M143.2,78c-2.7-2.7-7.1-2.7-9.9,0c-2.7,2.7-2.7,7.1,0,9.9c2.7,2.7,7.1,2.7,9.9,0      C145.9,85.2,145.9,80.8,143.2,78z"/>
				<path class="st0" d="M95.4,174.2c-4.3,4.3-4.3,11.3,0,15.6c4.3,4.3,11.3,4.3,15.6,0c4.3-4.3,4.3-11.3,0-15.6      C106.7,169.9,99.7,169.9,95.4,174.2z"/>
			</g>
			<g>
				<path class="st3" d="M162.3,136c-6.1,6.1-6.1,15.9,0,21.9c6.1,6.1,15.9,6.1,21.9,0c6.1-6.1,6.1-15.9,0-21.9      C178.1,130,168.3,130,162.3,136z"/>
				<path class="st3" d="M92.3,136c-6.1,6.1-6.1,15.9,0,21.9c6.1,6.1,15.9,6.1,21.9,0c6.1-6.1,6.1-15.9,0-21.9      C108.1,130,98.3,130,92.3,136z"/>
				<path class="st3" d="M149.2,171c-6.1-6.1-15.9-6.1-21.9,0c-6.1,6.1-6.1,15.9,0,21.9c6.1,6.1,15.9,6.1,21.9,0      C155.3,186.9,155.3,177.1,149.2,171z"/>
				<path class="st3" d="M149.2,101c-6.1-6.1-15.9-6.1-21.9,0c-6.1,6.1-6.1,15.9,0,21.9c6.1,6.1,15.9,6.1,21.9,0      C155.3,116.9,155.3,107.1,149.2,101z"/>
			</g>
			<g>
				<rect x="945.5" y="254.4" class="st3" width="4.6" height="50.4"/>
			</g>
		</g>
	</g>
	<text transform="matrix(1 0 0 1 517.8707 415.2969)" class="st1 st4 st5 st6">Electrical Components International</text>
	<text transform="matrix(1 0 0 1 292.5796 391.9581)"><tspan x="0" y="0" class="st1 st4 st7 st6">UNE DIVISION DE</tspan><tspan x="0" y="25" class="st1 st4 st7 st6">A DIVISION OF</tspan></text>
	<rect x="290.5" y="342.6" class="st3" width="1207.1" height="4.6"/>
	<text transform="matrix(1 0 0 1 287.5756 301.8428)" class="st1 st8 st9 st10">ÉLECTRONIQUES  ELECTRONICS</text>
</g>
</svg>