<svg xmlns="http://www.w3.org/2000/svg" width="2480" height="1800" viewBox="0 0 2480 1800">
  <defs>
    <style>
      .cls-1 {
        fill: #000087;
      }

      .cls-2 {
        fill: #fff;
      }

      .cls-2, .cls-3 {
        fill-rule: evenodd;
      }

      .cls-3 {
        fill: #030985;
      }
    </style>
  </defs>
  <rect class="cls-1" x="13.531" y="271.563" width="1203.629" height="1203.657"/>
  <rect class="cls-1" x="867.531" y="576.719" width="642.059" height="627.251"/>
  <rect class="cls-1" x="1259.56" y="271.563" width="1203.63" height="1203.657"/>
  <path id="R" class="cls-2" d="M400.461,967.55c0,85.29,0,158.53-4.635,197.47-3.709,26.89-8.344,47.29-26.886,50.99a150.927,150.927,0,0,1-33.376,3.71c-11.125,0-14.833,2.78-14.833,7.42,0,6.49,6.489,9.27,18.542,9.27,37.084,0,95.492-2.78,113.107-2.78,13.906,0,82.512,2.78,136.284,2.78,12.051,0,18.541-2.78,18.541-9.27,0-4.64-3.708-7.42-11.125-7.42-11.125,0-31.522-1.85-45.428-3.71-27.813-3.7-33.376-24.1-36.157-50.99-4.636-38.94-4.636-112.18-4.636-198.4V953.644c0-5.563,2.782-7.417,7.417-7.417l80.658,1.854c6.49,0,12.052.927,16.688,6.49,12.052,13.906,54.7,76.949,91.783,127.939,51.918,71.39,87.147,114.96,127.013,136.28,24.1,12.98,47.282,17.62,99.2,17.62h88.072c11.13,0,17.62-1.85,17.62-9.27,0-4.64-3.71-7.42-11.13-7.42a146.533,146.533,0,0,1-25.96-2.78c-13.9-2.78-51.915-9.27-103.832-63.04-54.7-57.48-118.669-139.99-201.181-243.83C789.844,834.048,818.584,771.005,818.584,702.4c0-62.115-37.084-109.4-63.043-127.013-50.063-34.3-112.179-39.865-170.586-39.865-28.74,0-99.2,2.779-130.721,2.779-19.469,0-77.877-2.781-127.013-2.781-13.907,0-20.4,1.856-20.4,8.346s5.563,8.344,15.761,8.344c12.979,0,28.74.927,36.157,2.781,30.594,6.49,38.011,21.324,39.865,52.845,1.854,29.667,1.854,55.626,1.854,196.545V967.55Zm109.4-371.767c0-7.417,1.855-11.126,8.344-12.98,9.271-2.781,25.959-3.708,49.137-3.708,54.7,0,141.846,38.011,141.846,169.659,0,76.023-26.886,118.669-54.7,139.066-16.688,12.052-28.74,15.76-65.824,15.76-23.178,0-50.991-2.781-70.46-9.271-6.489-2.781-8.344-6.489-8.344-16.688V595.783Z"/>
  <path id="D" class="cls-2" d="M1583.77,969.669c0,85.291,0,158.531-4.63,197.471-3.71,26.89-8.35,47.28-26.89,50.99a150.889,150.889,0,0,1-33.37,3.71c-11.13,0-14.84,2.78-14.84,7.42,0,6.49,6.49,9.27,18.55,9.27,18.54,0,42.64-1.86,63.97-1.86,22.25-.92,42.64-0.92,52.84-0.92,23.18,0,55.63,2.78,90.86,5.56s73.24,5.56,106.61,5.56c171.52,0,267.93-65.82,310.58-109.4,51.92-52.84,101.06-141.842,101.06-258.657,0-110.325-43.58-187.274-89.93-235.483-101.06-105.69-255.88-105.69-371.77-105.69-55.63,0-114.03,2.779-142.77,2.779-25.96,0-84.37-2.781-133.51-2.781-13.9,0-20.39,1.856-20.39,8.346s5.56,8.344,15.76,8.344c12.98,0,28.74.927,36.15,2.781,30.6,6.49,38.02,21.324,39.87,52.845,1.85,29.667,1.85,55.626,1.85,196.546V969.669Zm115.89-178c0-73.241,0-153.9.93-185.42,0-10.2,2.78-14.834,11.12-18.542,7.42-3.709,41.72-6.49,60.27-6.49,72.31,0,178,11.125,263.29,92.71,39.87,38.011,89,114.034,89,231.775,0,95.491-18.54,179.861-77.87,230.851-55.63,48.21-118.67,66.75-213.24,66.75-73.24,0-109.39-19.47-121.45-37.09-7.41-10.19-9.27-47.28-10.19-70.45-0.93-17.62-1.86-89.01-1.86-187.279V791.666Z"/>
  <path id="PARTENAIRES" class="cls-3" d="M63.652,132.382c0,23.557,0,43.786-1.28,54.54-1.024,7.426-2.3,13.059-7.426,14.084a41.8,41.8,0,0,1-9.218,1.024c-3.073,0-4.1.768-4.1,2.048,0,1.793,1.793,2.561,5.121,2.561,10.242,0,26.374-.768,32.263-0.768,6.657,0,22.79.768,39.689,0.768,2.817,0,4.866-.768,4.866-2.561,0-1.28-1.281-2.048-4.1-2.048a107.908,107.908,0,0,1-13.059-1.024c-7.682-1.025-9.219-6.658-9.987-13.827-1.28-11.011-1.28-31.24-1.28-54.8V29.958c0-2.817.768-4.353,2.048-4.865,2.3-.768,6.145-1.024,9.987-1.024a38.039,38.039,0,0,1,25.606,9.986c14.339,12.8,15.107,29.959,15.107,38.409,0,26.118-19.972,42.25-34.312,42.25-5.377,0-7.169.768-7.169,2.817,0,1.792,1.792,2.048,3.072,2.3a37.836,37.836,0,0,0,5.378.256c36.36,0,62.99-25.606,62.99-61.966a44.487,44.487,0,0,0-12.8-30.471c-4.1-3.841-15.62-14.6-47.627-14.6-11.779,0-26.63.768-37.128,0.768-7.169,0-23.3-.768-36.872-0.768-3.841,0-5.633.512-5.633,2.3s1.536,2.3,4.353,2.3a52.667,52.667,0,0,1,9.986.768c8.45,1.792,10.5,5.889,11.011,14.6,0.512,8.194.512,15.364,0.512,54.285v45.066Zm286.271,7.426a2.464,2.464,0,0,1,2.561,1.792l20.485,54.285c1.28,3.072-.512,5.377-2.305,5.889-2.56.256-3.585,0.768-3.585,2.3,0,1.793,3.073,1.793,7.682,2.049,20.485,0.512,39.177.512,48.395,0.512,9.474,0,11.779-.512,11.779-2.561,0-1.792-1.28-2.048-3.329-2.048a56.174,56.174,0,0,1-10.754-1.024c-5.378-1.281-12.8-4.865-22.533-27.911-16.388-38.921-57.358-143.393-63.5-157.476-2.561-5.889-4.1-8.194-6.4-8.194-2.56,0-4.1,2.817-7.169,10.242L256.974,178.473c-5.121,12.8-9.986,21.508-21.765,23.045a77.55,77.55,0,0,1-7.938.512c-2.048,0-3.072.512-3.072,2.048,0,2.049,1.536,2.561,4.865,2.561,13.315,0,27.4-.768,30.215-0.768,7.937,0,18.948.768,27.142,0.768,2.816,0,4.353-.512,4.353-2.561,0-1.536-.768-2.048-3.841-2.048h-3.841c-7.938,0-10.242-3.329-10.242-7.938,0-3.073,1.28-9.218,3.841-15.619l13.827-36.617c0.512-1.536,1.024-2.048,2.3-2.048h57.1Zm-51.98-12.8c-1.024,0-1.28-.768-1.024-1.793l23.558-62.99c0.256-1.024.768-2.3,1.536-2.3s1.024,1.28,1.28,2.3l23.046,63.246c0.256,0.769,0,1.537-1.281,1.537H297.943Zm215.087,5.377c0,23.557,0,43.786-1.28,54.54-1.024,7.426-2.305,13.059-7.426,14.084a41.789,41.789,0,0,1-9.218,1.024c-3.073,0-4.1.768-4.1,2.048,0,1.793,1.793,2.561,5.121,2.561,10.243,0,26.374-.768,31.239-0.768,3.841,0,22.79.768,37.641,0.768,3.329,0,5.121-.768,5.121-2.561,0-1.28-1.024-2.048-3.073-2.048a117.773,117.773,0,0,1-12.546-1.024c-7.682-1.025-9.218-6.658-9.987-14.084-1.28-10.754-1.28-30.983-1.28-54.8v-3.585a1.776,1.776,0,0,1,2.049-2.048l22.277,0.512c1.792,0,3.328.256,4.609,1.792,3.328,3.841,15.107,21.253,25.35,35.336,14.339,19.717,24.069,31.752,35.08,37.641,6.657,3.585,13.059,4.865,27.4,4.865h24.325c3.073,0,4.866-.512,4.866-2.561,0-1.28-1.025-2.048-3.073-2.048a40.352,40.352,0,0,1-7.17-.768c-3.841-.768-14.339-2.561-28.678-17.412-15.108-15.876-32.776-38.665-55.565-67.344,25.862-21,33.8-38.408,33.8-57.357,0-17.156-10.243-30.215-17.412-35.08-13.828-9.474-30.983-11.01-47.115-11.01-7.938,0-27.4.768-36.105,0.768-5.377,0-21.508-.768-35.079-0.768-3.841,0-5.634.512-5.634,2.3s1.537,2.3,4.353,2.3a52.658,52.658,0,0,1,9.986.768c8.45,1.792,10.5,5.889,11.011,14.6,0.512,8.194.512,15.364,0.512,54.285v45.066ZM543.245,29.7c0-2.049.512-3.073,2.3-3.585,2.56-.768,7.169-1.024,13.571-1.024,15.107,0,39.177,10.5,39.177,46.859,0,21-7.426,32.776-15.108,38.409-4.609,3.329-7.938,4.353-18.18,4.353-6.4,0-14.083-.768-19.46-2.561-1.793-.768-2.3-1.792-2.3-4.609V29.7Zm248.372,102.68c0,23.557,0,43.786-1.28,54.54-0.768,7.426-2.3,13.059-7.426,14.084a41.789,41.789,0,0,1-9.218,1.024c-3.072,0-4.1.768-4.1,2.048,0,1.793,1.793,2.561,5.121,2.561,10.243,0,26.374-.768,32.264-0.768,7.169,0,23.3.768,40.2,0.768,2.817,0,4.865-.768,4.865-2.561,0-1.28-1.28-2.048-4.1-2.048a107.908,107.908,0,0,1-13.059-1.024c-7.681-1.025-9.218-6.658-9.986-13.827-1.28-11.011-1.28-31.24-1.28-54.8V27.4l32.263,0.768c22.789,0.512,29.7,7.682,30.215,14.339l0.256,2.817c0.256,3.841.768,5.121,2.817,5.121,1.536,0,2.048-1.536,2.3-4.1,0-6.658.768-24.326,0.768-29.7,0-3.841-.256-5.377-2.048-5.377a61.486,61.486,0,0,0-6.914,1.28,122.689,122.689,0,0,1-17.668,1.28h-101.4c-8.45,0-18.18-.512-25.606-1.28-6.4-.512-8.962-3.073-11.01-3.073-1.537,0-2.3,1.536-3.073,4.865-0.512,2.048-5.377,25.35-5.377,29.447,0,2.817.512,4.1,2.3,4.1,1.537,0,2.3-1.024,2.817-3.073a30.318,30.318,0,0,1,4.353-8.962c3.841-5.633,9.986-6.914,24.838-7.426L791.617,27.4V132.382Zm198.954,0c0,23.557,0,43.786-1.281,54.54-1.024,7.426-2.3,13.059-7.425,14.084a41.8,41.8,0,0,1-9.218,1.024c-3.073,0-4.1.768-4.1,2.048,0,1.793,1.792,2.561,5.121,2.561,5.121,0,11.779-.512,17.668-0.512,6.145-.256,11.781-0.256,14.591-0.256,7.69,0,15.62.256,26.63,0.768,11.01,0.256,25.1.768,44.3,0.768,9.73,0,12.04,0,13.83-6.657,1.28-5.122,3.33-22.534,3.33-28.423,0-2.56,0-4.609-2.05-4.609-1.79,0-2.3,1.024-2.82,3.841-1.79,10.5-4.86,15.876-11.52,18.948s-17.41,3.073-24.07,3.073c-26.12,0-30.21-3.841-30.73-21.509-0.25-7.426,0-30.983,0-39.689V112.153c0-1.536.26-2.56,1.54-2.56,6.15,0,31.5.256,36.36,0.768,9.48,1.024,13.06,4.865,14.34,9.986a66.115,66.115,0,0,1,1.02,9.218,2.035,2.035,0,0,0,2.31,2.305c2.3,0,2.3-2.817,2.3-4.865,0-1.793.77-12.035,1.03-17.156,1.02-13.059,2.05-17.156,2.05-18.693s-0.77-2.048-1.8-2.048c-1.28,0-2.3,1.28-4.09,3.329-2.31,2.561-6.15,3.329-12.29,3.841-5.89.512-35.34,0.512-40.97,0.512-1.54,0-1.8-1.024-1.8-2.817V29.19c0-1.792.52-2.561,1.8-2.561,5.12,0,32,.512,36.36,1.024,12.8,1.536,15.36,4.609,17.15,9.218a27.5,27.5,0,0,1,1.54,9.218c0,2.3.51,3.585,2.3,3.585s2.31-1.536,2.56-2.817c0.52-3.073,1.03-14.339,1.28-16.9,0.77-11.779,2.05-14.851,2.05-16.644,0-1.28-.25-2.3-1.53-2.3s-2.82.768-4.1,1.024a102.383,102.383,0,0,1-11.01,1.536c-4.87.256-55.82,0.256-64.02,0.256-3.58,0-9.47-.256-16.127-0.512-6.4,0-13.827-.256-20.741-0.256-3.841,0-5.633.512-5.633,2.3s1.536,2.3,4.353,2.3a52.658,52.658,0,0,1,9.986.768c8.45,1.792,10.5,5.889,11.011,14.6,0.512,8.194.512,15.364,0.512,54.285v45.066ZM1215.13,64.27h0.77c4.61,4.865,33.03,36.873,60.94,64.527,26.63,26.374,59.41,59.918,75.54,75.281,2.81,2.817,5.89,5.634,8.7,5.634,2.31,0,3.33-2.3,3.33-7.938L1367.23,40.2c0.25-14.339,2.3-19.716,9.47-21.765a27.907,27.907,0,0,1,7.68-.768c3.08,0,4.61-.768,4.61-2.3,0-2.048-2.56-2.3-5.89-2.3-12.54,0-22.27.768-25.09,0.768-5.38,0-17.67-.768-30.98-0.768-3.84,0-6.66.256-6.66,2.3,0,1.536,1.02,2.3,4.1,2.3,3.58,0,9.73,0,13.57,1.536,6.14,2.561,8.45,7.426,8.7,23.045l2.56,114.971h-1.28c-4.35-4.1-38.92-40.97-56.33-58.382-37.38-37.128-76.3-78.866-79.38-82.195-4.35-4.609-6.65-7.938-9.47-7.938-2.56,0-3.33,3.585-3.33,8.706L1197.21,169c-0.26,22.277-1.28,29.7-7.94,31.752a45.488,45.488,0,0,1-11.52,1.28c-2.57,0-4.1.512-4.1,2.048,0,2.305,2.3,2.561,5.63,2.561,13.32,0,25.35-.768,27.66-0.768,4.86,0,15.1.768,31.75,0.768,3.58,0,5.89-.512,5.89-2.561,0-1.536-1.54-2.048-4.36-2.048-4.09,0-8.96-.256-13.31-1.792-5.12-1.793-8.45-8.45-8.96-28.423Zm349.52,75.538a2.47,2.47,0,0,1,2.56,1.792l20.48,54.285c1.28,3.072-.51,5.377-2.3,5.889-2.56.256-3.59,0.768-3.59,2.3,0,1.793,3.07,1.793,7.68,2.049,20.49,0.512,39.18.512,48.4,0.512,9.47,0,11.78-.512,11.78-2.561,0-1.792-1.28-2.048-3.33-2.048a56.247,56.247,0,0,1-10.76-1.024c-5.37-1.281-12.8-4.865-22.53-27.911-16.39-38.921-57.36-143.393-63.5-157.476-2.56-5.889-4.1-8.194-6.4-8.194-2.56,0-4.1,2.817-7.17,10.242L1471.7,178.473c-5.13,12.8-9.99,21.508-21.77,23.045a77.534,77.534,0,0,1-7.94.512c-2.05,0-3.07.512-3.07,2.048,0,2.049,1.54,2.561,4.87,2.561,13.31,0,27.39-.768,30.21-0.768,7.94,0,18.95.768,27.14,0.768,2.82,0,4.36-.512,4.36-2.561,0-1.536-.77-2.048-3.85-2.048h-3.84c-7.93,0-10.24-3.329-10.24-7.938,0-3.073,1.28-9.218,3.84-15.619l13.83-36.617c0.51-1.536,1.02-2.048,2.3-2.048h57.11Zm-51.98-12.8c-1.03,0-1.29-.768-1.03-1.793l23.56-62.99c0.25-1.024.77-2.3,1.53-2.3s1.03,1.28,1.28,2.3l23.05,63.246c0.26,0.769,0,1.537-1.28,1.537h-47.11Zm215.08,5.377c0,24.838,0,45.066-1.28,55.821-0.77,7.425-2.3,11.778-7.42,12.8a41.862,41.862,0,0,1-9.22,1.024c-3.08,0-4.1.768-4.1,2.048,0,1.793,1.79,2.561,5.12,2.561,10.24,0,26.38-.768,32.27-0.768,6.91,0,23.04.768,39.94,0.768,2.82,0,4.87-.768,4.87-2.561,0-1.28-1.28-2.048-4.1-2.048a107.861,107.861,0,0,1-13.06-1.024c-7.68-1.025-9.47-5.634-10.24-12.547-1.03-11.011-1.03-31.239-1.03-56.077V87.316c0-38.921,0-46.091.52-54.284,0.51-8.962,2.56-13.315,9.47-14.6a43.241,43.241,0,0,1,7.68-.768c2.56,0,4.1-.512,4.1-2.561,0-1.536-2.05-2.048-5.38-2.048-9.73,0-24.84.768-31.24,0.768-7.42,0-23.56-.768-33.29-0.768-4.09,0-6.14.512-6.14,2.048,0,2.049,1.53,2.561,4.1,2.561a36.273,36.273,0,0,1,9.21,1.024c5.64,1.28,8.2,5.633,8.71,14.339,0.51,8.194.51,15.364,0.51,54.285v45.066Zm166.95,0c0,23.557,0,43.786-1.28,54.54-1.03,7.426-2.31,13.059-7.43,14.084a41.685,41.685,0,0,1-9.21,1.024c-3.08,0-4.1.768-4.1,2.048,0,1.793,1.79,2.561,5.12,2.561,10.24,0,26.37-.768,31.24-0.768,3.84,0,22.79.768,37.64,0.768,3.33,0,5.12-.768,5.12-2.561,0-1.28-1.02-2.048-3.07-2.048a117.863,117.863,0,0,1-12.55-1.024c-7.68-1.025-9.22-6.658-9.99-14.084-1.28-10.754-1.28-30.983-1.28-54.8v-3.585a1.777,1.777,0,0,1,2.05-2.048l22.28,0.512c1.79,0,3.33.256,4.61,1.792,3.33,3.841,15.11,21.253,25.35,35.336,14.34,19.717,24.07,31.752,35.08,37.641,6.66,3.585,13.06,4.865,27.4,4.865H2066c3.08,0,4.87-.512,4.87-2.561,0-1.28-1.03-2.048-3.07-2.048a40.278,40.278,0,0,1-7.17-.768c-3.85-.768-14.34-2.561-28.68-17.412-15.11-15.876-32.78-38.665-55.57-67.344,25.86-21,33.8-38.408,33.8-57.357,0-17.156-10.24-30.215-17.41-35.08-13.83-9.474-30.98-11.01-47.11-11.01-7.94,0-27.4.768-36.11,0.768-5.38,0-21.51-.768-35.08-0.768-3.84,0-5.63.512-5.63,2.3s1.53,2.3,4.35,2.3a52.682,52.682,0,0,1,9.99.768c8.45,1.792,10.5,5.889,11.01,14.6,0.51,8.194.51,15.364,0.51,54.285v45.066ZM1924.91,29.7c0-2.049.52-3.073,2.31-3.585,2.56-.768,7.17-1.024,13.57-1.024,15.11,0,39.18,10.5,39.18,46.859,0,21-7.43,32.776-15.11,38.409-4.61,3.329-7.94,4.353-18.18,4.353-6.4,0-14.08-.768-19.46-2.561-1.79-.768-2.31-1.792-2.31-4.609V29.7Zm214.32,102.68c0,23.557,0,43.786-1.28,54.54-1.02,7.426-2.3,13.059-7.43,14.084a41.685,41.685,0,0,1-9.21,1.024c-3.08,0-4.1.768-4.1,2.048,0,1.793,1.79,2.561,5.12,2.561,5.12,0,11.78-.512,17.67-0.512,6.14-.256,11.78-0.256,14.59-0.256,7.69,0,15.62.256,26.63,0.768,11.02,0.256,25.1.768,44.3,0.768,9.73,0,12.04,0,13.83-6.657,1.28-5.122,3.33-22.534,3.33-28.423,0-2.56,0-4.609-2.05-4.609-1.79,0-2.3,1.024-2.82,3.841-1.79,10.5-4.86,15.876-11.52,18.948s-17.41,3.073-24.07,3.073c-26.12,0-30.21-3.841-30.73-21.509-0.25-7.426,0-30.983,0-39.689V112.153c0-1.536.26-2.56,1.54-2.56,6.15,0,31.5.256,36.36,0.768,9.48,1.024,13.06,4.865,14.34,9.986a66.115,66.115,0,0,1,1.02,9.218,2.035,2.035,0,0,0,2.31,2.305c2.3,0,2.3-2.817,2.3-4.865,0-1.793.77-12.035,1.03-17.156,1.02-13.059,2.05-17.156,2.05-18.693s-0.77-2.048-1.8-2.048c-1.28,0-2.3,1.28-4.09,3.329-2.31,2.561-6.15,3.329-12.29,3.841-5.89.512-35.34,0.512-40.97,0.512-1.54,0-1.8-1.024-1.8-2.817V29.19c0-1.792.52-2.561,1.8-2.561,5.12,0,32,.512,36.36,1.024,12.8,1.536,15.36,4.609,17.15,9.218a27.5,27.5,0,0,1,1.54,9.218c0,2.3.51,3.585,2.3,3.585s2.31-1.536,2.56-2.817c0.52-3.073,1.03-14.339,1.28-16.9,0.77-11.779,2.05-14.851,2.05-16.644,0-1.28-.25-2.3-1.53-2.3s-2.82.768-4.1,1.024a102.383,102.383,0,0,1-11.01,1.536c-4.87.256-55.82,0.256-64.02,0.256-3.58,0-9.47-.256-16.13-0.512-6.4,0-13.82-.256-20.74-0.256-3.84,0-5.63.512-5.63,2.3s1.54,2.3,4.35,2.3a52.682,52.682,0,0,1,9.99.768c8.45,1.792,10.5,5.889,11.01,14.6,0.51,8.194.51,15.364,0.51,54.285v45.066Zm236.34,77.842c13.57,0,27.91-2.3,40.71-10.5,18.44-12.034,24.07-29.7,24.07-44.554,0-24.325-11.01-41.993-41.99-65.295l-7.17-5.377c-21.25-16.132-27.14-25.094-27.14-36.872,0-15.364,11.52-26.374,30.47-26.374,16.64,0,24.07,7.682,27.91,12.547a31.032,31.032,0,0,1,6.65,16.9c0,3.073.77,4.609,2.57,4.609,2.04,0,2.81-2.049,2.81-7.682,0-19.973,1.03-27.4,1.03-30.727,0-1.792-1.28-2.56-3.59-3.073a123.918,123.918,0,0,0-34.05-4.353c-35.6,0-59.15,20.229-59.15,48.4,0,20.741,9.73,38.665,37.89,60.686l11.78,9.218c21.25,16.644,25.1,28.422,25.1,40.969,0,13.571-11.27,29.191-34.32,29.191-15.87,0-30.98-6.914-36.61-25.862a54.12,54.12,0,0,1-2.31-13.059c0-2.048-.25-4.353-2.56-4.353-2.05,0-2.81,2.817-3.07,6.658-0.26,4.1-1.28,19.46-1.28,33.543,0,5.634.77,6.914,4.86,8.706C2349.19,208.431,2360.72,210.224,2375.57,210.224Z"/>
  <path id="Partners" class="cls-3" d="M48.383,1695.07c0,30.06,0,55.87-1.633,69.59-1.307,9.47-2.94,16.66-9.474,17.96a52.882,52.882,0,0,1-11.76,1.31c-3.92,0-5.227.98-5.227,2.61,0,2.29,2.287,3.27,6.534,3.27,13.067,0,33.648-.98,41.161-0.98,8.494,0,29.074.98,50.635,0.98,3.594,0,6.207-.98,6.207-3.27,0-1.63-1.633-2.61-5.227-2.61a136.284,136.284,0,0,1-16.66-1.31c-9.8-1.3-11.761-8.49-12.741-17.64-1.633-14.04-1.633-39.85-1.633-69.91V1564.4c0-3.59.98-5.55,2.614-6.2,2.94-.98,7.84-1.31,12.741-1.31a48.533,48.533,0,0,1,32.668,12.74c18.294,16.33,19.274,38.22,19.274,49,0,33.32-25.481,53.9-43.775,53.9-6.86,0-9.147.98-9.147,3.6,0,2.28,2.287,2.61,3.92,2.94a49.24,49.24,0,0,0,6.86.32c46.388,0,80.363-32.66,80.363-79.05,0-17.32-9.147-32.02-16.334-38.88-5.227-4.9-19.927-18.62-60.762-18.62-15.027,0-33.975.98-47.368,0.98-9.147,0-29.728-.98-47.042-0.98-4.9,0-7.187.66-7.187,2.94s1.96,2.94,5.554,2.94c4.573,0,10.127.33,12.74,0.98,10.78,2.29,13.394,7.52,14.047,18.62,0.653,10.46.653,19.6,0.653,69.26v57.49Zm388.106,9.48a3.142,3.142,0,0,1,3.267,2.28l26.134,69.26c1.634,3.92-.653,6.86-2.94,7.51-3.266.33-4.573,0.98-4.573,2.94,0,2.29,3.92,2.29,9.8,2.62,26.134,0.65,49.982.65,61.742,0.65,12.087,0,15.027-.65,15.027-3.27,0-2.28-1.633-2.61-4.246-2.61a71.682,71.682,0,0,1-13.721-1.31c-6.86-1.63-16.334-6.2-28.748-35.6-20.907-49.66-73.175-182.94-81.016-200.91-3.266-7.51-5.226-10.46-8.167-10.46-3.266,0-5.226,3.6-9.147,13.07l-82,205.16c-6.533,16.33-12.74,27.44-27.767,29.4a100.906,100.906,0,0,1-10.127.65c-2.614,0-3.92.65-3.92,2.61,0,2.62,1.96,3.27,6.206,3.27,16.988,0,34.955-.98,38.548-0.98,10.127,0,24.175.98,34.628,0.98,3.594,0,5.554-.65,5.554-3.27,0-1.96-.98-2.61-4.9-2.61h-4.9c-10.127,0-13.067-4.25-13.067-10.13,0-3.92,1.634-11.76,4.9-19.92l17.641-46.72c0.653-1.96,1.307-2.61,2.94-2.61h72.849Zm-66.315-16.34c-1.307,0-1.634-.98-1.307-2.28l30.054-80.37c0.327-1.3.98-2.94,1.96-2.94s1.307,1.64,1.634,2.94l29.4,80.69c0.327,0.98,0,1.96-1.633,1.96H370.174Zm297.29,6.86c0,30.06,0,55.87-1.633,69.59-1.307,9.47-2.94,16.66-9.474,17.96a52.878,52.878,0,0,1-11.76,1.31c-3.92,0-5.227.98-5.227,2.61,0,2.29,2.287,3.27,6.533,3.27,13.068,0,33.648-.98,39.855-0.98,4.9,0,29.075.98,48.022,0.98,4.247,0,6.533-.98,6.533-3.27,0-1.63-1.306-2.61-3.92-2.61a148.553,148.553,0,0,1-16.007-1.31c-9.8-1.3-11.76-8.49-12.74-17.96-1.634-13.72-1.634-39.53-1.634-69.91v-4.58c0-1.96.98-2.61,2.614-2.61l28.421,0.65c2.286,0,4.246.33,5.88,2.29,4.247,4.9,19.274,27.11,32.341,45.08,18.294,25.16,30.708,40.51,44.755,48.02,8.493,4.58,16.66,6.21,34.954,6.21h31.035c3.92,0,6.207-.65,6.207-3.27,0-1.63-1.307-2.61-3.921-2.61a51.792,51.792,0,0,1-9.147-.98c-4.9-.98-18.294-3.27-36.587-22.21-19.274-20.26-41.815-49.33-70.89-85.92,33-26.79,43.122-49,43.122-73.18,0-21.88-13.067-38.54-22.214-44.75-17.641-12.09-39.528-14.05-60.109-14.05-10.127,0-34.954.98-46.061,0.98-6.861,0-27.441-.98-44.755-0.98-4.9,0-7.187.66-7.187,2.94s1.96,2.94,5.553,2.94c4.574,0,10.127.33,12.741,0.98,10.78,2.29,13.394,7.52,14.047,18.62,0.653,10.46.653,19.6,0.653,69.26v57.49Zm38.548-130.99c0-2.62.654-3.92,2.94-4.58,3.267-.98,9.147-1.3,17.314-1.3,19.274,0,49.982,13.39,49.982,59.78,0,26.79-9.474,41.81-19.274,49-5.88,4.25-10.127,5.55-23.194,5.55-8.167,0-17.967-.98-24.828-3.26-2.286-.98-2.94-2.29-2.94-5.88v-99.31Zm339.758,130.99c0,30.06,0,55.87-1.63,69.59-0.98,9.47-2.94,16.66-9.48,17.96a52.878,52.878,0,0,1-11.76,1.31c-3.92,0-5.23.98-5.23,2.61,0,2.29,2.29,3.27,6.54,3.27,13.07,0,33.65-.98,41.16-0.98,9.15,0,29.73.98,51.29,0.98,3.59,0,6.21-.98,6.21-3.27,0-1.63-1.64-2.61-5.23-2.61a136.237,136.237,0,0,1-16.66-1.31c-9.8-1.3-11.76-8.49-12.74-17.64-1.64-14.04-1.64-39.85-1.64-69.91V1561.14l41.17,0.98c29.07,0.65,37.89,9.8,38.54,18.29l0.33,3.59c0.33,4.9.98,6.54,3.59,6.54,1.96,0,2.62-1.96,2.94-5.23,0-8.49.98-31.03,0.98-37.89,0-4.9-.32-6.86-2.61-6.86-1.31,0-3.92.65-8.82,1.63a157.167,157.167,0,0,1-22.54,1.63H1010.81c-10.78,0-23.189-.65-32.663-1.63-8.167-.65-11.434-3.92-14.047-3.92-1.96,0-2.94,1.96-3.92,6.21-0.654,2.61-6.861,32.34-6.861,37.56,0,3.6.654,5.23,2.941,5.23,1.96,0,2.94-1.31,3.593-3.92a38.714,38.714,0,0,1,5.554-11.43c4.9-7.19,12.74-8.82,31.687-9.48l48.676-1.3v133.93Zm291.41-86.89h0.98c5.88,6.2,42.14,47.04,77.75,82.32,33.97,33.65,75.79,76.44,96.37,96.04,3.59,3.6,7.51,7.19,11.1,7.19,2.94,0,4.25-2.94,4.25-10.13l3.59-206.13c0.33-18.29,2.94-25.15,12.09-27.77a35.607,35.607,0,0,1,9.8-.98q5.88,0,5.88-2.94c0-2.61-3.26-2.94-7.51-2.94-16.01,0-28.42.98-32.02,0.98-6.86,0-22.54-.98-39.52-0.98-4.9,0-8.5.33-8.5,2.94,0,1.96,1.31,2.94,5.23,2.94,4.57,0,12.41,0,17.31,1.96,7.84,3.27,10.78,9.48,11.11,29.4l3.27,146.68h-1.64c-5.55-5.23-49.65-52.27-71.87-74.48-47.69-47.37-97.35-100.62-101.27-104.86-5.55-5.88-8.49-10.13-12.08-10.13-3.27,0-4.25,4.57-4.25,11.11l-2.94,193.39c-0.33,28.42-1.63,37.89-10.13,40.51a58.22,58.22,0,0,1-14.7,1.63c-3.26,0-5.22.65-5.22,2.61,0,2.94,2.94,3.27,7.18,3.27,16.99,0,32.34-.98,35.28-0.98,6.21,0,19.28.98,40.51,0.98,4.58,0,7.52-.65,7.52-3.27,0-1.96-1.96-2.61-5.56-2.61-5.22,0-11.43-.33-16.98-2.29-6.54-2.28-10.79-10.78-11.44-36.26Zm382.88,86.89c0,30.06,0,55.87-1.63,69.59-1.31,9.47-2.94,16.66-9.48,17.96a52.878,52.878,0,0,1-11.76,1.31c-3.92,0-5.22.98-5.22,2.61,0,2.29,2.28,3.27,6.53,3.27,6.53,0,15.03-.65,22.54-0.65,7.84-.33,15.03-0.33,18.62-0.33,9.8,0,19.93.33,33.97,0.98,14.05,0.33,32.02.98,56.52,0.98,12.41,0,15.35,0,17.64-8.49,1.63-6.54,4.25-28.75,4.25-36.26,0-3.27,0-5.88-2.62-5.88-2.28,0-2.94,1.3-3.59,4.9-2.29,13.39-6.21,20.25-14.7,24.17s-22.21,3.92-30.71,3.92c-33.32,0-38.55-4.9-39.2-27.44-0.33-9.47,0-39.53,0-50.64v-25.8c0-1.96.33-3.27,1.96-3.27,7.84,0,40.18.33,46.39,0.98,12.09,1.31,16.66,6.21,18.29,12.74,0.98,4.25.98,8.49,1.31,11.76,0,1.63.65,2.94,2.94,2.94,2.94,0,2.94-3.59,2.94-6.21,0-2.28.98-15.35,1.31-21.88,1.3-16.66,2.61-21.89,2.61-23.85s-0.98-2.61-2.29-2.61c-1.63,0-2.94,1.63-5.22,4.24-2.94,3.27-7.84,4.25-15.68,4.9-7.52.66-45.09,0.66-52.27,0.66-1.96,0-2.29-1.31-2.29-3.6v-82.65c0-2.28.65-3.26,2.29-3.26,6.53,0,40.83.65,46.39,1.3,16.33,1.96,19.6,5.88,21.88,11.76,1.64,3.92,1.96,9.48,1.96,11.76,0,2.94.66,4.58,2.94,4.58s2.94-1.96,3.27-3.6c0.65-3.92,1.31-18.29,1.63-21.56,0.98-15.02,2.62-18.94,2.62-21.23,0-1.63-.33-2.94-1.96-2.94s-3.6.98-5.23,1.31a132.812,132.812,0,0,1-14.05,1.96c-6.2.32-71.21,0.32-81.67,0.32-4.57,0-12.08-.32-20.58-0.65-8.16,0-17.64-.33-26.46-0.33-4.9,0-7.18.66-7.18,2.94s1.96,2.94,5.55,2.94c4.57,0,10.13.33,12.74,0.98,10.78,2.29,13.39,7.52,14.05,18.62,0.65,10.46.65,19.6,0.65,69.26v57.49Zm294.67,0c0,30.06,0,55.87-1.63,69.59-1.31,9.47-2.94,16.66-9.47,17.96a52.878,52.878,0,0,1-11.76,1.31c-3.92,0-5.23.98-5.23,2.61,0,2.29,2.29,3.27,6.53,3.27,13.07,0,33.65-.98,39.86-0.98,4.9,0,29.07.98,48.02,0.98,4.25,0,6.53-.98,6.53-3.27,0-1.63-1.3-2.61-3.92-2.61a148.6,148.6,0,0,1-16.01-1.31c-9.8-1.3-11.76-8.49-12.74-17.96-1.63-13.72-1.63-39.53-1.63-69.91v-4.58c0-1.96.98-2.61,2.61-2.61l28.43,0.65c2.28,0,4.24.33,5.88,2.29,4.24,4.9,19.27,27.11,32.34,45.08,18.29,25.16,30.7,40.51,44.75,48.02,8.5,4.58,16.66,6.21,34.96,6.21h31.03c3.92,0,6.21-.65,6.21-3.27,0-1.63-1.31-2.61-3.92-2.61a51.719,51.719,0,0,1-9.15-.98c-4.9-.98-18.29-3.27-36.59-22.21-19.27-20.26-41.81-49.33-70.89-85.92,33-26.79,43.12-49,43.12-73.18,0-21.88-13.06-38.54-22.21-44.75-17.64-12.09-39.53-14.05-60.11-14.05-10.13,0-34.95.98-46.06,0.98-6.86,0-27.44-.98-44.75-0.98-4.9,0-7.19.66-7.19,2.94s1.96,2.94,5.55,2.94c4.58,0,10.13.33,12.74,0.98,10.78,2.29,13.4,7.52,14.05,18.62,0.65,10.46.65,19.6,0.65,69.26v57.49Zm38.55-130.99c0-2.62.65-3.92,2.94-4.58,3.27-.98,9.15-1.3,17.31-1.3,19.28,0,49.99,13.39,49.99,59.78,0,26.79-9.48,41.81-19.28,49-5.88,4.25-10.12,5.55-23.19,5.55-8.17,0-17.97-.98-24.83-3.26-2.29-.98-2.94-2.29-2.94-5.88v-99.31Zm326.04,230.3c17.31,0,35.61-2.94,51.94-13.39,23.52-15.35,30.71-37.89,30.71-56.84,0-31.04-14.05-53.58-53.58-83.3l-9.15-6.86c-27.11-20.59-34.62-32.02-34.62-47.05,0-19.6,14.7-33.64,38.87-33.64,21.24,0,30.71,9.8,35.61,16,6.86,8.5,8.49,18.62,8.49,21.56,0,3.92.98,5.88,3.27,5.88,2.61,0,3.59-2.61,3.59-9.8,0-25.48,1.31-34.95,1.31-39.2,0-2.28-1.63-3.26-4.57-3.92-8.5-2.28-22.22-5.55-43.45-5.55-45.41,0-75.46,25.81-75.46,61.74,0,26.46,12.41,49.33,48.34,77.42l15.03,11.76c27.12,21.24,32.02,36.26,32.02,52.27,0,17.32-14.38,37.24-43.78,37.24-20.25,0-39.53-8.82-46.71-32.99-1.64-5.55-2.94-12.41-2.94-16.66,0-2.62-.33-5.56-3.27-5.56-2.61,0-3.59,3.6-3.92,8.5-0.33,5.23-1.63,24.83-1.63,42.79,0,7.19.98,8.82,6.2,11.11C2345.67,1792.1,2360.37,1794.38,2379.32,1794.38Z"/>
  <path id="_" data-name="&amp;" class="cls-2" d="M1015.38,986.332c0,47.628,35.04,120.978,152.18,120.978,75,0,111.68-33.39,129.74-49.81,47.08,36.13,66.79,42.15,129.2,42.15h42.15c12.04,0,16.42-1.64,16.42-4.93,0-4.38-2.74-4.92-7.66-4.92-10.95,0-41.06-8.76-58.58-19.16-14.78-8.76-39.41-23.54-76.09-53.65,31.2-36.68,53.65-87.59,53.65-129.742,0-6.569-8.21-9.854-18.61-10.949a613.778,613.778,0,0,0-65.69-3.832c-4.38,0-8.76,1.1-8.76,5.475,0,3.284,3.28,4.379,6.57,4.379,8.21,0,19.7,1.642,26.82,8.211,8.21,7.117,10.4,16.971,10.4,25.182,0,33.393-15.33,68.976-26.28,84.306-10.4-9.308-77.73-70.073-96.34-91.422-43.8-48.721-90.88-92.516-90.88-143.974,0-46.531,35.59-62.406,58.58-62.406,30.65,0,49.81,11.5,60.76,24.634,12.05,14.233,15.88,31.751,15.88,45.984,0,8.211.55,10.4,3.83,10.4s5.47-1.095,6.57-9.307c1.64-8.211,6.02-52,6.02-70.07,0-6.569,0-10.949-9.31-14.233-14.78-6.022-39.41-11.5-66.23-11.5-95.26,0-133.58,57.48-133.03,100.726,0.55,24.635,4.93,47.079,27.92,77.735C1071.76,872.467,1015.38,922.283,1015.38,986.332Zm170.8,86.5c-56.94,0-105.11-43.8-105.11-112.227,0-43.794,19.16-69.523,37.77-83.209,9.31,13.686,44.34,53.1,58.58,68.429s66.78,66.787,98.53,94.157C1264.46,1050.93,1228.33,1072.83,1186.18,1072.83Z"/>
</svg>
