<svg id="logo" xmlns="http://www.w3.org/2000/svg" width="221" height="68" viewBox="0 0 221 68">
  <g id="Group_18101" data-name="Group 18101">
    <path id="Path_19222" data-name="Path 19222" d="M63.51,14.045c-.28.334-.451.532-.458.539l-.026.032a21.211,21.211,0,0,1-15.273,7.348L45.835,22a11.7,11.7,0,0,0-8.267,3.35v-7A17.765,17.765,0,0,0,46.889,2.8c0-.34-.014-.681-.032-1.02A33.928,33.928,0,0,0,43.237.766c.017.332.024.541.026.548l.007.114c.042.453.065.914.065,1.37a14.2,14.2,0,0,1-5.767,11.361V0H34.023V14.159A14.2,14.2,0,0,1,28.256,2.8c0-.457.022-.918.065-1.37l.007-.114c0-.006.009-.216.025-.548a33.963,33.963,0,0,0-3.62,1.012c-.019.34-.032.68-.032,1.02a17.765,17.765,0,0,0,9.322,15.55v7A11.7,11.7,0,0,0,25.755,22l-1.918-.032A21.211,21.211,0,0,1,8.564,14.616l-.026-.032c-.006-.007-.178-.205-.458-.539a33.925,33.925,0,0,0-2.01,3.1A24.832,24.832,0,0,0,23.675,25.5l2.049.036a8.281,8.281,0,0,1,8.3,8.44v20.9L23.723,65.81a33.685,33.685,0,0,0,3.767,1.173l6.532-6.94v7.91q.858.045,1.724.045h.1q.866,0,1.724-.045v-7.91l6.532,6.94a33.685,33.685,0,0,0,3.767-1.173l-10.3-10.937v-20.9a8.281,8.281,0,0,1,8.3-8.44l2.049-.036a24.829,24.829,0,0,0,17.6-8.347,33.768,33.768,0,0,0-2.01-3.1" transform="translate(-1.707)" fill="#1d2a45"/>
    <path id="Path_19223" data-name="Path 19223" d="M14.977,12.27A22.893,22.893,0,0,1,25.148,22.522c.515.068,1.034.122,1.559.152l1.847.031c.195,0,.388.016.581.024a26.352,26.352,0,0,0-11.7-13.154,34.507,34.507,0,0,0-2.916,2.472c.152.073.3.146.455.222" transform="translate(-4.084 -2.73)" fill="#1d2a45"/>
    <path id="Path_19224" data-name="Path 19224" d="M75.16,36.052a28.1,28.1,0,0,1-4.37,1.338,18.465,18.465,0,0,0,17.118,3.119,33.688,33.688,0,0,0-.585-3.545l-.268.106A14.921,14.921,0,0,1,75.16,36.052" transform="translate(-19.908 -10.278)" fill="#1d2a45"/>
    <path id="Path_19225" data-name="Path 19225" d="M60.8,22.939l1.848-.03c.3-.017.6-.043.892-.073A22.872,22.872,0,0,1,73.868,12.27c.15-.076.3-.149.454-.222a34.374,34.374,0,0,0-2.915-2.471A26.341,26.341,0,0,0,59.6,23c.4-.034.8-.058,1.2-.058" transform="translate(-16.762 -2.73)" fill="#1d2a45"/>
    <path id="Path_19226" data-name="Path 19226" d="M17.465,37.015A27.907,27.907,0,0,1,13.208,35.7,14.924,14.924,0,0,1,.824,36.958l-.111-.034s-.051-.013-.134-.037A33.8,33.8,0,0,0,0,40.409a18.483,18.483,0,0,0,17.465-3.394" transform="translate(0 -10.177)" fill="#1d2a45"/>
    <path id="Path_19227" data-name="Path 19227" d="M62.016,60.92l-1.3-17.9c-.06-.675-.091-1.361-.091-2.04,0-.716.036-1.424.1-2.127l-.6.009a6.2,6.2,0,0,0-2.622.566c-.133.061-.263.135-.393.207-.022.448-.037.9-.037,1.345,0,.783.036,1.573.1,2.323L58.7,64.383,69,73.374a34.752,34.752,0,0,0,2.915-2.16l-7.743-6.758H78.144A33.59,33.59,0,0,0,80.31,60.92Z" transform="translate(-16.05 -11.076)" fill="#1d2a45"/>
    <path id="Path_19228" data-name="Path 19228" d="M13.593,71.115a34.3,34.3,0,0,0,2.912,2.161l10.3-8.991,1.525-21.053c.07-.777.1-1.568.1-2.349q0-.934-.063-1.855a6.326,6.326,0,0,0-2.475-.5h-.063l-1.075-.019a23.153,23.153,0,0,1,.121,2.372c0,.678-.029,1.365-.092,2.067l-1.3,17.874H5.2a34.259,34.259,0,0,0,2.166,3.535H21.336Z" transform="translate(-1.463 -10.979)" fill="#1d2a45"/>
  </g>
  <g id="Group_18102" data-name="Group 18102" transform="translate(82 25)">
    <path id="Path_30539" data-name="Path 30539" d="M-4330.569,10139.179a5.26,5.26,0,0,1-1.2-1.943,8.132,8.132,0,0,1-.432-2.739v-6.225h-2.8v-3.15h2.8v-3.383l.1-.021,3.258-.717v4.121h6.4l-1.807,3.15h-4.595v6.061a3.625,3.625,0,0,0,.719,2.425,2.663,2.663,0,0,0,2.116.828,9.727,9.727,0,0,0,2.928-.646l.322-.112-2.133,3.712-.059.01a8.914,8.914,0,0,1-1.607.156A5.489,5.489,0,0,1-4330.569,10139.179Z" transform="translate(4406.721 -10120.705)" fill="#1d2a45"/>
    <path id="Path_30541" data-name="Path 30541" d="M-4322.472,10136.581v-8.964a5.371,5.371,0,0,0-.188-1.494,2.7,2.7,0,0,0-.572-1.059,2.362,2.362,0,0,0-.974-.642,4.219,4.219,0,0,0-1.431-.22,4.638,4.638,0,0,0-1.713.3,3.266,3.266,0,0,0-1.231.873,3.843,3.843,0,0,0-.757,1.4,6.5,6.5,0,0,0-.258,1.9v7.9h-3.358v-11.545H-4335l2.1-3.707h3.305v2.177a6.5,6.5,0,0,1,.687-.832,5.449,5.449,0,0,1,1.16-.905,5.4,5.4,0,0,1,1.407-.568,6.7,6.7,0,0,1,1.667-.2,6.333,6.333,0,0,1,2.331.412,4.738,4.738,0,0,1,1.755,1.191,5.268,5.268,0,0,1,1.1,1.891,7.836,7.836,0,0,1,.376,2.5v9.59Z" transform="translate(4440.946 -10116.909)" fill="#1d2a45"/>
    <path id="Path_30533" data-name="Path 30533" d="M-4330.118,10140.482a7.354,7.354,0,0,1-2.509-1.4,6.715,6.715,0,0,1-1.583-2.031,8.009,8.009,0,0,1-.767-2.406l-.024-.146h3.38l.024.094a4.008,4.008,0,0,0,1.575,2.432,5.93,5.93,0,0,0,3.4.826,7.108,7.108,0,0,0,1.691-.182,3.757,3.757,0,0,0,1.232-.522,2.252,2.252,0,0,0,.75-.825,2.414,2.414,0,0,0,.258-1.125,1.715,1.715,0,0,0-.264-.988,2.007,2.007,0,0,0-.83-.662,18.081,18.081,0,0,0-3.67-1.026c-.088-.021-.178-.04-.267-.06a25.553,25.553,0,0,1-2.626-.7,8.722,8.722,0,0,1-2.139-1.006,4.373,4.373,0,0,1-1.448-1.55,4.246,4.246,0,0,1-.394-1.048,5.567,5.567,0,0,1-.135-1.251,5.49,5.49,0,0,1,.6-2.564,5.428,5.428,0,0,1,1.6-1.854,8.367,8.367,0,0,1,4.983-1.494,10.7,10.7,0,0,1,3.186.442,6.874,6.874,0,0,1,2.3,1.205,6.1,6.1,0,0,1,1.488,1.789,7.173,7.173,0,0,1,.752,2.179l.027.151h-3.373l-.031-.09a3.8,3.8,0,0,0-.544-1.038,3.247,3.247,0,0,0-.864-.8,4.168,4.168,0,0,0-1.241-.513,7.06,7.06,0,0,0-1.674-.181,6.439,6.439,0,0,0-1.676.2,3.586,3.586,0,0,0-1.2.555,2.362,2.362,0,0,0-.725.841,2.38,2.38,0,0,0-.246,1.083,1.455,1.455,0,0,0,.2.8,1.731,1.731,0,0,0,.678.587,13.871,13.871,0,0,0,3.3.973c1.413.308,2.411.567,3.236.833a9.658,9.658,0,0,1,2.389,1.082,4.248,4.248,0,0,1,1.489,1.6,5.027,5.027,0,0,1,.507,2.361,5.65,5.65,0,0,1-.653,2.729,5.321,5.321,0,0,1-1.7,1.845,7.522,7.522,0,0,1-2.34,1.035,10.239,10.239,0,0,1-2.6.326A11.221,11.221,0,0,1-4330.118,10140.482Z" transform="translate(4335.001 -10121.002)" fill="#1d2a45"/>
    <path id="Path_30535" data-name="Path 30535" d="M-4335,10136.257V10121h3.36v2.54a4.2,4.2,0,0,1,1.829-1.825,8.161,8.161,0,0,1,3.847-.715h.129v3.093h-.921a6.04,6.04,0,0,0-1.935.3,4.213,4.213,0,0,0-1.543.922,4.192,4.192,0,0,0-1.029,1.6,6.712,6.712,0,0,0-.377,2.344v7Z" transform="translate(4396.056 -10116.584)" fill="#1d2a45"/>
    <path id="Path_30542" data-name="Path 30542" d="M-4606.02,8594.907a8.619,8.619,0,0,1-3.207-.593,7.423,7.423,0,0,1-2.526-1.649,7.382,7.382,0,0,1-1.652-2.51,8.5,8.5,0,0,1-.592-3.177,8.62,8.62,0,0,1,.586-3.183,7.508,7.508,0,0,1,1.639-2.528,7.41,7.41,0,0,1,2.509-1.669,8.462,8.462,0,0,1,3.188-.6,8.278,8.278,0,0,1,3.177.6,7.1,7.1,0,0,1,2.446,1.679,8.574,8.574,0,0,1,2.133,6.525l-.007.12h-12.244a5.049,5.049,0,0,0,.461,1.646,4.059,4.059,0,0,0,.986,1.3,4.223,4.223,0,0,0,1.4.8,5.252,5.252,0,0,0,1.725.276,5.561,5.561,0,0,0,1.266-.14,4.361,4.361,0,0,0,1.1-.411,3.7,3.7,0,0,0,.9-.675,3.608,3.608,0,0,0,.516-.679l2.748,1.552c-.115.177-.238.349-.364.508a6.946,6.946,0,0,1-1.724,1.569,7.545,7.545,0,0,1-2.109.925A8.963,8.963,0,0,1-4606.02,8594.907Zm-.055-12.98a4.814,4.814,0,0,0-1.579.254,4.154,4.154,0,0,0-1.265.706,4.556,4.556,0,0,0-1.459,2.275h8.447a4.386,4.386,0,0,0-1.394-2.286,3.927,3.927,0,0,0-1.225-.7A4.571,4.571,0,0,0-4606.074,8581.927Z" transform="translate(4737.298 -8574.908)" fill="#1d2a45"/>
    <path id="Path_30540" data-name="Path 30540" d="M-4332.092,10138.136a9.843,9.843,0,0,1-1.218-1.47,9.687,9.687,0,0,1-.916-1.7A10.268,10.268,0,0,1-4335,10131a10.27,10.27,0,0,1,.776-3.959,9.679,9.679,0,0,1,.916-1.7,9.843,9.843,0,0,1,1.218-1.47,10.122,10.122,0,0,1,7.181-2.867,10.485,10.485,0,0,1,3.975.764,9.818,9.818,0,0,1,1.713.9,9.568,9.568,0,0,1,1.483,1.2,9.89,9.89,0,0,1,1.217,1.47,9.875,9.875,0,0,1,.916,1.7,10.39,10.39,0,0,1,.786,3.958h0a10.4,10.4,0,0,1-.786,3.962,9.884,9.884,0,0,1-.916,1.7,9.991,9.991,0,0,1-1.217,1.47,9.976,9.976,0,0,1-1.483,1.2,9.81,9.81,0,0,1-1.713.9,10.467,10.467,0,0,1-3.975.765A10.12,10.12,0,0,1-4332.092,10138.136Zm4.519-13.42a6.366,6.366,0,0,0-2.123,1.42,6.455,6.455,0,0,0-1.408,2.152,7.246,7.246,0,0,0-.511,2.712,7.24,7.24,0,0,0,.511,2.716,6.481,6.481,0,0,0,1.408,2.151,6.381,6.381,0,0,0,2.123,1.42,6.975,6.975,0,0,0,2.662.514,6.9,6.9,0,0,0,2.646-.514,6.389,6.389,0,0,0,2.117-1.42,6.5,6.5,0,0,0,1.4-2.151,7.244,7.244,0,0,0,.51-2.716,7.245,7.245,0,0,0-.51-2.712,6.484,6.484,0,0,0-1.4-2.152,6.374,6.374,0,0,0-2.117-1.42,6.9,6.9,0,0,0-2.646-.512A6.973,6.973,0,0,0-4327.573,10124.716Z" transform="translate(4419.815 -10121.002)" fill="#1d2a45"/>
    <path id="Path_30536" data-name="Path 30536" d="M-4315.436,10136.581v-9.1a5.5,5.5,0,0,0-.169-1.442,2.646,2.646,0,0,0-.513-1.017,2.119,2.119,0,0,0-.879-.61,3.634,3.634,0,0,0-1.3-.21,3.633,3.633,0,0,0-1.554.322,3.059,3.059,0,0,0-1.111.907,5.321,5.321,0,0,0-.911,3.249l.028,7.9h-3.387v-9.1a5.516,5.516,0,0,0-.169-1.442,2.627,2.627,0,0,0-.514-1.017,2.117,2.117,0,0,0-.878-.61,3.635,3.635,0,0,0-1.3-.21,3.609,3.609,0,0,0-1.55.322,3.038,3.038,0,0,0-1.1.907,4.171,4.171,0,0,0-.669,1.412,6.917,6.917,0,0,0-.227,1.837v7.9H-4335v-15.252h3.36v2.09a6.96,6.96,0,0,1,.645-.8,5.317,5.317,0,0,1,1.083-.878,4.938,4.938,0,0,1,1.3-.548,6.018,6.018,0,0,1,1.534-.19,5.236,5.236,0,0,1,2.992.835,4.7,4.7,0,0,1,1.691,2.128,5.908,5.908,0,0,1,1.949-2.1,5.735,5.735,0,0,1,3.136-.863,5.827,5.827,0,0,1,2.19.4,4.47,4.47,0,0,1,1.652,1.154,5.1,5.1,0,0,1,1.035,1.837,7.869,7.869,0,0,1,.356,2.438v9.754Z" transform="translate(4353.232 -10116.909)" fill="#1d2a45"/>
    <path id="Path_30537" data-name="Path 30537" d="M-4330.747,10136.317a6.55,6.55,0,0,1-2.25-1.649,7.5,7.5,0,0,1-1.475-2.513,9.488,9.488,0,0,1-.531-3.2,9.377,9.377,0,0,1,.537-3.2,7.6,7.6,0,0,1,1.486-2.518,6.618,6.618,0,0,1,2.244-1.647,6.789,6.789,0,0,1,2.8-.592,6.361,6.361,0,0,1,3.2.818,6.261,6.261,0,0,1,1.236.933,6.522,6.522,0,0,1,.735.853v-2.274h3.359v15.252h-3.359v-2.219a6.494,6.494,0,0,1-.735.842,6.1,6.1,0,0,1-1.234.917,6.434,6.434,0,0,1-3.17.788A6.92,6.92,0,0,1-4330.747,10136.317Zm1.739-11.767a4.042,4.042,0,0,0-1.38.976,4.485,4.485,0,0,0-.9,1.5,5.612,5.612,0,0,0-.326,1.925,5.6,5.6,0,0,0,.329,1.939,4.411,4.411,0,0,0,.911,1.5,3.939,3.939,0,0,0,1.381.97,4.418,4.418,0,0,0,1.75.346,4.656,4.656,0,0,0,1.787-.347,4.165,4.165,0,0,0,1.428-.972,4.424,4.424,0,0,0,.949-1.5,5.364,5.364,0,0,0,.346-1.937,5.338,5.338,0,0,0-.346-1.923,4.484,4.484,0,0,0-.949-1.5,4.255,4.255,0,0,0-1.428-.978,4.606,4.606,0,0,0-1.787-.351A4.488,4.488,0,0,0-4329.008,10124.551Z" transform="translate(4377.996 -10116.909)" fill="#1d2a45"/>
  </g>
</svg>